
<svg xmlns="http://www.w3.org/2000/svg" width="24" height="25" fill="none" viewBox="0 0 24 25">
  <path fill="#fff" d="M12 7.581a4.8 4.8 0 0 0-4.807 4.807A4.8 4.8 0 0 0 12 17.195a4.8 4.8 0 0 0 4.807-4.807A4.8 4.8 0 0 0 12 7.581Zm0 7.931a3.13 3.13 0 0 1-3.124-3.124A3.13 3.13 0 0 1 12 9.264a3.13 3.13 0 0 1 3.124 3.124A3.13 3.13 0 0 1 12 15.512Zm5.004-9.248a1.122 1.122 0 1 0 0 2.245 1.12 1.12 0 0 0 1.038-1.552 1.122 1.122 0 0 0-1.038-.693Zm4.366 6.124c0-1.294.012-2.576-.06-3.867-.073-1.5-.415-2.831-1.512-3.928-1.1-1.1-2.428-1.44-3.928-1.512-1.294-.072-2.576-.06-3.867-.06-1.294 0-2.576-.012-3.868.06-1.5.073-2.831.415-3.928 1.512-1.1 1.1-1.439 2.428-1.512 3.928-.072 1.294-.06 2.576-.06 3.867 0 1.292-.012 2.576.06 3.867.073 1.5.415 2.832 1.512 3.928 1.1 1.1 2.428 1.44 3.928 1.512 1.294.073 2.576.061 3.867.061 1.294 0 2.576.012 3.868-.06 1.5-.073 2.83-.416 3.928-1.513 1.099-1.099 1.439-2.428 1.512-3.928.075-1.291.06-2.573.06-3.867Zm-2.062 5.527a2.978 2.978 0 0 1-.708 1.073c-.33.33-.647.537-1.073.708-1.233.49-4.16.38-5.527.38-1.366 0-4.296.11-5.529-.378a2.978 2.978 0 0 1-1.073-.707 2.997 2.997 0 0 1-.708-1.074c-.488-1.235-.377-4.162-.377-5.529 0-1.366-.11-4.296.377-5.529.171-.426.377-.745.708-1.073a3.03 3.03 0 0 1 1.073-.708c1.233-.487 4.163-.377 5.53-.377 1.366 0 4.295-.11 5.528.377.427.171.745.377 1.073.708a3 3 0 0 1 .708 1.073c.488 1.233.378 4.163.378 5.53 0 1.366.11 4.293-.38 5.526Z"/>
</svg>
