
<svg xmlns="http://www.w3.org/2000/svg" width="16" height="17" fill="none" viewBox="0 0 16 17">
  <path stroke="#1A6262" stroke-linecap="round" stroke-linejoin="round" stroke-width="1.33" d="M14.667 11.67v2a1.333 1.333 0 0 1-1.453 1.333 13.194 13.194 0 0 1-5.754-2.047 13.001 13.001 0 0 1-4-4 13.193 13.193 0 0 1-2.046-5.78A1.333 1.333 0 0 1 2.74 1.723h2a1.333 1.333 0 0 1 1.334 1.146 8.56 8.56 0 0 0 .466 1.874 1.333 1.333 0 0 1-.3 1.406l-.846.847a10.667 10.667 0 0 0 4 4l.846-.847a1.333 1.333 0 0 1 1.407-.3 8.565 8.565 0 0 0 1.873.467 1.333 1.333 0 0 1 1.147 1.353Z"/>
</svg>
