<svg width="650" height="629" viewBox="0 0 650 629" fill="none" xmlns="http://www.w3.org/2000/svg">
<g clip-path="url(#clip0_1620_427)">
<path fill-rule="evenodd" clip-rule="evenodd" d="M165.196 505.13C256.361 596.295 407.356 593.242 505.297 495.3C603.239 397.359 606.292 246.364 515.127 155.199C500.914 140.986 411.057 207.798 314.426 304.429C217.795 401.06 150.983 490.916 165.196 505.13ZM265.985 556.672C344.887 578.622 435.25 556.77 501.008 491.011C566.767 425.252 588.619 334.889 566.669 255.987C579.386 329.414 552.577 413.706 488.14 478.143C423.703 542.58 339.411 569.389 265.985 556.672ZM483.851 473.854C416.45 541.255 327.288 566.233 252.811 547.324C322.242 556.867 405.317 526.652 470.983 460.986C536.65 395.32 566.864 312.245 557.321 242.814C576.23 317.291 551.252 406.453 483.851 473.854ZM239.831 538.448C309.492 554.291 397.421 525.971 466.694 456.697C535.968 387.424 564.288 299.495 548.445 229.834C550.192 247.822 548.879 267.072 544.662 286.896C533.603 338.885 502.547 395.109 453.826 443.829C405.106 492.55 348.882 523.606 296.893 534.665C277.069 538.882 257.819 540.195 239.831 538.448ZM296.007 528.514C271.579 533.71 248.274 534.333 227.336 530.214C245.137 531.073 264.649 528.393 284.996 522.474C333.805 508.276 388.022 475.32 436.669 426.672C485.317 378.025 518.273 323.808 532.471 274.999C538.39 254.652 541.07 235.14 540.211 217.339C544.33 238.276 543.707 261.582 538.511 286.01C527.758 336.558 497.448 391.63 449.537 439.54C401.627 487.451 346.555 517.761 296.007 528.514ZM215.702 522.679C235.681 525.824 258.797 523.668 283.64 516.441C331.158 502.618 384.397 470.366 432.38 422.383C480.363 374.4 512.615 321.161 526.438 273.643C533.665 248.8 535.821 225.683 532.676 205.705C532.417 222.971 528.094 242.482 520.255 263.121C502.931 308.729 468.091 360.937 419.513 409.515C370.934 458.094 318.726 492.934 273.118 510.258C252.48 518.097 232.969 522.42 215.702 522.679ZM271.255 504.394C246.046 513.969 223.392 517.887 204.833 515.897C221.075 514.314 240.288 508.115 261.254 498.011C303.643 477.581 353.841 440.873 402.356 392.358C450.87 343.844 487.578 293.646 508.008 251.257C518.112 230.291 524.311 211.078 525.894 194.836C527.885 213.395 523.967 236.049 514.391 261.258C497.484 305.767 463.275 357.174 415.223 405.226C367.171 453.278 315.765 487.487 271.255 504.394ZM194.808 509.961C197.763 510.076 200.894 509.982 204.196 509.679C219.492 508.273 238.085 502.388 258.856 492.377C300.374 472.367 349.95 436.186 398.066 388.069C446.183 339.953 482.364 290.377 502.374 248.859C512.385 228.088 518.27 209.495 519.676 194.199C519.979 190.897 520.073 187.766 519.958 184.811C519.725 185.911 519.464 187.027 519.177 188.157C515.556 202.375 507.469 219.843 495.727 239.401C472.216 278.559 433.652 326.748 385.199 375.201C336.745 423.655 288.556 462.219 249.398 485.73C229.841 497.472 212.372 505.559 198.154 509.179C197.024 509.467 195.908 509.728 194.808 509.961ZM197.014 503.087C190.526 504.739 185.089 505.315 180.662 504.936C213.263 493.305 287.341 434.455 365.897 355.9C444.452 277.344 503.302 203.266 514.933 170.664C515.312 175.092 514.736 180.529 513.084 187.016C509.692 200.337 501.974 217.159 490.392 236.45C467.252 274.991 429.086 322.735 380.909 370.912C332.732 419.089 284.988 457.255 246.447 480.395C227.156 491.977 210.335 499.695 197.014 503.087ZM506.969 159.776C509.438 159.372 510.319 159.71 510.515 159.811C510.616 160.007 510.954 160.888 510.55 163.357C510.043 166.458 508.531 170.844 505.766 176.558C500.269 187.917 490.528 203.097 477.124 221.124C450.377 257.097 409.759 303.459 361.608 351.611C313.456 399.762 267.094 440.38 231.121 467.126C213.094 480.531 197.914 490.272 186.555 495.769C180.841 498.534 176.455 500.046 173.354 500.553C170.885 500.957 170.004 500.619 169.808 500.518C169.707 500.322 169.369 499.44 169.773 496.972C170.28 493.87 171.792 489.485 174.557 483.771C180.054 472.411 189.795 457.232 203.199 439.205C229.946 403.232 270.564 356.87 318.715 308.718C366.867 260.567 413.229 219.949 449.202 193.202C467.229 179.798 482.409 170.057 493.768 164.56C499.482 161.795 503.868 160.283 506.969 159.776Z" fill="url(#paint0_linear_1620_427)"/>
<path fill-rule="evenodd" clip-rule="evenodd" d="M139.136 479.069C47.9711 387.905 51.0236 236.91 148.965 138.968C246.907 41.0265 397.902 37.974 489.067 129.139C503.28 143.352 436.467 233.209 339.837 329.84C243.206 426.47 153.349 493.283 139.136 479.069ZM87.5932 378.281C65.6438 299.379 87.4961 209.016 153.255 143.257C219.013 77.4989 309.376 55.6467 388.278 77.5962C314.852 64.8795 230.559 91.6883 166.122 156.125C101.685 220.562 74.8765 304.855 87.5932 378.281ZM170.412 160.414C103.01 227.816 78.0326 316.978 96.9416 391.455C87.3987 322.023 117.613 238.948 183.279 173.282C248.945 107.616 332.021 77.4017 401.452 86.9445C326.975 68.0354 237.813 93.0132 170.412 160.414ZM105.817 404.434C89.9747 334.774 118.295 246.845 187.569 177.571C256.842 108.298 344.771 79.9775 414.432 95.8203C396.444 94.0734 377.194 95.3864 357.369 99.6035C305.381 110.662 249.156 141.719 200.436 190.439C151.716 239.159 120.66 295.384 109.601 347.372C105.384 367.197 104.071 386.447 105.817 404.434ZM115.752 348.259C110.556 372.687 109.933 395.992 114.052 416.93C113.192 399.129 115.872 379.617 121.791 359.269C135.99 310.46 168.946 256.244 217.593 207.596C266.241 158.949 320.457 125.993 369.266 111.794C389.614 105.875 409.126 103.195 426.927 104.054C405.989 99.936 382.684 100.559 358.256 105.755C307.708 116.507 252.636 146.818 204.726 194.728C156.815 242.639 126.505 297.711 115.752 348.259ZM121.587 428.564C118.441 408.585 120.598 385.469 127.825 360.625C141.648 313.108 173.899 259.869 221.882 211.885C269.866 163.902 323.105 131.65 370.622 117.828C395.466 110.601 418.582 108.444 438.561 111.59C421.294 111.848 401.783 116.172 381.145 124.011C335.537 141.335 283.329 176.174 234.75 224.753C186.172 273.332 151.332 325.54 134.008 371.148C126.169 391.786 121.845 411.297 121.587 428.564ZM139.872 373.01C130.296 398.22 126.378 420.873 128.369 439.432C129.951 423.19 136.15 403.977 146.255 383.012C166.685 340.623 203.393 290.424 251.907 241.91C300.421 193.396 350.62 156.688 393.009 136.258C413.975 126.153 433.187 119.954 449.429 118.372C430.871 116.381 408.217 120.299 383.007 129.875C338.498 146.781 287.091 180.99 239.039 229.042C190.987 277.094 156.779 328.501 139.872 373.01ZM134.304 449.458C134.19 446.503 134.284 443.372 134.587 440.07C135.992 424.774 141.878 406.18 151.888 385.41C171.899 343.891 208.08 294.316 256.196 246.199C304.313 198.083 353.888 161.902 395.407 141.891C416.178 131.881 434.771 125.995 450.067 124.59C453.369 124.287 456.5 124.193 459.455 124.307C458.355 124.54 457.239 124.801 456.108 125.089C441.89 128.71 424.422 136.796 404.864 148.539C365.707 172.049 317.518 210.613 269.064 259.067C220.61 307.521 182.046 355.71 158.536 394.867C146.794 414.425 138.707 431.893 135.086 446.111C134.798 447.241 134.537 448.358 134.304 449.458ZM141.178 447.252C139.526 453.74 138.951 459.177 139.33 463.604C150.961 431.003 209.81 356.924 288.366 278.369C366.921 199.813 441 140.964 473.601 129.333C469.174 128.954 463.737 129.529 457.249 131.181C443.928 134.573 427.106 142.292 407.815 153.874C369.275 177.014 321.53 215.179 273.353 263.356C225.176 311.533 187.011 359.278 163.871 397.818C152.289 417.109 144.57 433.931 141.178 447.252ZM484.49 137.297C484.894 134.828 484.556 133.946 484.455 133.751C484.259 133.65 483.377 133.312 480.908 133.715C477.807 134.223 473.422 135.734 467.708 138.5C456.348 143.997 441.169 153.738 423.141 167.142C387.169 193.889 340.807 234.506 292.655 282.658C244.503 330.81 203.886 377.172 177.139 413.144C163.735 431.172 153.994 446.351 148.497 457.71C145.731 463.425 144.22 467.81 143.713 470.911C143.309 473.38 143.647 474.262 143.748 474.458C143.943 474.558 144.825 474.897 147.294 474.493C150.395 473.985 154.78 472.474 160.495 469.709C171.854 464.211 187.033 454.471 205.061 441.066C241.033 414.319 287.396 373.702 335.547 325.55C383.699 277.399 424.316 231.036 451.063 195.064C464.468 177.036 474.208 161.857 479.706 150.498C482.471 144.783 483.983 140.398 484.49 137.297Z" fill="url(#paint1_linear_1620_427)"/>
<path fill-rule="evenodd" clip-rule="evenodd" d="M139.136 479.069C47.9711 387.905 51.0236 236.91 148.965 138.968C246.907 41.0265 397.902 37.974 489.067 129.139C503.28 143.352 436.467 233.209 339.837 329.84C243.206 426.47 153.349 493.283 139.136 479.069ZM87.5932 378.281C65.6438 299.379 87.4961 209.016 153.255 143.257C219.013 77.4989 309.376 55.6467 388.278 77.5962C314.852 64.8795 230.559 91.6883 166.122 156.125C101.685 220.562 74.8765 304.855 87.5932 378.281ZM170.412 160.414C103.01 227.816 78.0326 316.978 96.9416 391.455C87.3987 322.023 117.613 238.948 183.279 173.282C248.945 107.616 332.021 77.4017 401.452 86.9445C326.975 68.0354 237.813 93.0132 170.412 160.414ZM105.817 404.434C89.9747 334.774 118.295 246.845 187.569 177.571C256.842 108.298 344.771 79.9775 414.432 95.8203C396.444 94.0734 377.194 95.3864 357.369 99.6035C305.381 110.662 249.156 141.719 200.436 190.439C151.716 239.159 120.66 295.384 109.601 347.372C105.384 367.197 104.071 386.447 105.817 404.434ZM115.752 348.259C110.556 372.687 109.933 395.992 114.052 416.93C113.192 399.129 115.872 379.617 121.791 359.269C135.99 310.46 168.946 256.244 217.593 207.596C266.241 158.949 320.457 125.993 369.266 111.794C389.614 105.875 409.126 103.195 426.927 104.054C405.989 99.936 382.684 100.559 358.256 105.755C307.708 116.507 252.636 146.818 204.726 194.728C156.815 242.639 126.505 297.711 115.752 348.259ZM121.587 428.564C118.441 408.585 120.598 385.469 127.825 360.625C141.648 313.108 173.899 259.869 221.882 211.885C269.866 163.902 323.105 131.65 370.622 117.828C395.466 110.601 418.582 108.444 438.561 111.59C421.294 111.848 401.783 116.172 381.145 124.011C335.537 141.335 283.329 176.174 234.75 224.753C186.172 273.332 151.332 325.54 134.008 371.148C126.169 391.786 121.845 411.297 121.587 428.564ZM139.872 373.01C130.296 398.22 126.378 420.873 128.369 439.432C129.951 423.19 136.15 403.977 146.255 383.012C166.685 340.623 203.393 290.424 251.907 241.91C300.421 193.396 350.62 156.688 393.009 136.258C413.975 126.153 433.187 119.954 449.429 118.372C430.871 116.381 408.217 120.299 383.007 129.875C338.498 146.781 287.091 180.99 239.039 229.042C190.987 277.094 156.779 328.501 139.872 373.01ZM134.304 449.458C134.19 446.503 134.284 443.372 134.587 440.07C135.992 424.774 141.878 406.18 151.888 385.41C171.899 343.891 208.08 294.316 256.196 246.199C304.313 198.083 353.888 161.902 395.407 141.891C416.178 131.881 434.771 125.995 450.067 124.59C453.369 124.287 456.5 124.193 459.455 124.307C458.355 124.54 457.239 124.801 456.108 125.089C441.89 128.71 424.422 136.796 404.864 148.539C365.707 172.049 317.518 210.613 269.064 259.067C220.61 307.521 182.046 355.71 158.536 394.867C146.794 414.425 138.707 431.893 135.086 446.111C134.798 447.241 134.537 448.358 134.304 449.458ZM141.178 447.252C139.526 453.74 138.951 459.177 139.33 463.604C150.961 431.003 209.81 356.924 288.366 278.369C366.921 199.813 441 140.964 473.601 129.333C469.174 128.954 463.737 129.529 457.249 131.181C443.928 134.573 427.106 142.292 407.815 153.874C369.275 177.014 321.53 215.179 273.353 263.356C225.176 311.533 187.011 359.278 163.871 397.818C152.289 417.109 144.57 433.931 141.178 447.252ZM484.49 137.297C484.894 134.828 484.556 133.946 484.455 133.751C484.259 133.65 483.377 133.312 480.908 133.715C477.807 134.223 473.422 135.734 467.708 138.5C456.348 143.997 441.169 153.738 423.141 167.142C387.169 193.889 340.807 234.506 292.655 282.658C244.503 330.81 203.886 377.172 177.139 413.144C163.735 431.172 153.994 446.351 148.497 457.71C145.731 463.425 144.22 467.81 143.713 470.911C143.309 473.38 143.647 474.262 143.748 474.458C143.943 474.558 144.825 474.897 147.294 474.493C150.395 473.985 154.78 472.474 160.495 469.709C171.854 464.211 187.033 454.471 205.061 441.066C241.033 414.319 287.396 373.702 335.547 325.55C383.699 277.399 424.316 231.036 451.063 195.064C464.468 177.036 474.208 161.857 479.706 150.498C482.471 144.783 483.983 140.398 484.49 137.297Z" fill="url(#paint2_linear_1620_427)"/>
</g>
<defs>
<linearGradient id="paint0_linear_1620_427" x1="314.426" y1="304.429" x2="783" y2="775.501" gradientUnits="userSpaceOnUse">
<stop offset="0.5" stop-color="#FF8633"/>
<stop offset="1" stop-color="#FFF2E8"/>
</linearGradient>
<linearGradient id="paint1_linear_1620_427" x1="116.321" y1="110.853" x2="348.59" y2="339.213" gradientUnits="userSpaceOnUse">
<stop stop-color="white"/>
<stop offset="1" stop-color="white" stop-opacity="0"/>
</linearGradient>
<linearGradient id="paint2_linear_1620_427" x1="148.965" y1="138.968" x2="381.5" y2="374.001" gradientUnits="userSpaceOnUse">
<stop stop-color="#BA8C27"/>
<stop offset="1" stop-color="#FFA366"/>
</linearGradient>
<clipPath id="clip0_1620_427">
<rect width="650" height="650" fill="white" transform="translate(0 -10)"/>
</clipPath>
</defs>
</svg>
