<svg width="348" height="653" viewBox="0 0 348 653" fill="none" xmlns="http://www.w3.org/2000/svg">
<g opacity="0.35" clip-path="url(#clip0_1402_897)" filter="url(#filter0_f_1402_897)">
<path fill-rule="evenodd" clip-rule="evenodd" d="M-136.805 517.961C-45.64 609.126 105.355 606.073 203.296 508.131C301.238 410.19 304.291 259.195 213.126 168.03C198.913 153.817 109.056 220.629 12.4251 317.26C-84.2056 413.891 -151.018 503.748 -136.805 517.961ZM-36.0164 569.503C42.8857 591.453 133.249 569.601 199.007 503.842C264.766 438.084 286.618 347.72 264.668 268.818C277.385 342.245 250.576 426.537 186.139 490.974C121.702 555.411 37.41 582.22 -36.0164 569.503ZM181.85 486.685C114.449 554.086 25.2869 579.064 -49.1901 560.155C20.2412 569.698 103.316 539.484 168.982 473.817C234.649 408.151 264.863 325.076 255.32 255.645C274.229 330.122 249.251 419.284 181.85 486.685ZM-62.1697 551.279C7.4908 567.122 95.4198 538.802 164.693 469.528C233.967 400.255 262.287 312.326 246.444 242.665C248.191 260.653 246.878 279.903 242.661 299.727C231.602 351.716 200.546 407.94 151.825 456.66C103.105 505.381 46.8811 536.437 -5.10751 547.496C-24.9319 551.713 -44.1819 553.026 -62.1697 551.279ZM-5.99404 541.345C-30.4223 546.541 -53.7274 547.164 -74.6653 543.045C-56.8641 543.904 -37.352 541.224 -17.0046 535.305C31.8045 521.107 86.021 488.151 134.669 439.503C183.316 390.856 216.272 336.639 230.47 287.83C236.389 267.483 239.069 247.971 238.21 230.17C242.329 251.107 241.706 274.413 236.51 298.841C225.757 349.389 195.447 404.461 147.536 452.371C99.6258 500.282 44.5536 530.592 -5.99404 541.345ZM-86.2989 535.51C-66.3203 538.655 -43.2039 536.499 -18.3606 529.272C29.1571 515.449 82.3961 483.197 130.379 435.214C178.362 387.231 210.614 333.992 224.437 286.474C231.664 261.631 233.82 238.515 230.675 218.536C230.416 235.802 226.093 255.314 218.254 275.952C200.93 321.56 166.09 373.768 117.512 422.346C68.9329 470.925 16.7248 505.765 -28.8832 523.089C-49.5214 530.928 -69.0323 535.251 -86.2989 535.51ZM-30.7456 517.225C-55.9549 526.8 -78.6088 530.719 -97.1675 528.728C-80.9256 527.145 -61.7128 520.946 -40.7471 510.842C1.6417 490.412 51.8404 453.704 100.355 405.19C148.869 356.675 185.577 306.477 206.007 264.088C216.111 243.122 222.31 223.909 223.893 207.667C225.884 226.226 221.966 248.88 212.39 274.089C195.483 318.598 161.274 370.005 113.222 418.057C65.1703 466.109 13.7635 500.318 -30.7456 517.225ZM-107.193 522.792C-104.238 522.907 -101.107 522.813 -97.8053 522.51C-82.5091 521.104 -63.9158 515.219 -43.1453 505.208C-1.62658 485.198 47.9488 449.017 96.0653 400.9C144.182 352.784 180.363 303.208 200.373 261.69C210.384 240.919 216.269 222.326 217.675 207.03C217.978 203.728 218.072 200.597 217.957 197.642C217.724 198.742 217.463 199.858 217.176 200.988C213.555 215.206 205.468 232.675 193.726 252.232C170.215 291.39 131.651 339.579 83.1976 388.033C34.7439 436.486 -13.445 475.05 -52.6025 498.561C-72.1604 510.303 -89.6286 518.39 -103.847 522.01C-104.977 522.298 -106.093 522.559 -107.193 522.792ZM-104.987 515.918C-111.475 517.57 -116.912 518.146 -121.339 517.767C-88.7383 506.136 -14.6595 447.286 63.896 368.731C142.452 290.175 201.301 216.097 212.932 183.495C213.311 187.923 212.735 193.36 211.083 199.848C207.691 213.168 199.973 229.99 188.391 249.281C165.251 287.822 127.085 335.566 78.9084 383.743C30.7314 431.92 -17.0132 470.086 -55.5535 493.226C-74.8446 504.808 -91.6665 512.526 -104.987 515.918ZM204.968 172.607C207.437 172.203 208.318 172.541 208.514 172.642C208.615 172.838 208.953 173.719 208.549 176.188C208.042 179.289 206.53 183.675 203.765 189.389C198.268 200.748 188.527 215.928 175.123 233.955C148.376 269.928 107.758 316.29 59.6068 364.442C11.4551 412.593 -34.9074 453.211 -70.8796 479.958C-88.9073 493.362 -104.086 503.103 -115.446 508.6C-121.16 511.365 -125.546 512.877 -128.647 513.384C-131.115 513.788 -131.997 513.45 -132.193 513.349C-132.294 513.153 -132.632 512.272 -132.228 509.803C-131.721 506.702 -130.209 502.316 -127.444 496.602C-121.947 485.243 -112.206 470.063 -98.8015 452.036C-72.0546 416.063 -31.4374 369.701 16.7143 321.549C64.866 273.398 111.228 232.78 147.201 206.033C165.228 192.629 180.408 182.888 191.767 177.391C197.481 174.626 201.867 173.114 204.968 172.607Z" fill="url(#paint0_linear_1402_897)"/>
<path fill-rule="evenodd" clip-rule="evenodd" d="M-162.865 491.901C-254.03 400.736 -250.977 249.741 -153.036 151.799C-55.0939 53.8575 95.9008 50.8051 187.066 141.97C201.279 156.183 134.466 246.04 37.8357 342.671C-58.795 439.301 -148.652 506.114 -162.865 491.901ZM-214.408 391.112C-236.357 312.21 -214.505 221.847 -148.746 156.089C-82.9878 90.33 7.37523 68.4778 86.2773 90.4272C12.8509 77.7105 -71.4417 104.519 -135.879 168.956C-200.316 233.393 -227.124 317.686 -214.408 391.112ZM-131.589 173.246C-198.991 240.647 -223.968 329.809 -205.059 404.286C-214.602 334.854 -184.388 251.779 -118.722 186.113C-53.0556 120.447 30.0197 90.2328 99.451 99.7756C24.974 80.8665 -64.1881 105.844 -131.589 173.246ZM-196.184 417.265C-212.026 347.605 -183.706 259.676 -114.432 190.402C-45.159 121.129 42.7701 92.8086 112.431 108.651C94.4428 106.904 75.1927 108.217 55.3683 112.435C3.37964 123.494 -52.8445 154.55 -101.565 203.27C-150.285 251.99 -181.341 308.215 -192.4 360.203C-196.617 380.028 -197.93 399.278 -196.184 417.265ZM-186.249 361.09C-191.445 385.518 -192.068 408.823 -187.949 429.761C-188.809 411.96 -186.129 392.448 -180.21 372.1C-166.011 323.291 -133.055 269.075 -84.4077 220.427C-35.7603 171.78 18.4563 138.824 67.2653 124.625C87.6127 118.706 107.125 116.026 124.926 116.885C103.988 112.767 80.6831 113.39 56.2548 118.586C5.70713 129.339 -49.365 159.649 -97.2755 207.559C-145.186 255.47 -175.496 310.542 -186.249 361.09ZM-180.414 441.395C-183.56 421.416 -181.403 398.3 -174.176 373.456C-160.353 325.939 -128.102 272.7 -80.1185 224.716C-32.1353 176.733 21.1037 144.482 68.6214 130.659C93.4647 123.432 116.581 121.275 136.56 124.421C119.293 124.679 99.7822 129.003 79.1439 136.842C33.536 154.166 -18.6721 189.005 -67.2508 237.584C-115.829 286.163 -150.669 338.371 -167.993 383.979C-175.832 404.617 -180.156 424.128 -180.414 441.395ZM-162.129 385.841C-171.705 411.051 -175.623 433.705 -173.632 452.263C-172.05 436.021 -165.851 416.808 -155.746 395.843C-135.316 353.454 -98.6079 303.255 -50.0938 254.741C-1.57966 206.227 48.6191 169.519 91.0079 149.089C111.974 138.984 131.186 132.785 147.428 131.203C128.87 129.212 106.216 133.13 81.0064 142.706C36.4972 159.612 -14.9095 193.821 -62.9615 241.873C-111.014 289.925 -145.222 341.332 -162.129 385.841ZM-167.697 462.289C-167.811 459.334 -167.717 456.203 -167.414 452.901C-166.009 437.605 -160.123 419.012 -150.112 398.241C-130.102 356.722 -93.9211 307.147 -45.8046 259.03C2.31199 210.914 51.8874 174.733 93.4061 154.722C114.177 144.712 132.77 138.826 148.066 137.421C151.368 137.118 154.499 137.024 157.454 137.138C156.354 137.371 155.238 137.632 154.107 137.92C139.889 141.541 122.421 149.627 102.863 161.37C63.7057 184.88 15.5169 223.444 -32.9368 271.898C-81.3906 320.352 -119.955 368.541 -143.465 407.698C-155.207 427.256 -163.294 444.724 -166.915 458.942C-167.203 460.073 -167.464 461.189 -167.697 462.289ZM-160.823 460.083C-162.475 466.571 -163.05 472.008 -162.671 476.435C-151.04 443.834 -92.1907 369.755 -13.6352 291.2C64.9203 212.644 138.999 153.795 171.6 142.164C167.173 141.785 161.736 142.36 155.248 144.012C141.927 147.404 125.105 155.123 105.814 166.705C67.2739 189.845 19.5294 228.01 -28.6476 276.187C-76.8245 324.364 -114.99 372.109 -138.13 410.649C-149.712 429.94 -157.431 446.762 -160.823 460.083ZM182.489 150.128C182.893 147.659 182.555 146.777 182.454 146.582C182.258 146.481 181.376 146.143 178.907 146.546C175.806 147.054 171.421 148.565 165.707 151.331C154.347 156.828 139.168 166.569 121.14 179.973C85.1681 206.72 38.8057 247.337 -9.34599 295.489C-57.4977 343.641 -98.1149 390.003 -124.862 425.975C-138.266 444.003 -148.007 459.182 -153.504 470.542C-156.27 476.256 -157.781 480.641 -158.288 483.742C-158.692 486.211 -158.354 487.093 -158.253 487.289C-158.058 487.389 -157.176 487.728 -154.707 487.324C-151.606 486.816 -147.221 485.305 -141.506 482.54C-130.147 477.042 -114.968 467.302 -96.9399 453.897C-60.9677 427.15 -14.6053 386.533 33.5464 338.381C81.6981 290.23 122.315 243.867 149.062 207.895C162.467 189.867 172.207 174.688 177.705 163.329C180.47 157.614 181.982 153.229 182.489 150.128Z" fill="url(#paint1_linear_1402_897)"/>
<path fill-rule="evenodd" clip-rule="evenodd" d="M-162.865 491.901C-254.03 400.736 -250.977 249.741 -153.036 151.799C-55.0939 53.8575 95.9008 50.8051 187.066 141.97C201.279 156.183 134.466 246.04 37.8357 342.671C-58.795 439.301 -148.652 506.114 -162.865 491.901ZM-214.408 391.112C-236.357 312.21 -214.505 221.847 -148.746 156.089C-82.9878 90.33 7.37523 68.4778 86.2773 90.4272C12.8509 77.7105 -71.4417 104.519 -135.879 168.956C-200.316 233.393 -227.124 317.686 -214.408 391.112ZM-131.589 173.246C-198.991 240.647 -223.968 329.809 -205.059 404.286C-214.602 334.854 -184.388 251.779 -118.722 186.113C-53.0556 120.447 30.0197 90.2328 99.451 99.7756C24.974 80.8665 -64.1881 105.844 -131.589 173.246ZM-196.184 417.265C-212.026 347.605 -183.706 259.676 -114.432 190.402C-45.159 121.129 42.7701 92.8086 112.431 108.651C94.4428 106.904 75.1927 108.217 55.3683 112.435C3.37964 123.494 -52.8445 154.55 -101.565 203.27C-150.285 251.99 -181.341 308.215 -192.4 360.203C-196.617 380.028 -197.93 399.278 -196.184 417.265ZM-186.249 361.09C-191.445 385.518 -192.068 408.823 -187.949 429.761C-188.809 411.96 -186.129 392.448 -180.21 372.1C-166.011 323.291 -133.055 269.075 -84.4077 220.427C-35.7603 171.78 18.4563 138.824 67.2653 124.625C87.6127 118.706 107.125 116.026 124.926 116.885C103.988 112.767 80.6831 113.39 56.2548 118.586C5.70713 129.339 -49.365 159.649 -97.2755 207.559C-145.186 255.47 -175.496 310.542 -186.249 361.09ZM-180.414 441.395C-183.56 421.416 -181.403 398.3 -174.176 373.456C-160.353 325.939 -128.102 272.7 -80.1185 224.716C-32.1353 176.733 21.1037 144.482 68.6214 130.659C93.4647 123.432 116.581 121.275 136.56 124.421C119.293 124.679 99.7822 129.003 79.1439 136.842C33.536 154.166 -18.6721 189.005 -67.2508 237.584C-115.829 286.163 -150.669 338.371 -167.993 383.979C-175.832 404.617 -180.156 424.128 -180.414 441.395ZM-162.129 385.841C-171.705 411.051 -175.623 433.705 -173.632 452.263C-172.05 436.021 -165.851 416.808 -155.746 395.843C-135.316 353.454 -98.6079 303.255 -50.0938 254.741C-1.57966 206.227 48.6191 169.519 91.0079 149.089C111.974 138.984 131.186 132.785 147.428 131.203C128.87 129.212 106.216 133.13 81.0064 142.706C36.4972 159.612 -14.9095 193.821 -62.9615 241.873C-111.014 289.925 -145.222 341.332 -162.129 385.841ZM-167.697 462.289C-167.811 459.334 -167.717 456.203 -167.414 452.901C-166.009 437.605 -160.123 419.012 -150.112 398.241C-130.102 356.722 -93.9211 307.147 -45.8046 259.03C2.31199 210.914 51.8874 174.733 93.4061 154.722C114.177 144.712 132.77 138.826 148.066 137.421C151.368 137.118 154.499 137.024 157.454 137.138C156.354 137.371 155.238 137.632 154.107 137.92C139.889 141.541 122.421 149.627 102.863 161.37C63.7057 184.88 15.5169 223.444 -32.9368 271.898C-81.3906 320.352 -119.955 368.541 -143.465 407.698C-155.207 427.256 -163.294 444.724 -166.915 458.942C-167.203 460.073 -167.464 461.189 -167.697 462.289ZM-160.823 460.083C-162.475 466.571 -163.05 472.008 -162.671 476.435C-151.04 443.834 -92.1907 369.755 -13.6352 291.2C64.9203 212.644 138.999 153.795 171.6 142.164C167.173 141.785 161.736 142.36 155.248 144.012C141.927 147.404 125.105 155.123 105.814 166.705C67.2739 189.845 19.5294 228.01 -28.6476 276.187C-76.8245 324.364 -114.99 372.109 -138.13 410.649C-149.712 429.94 -157.431 446.762 -160.823 460.083ZM182.489 150.128C182.893 147.659 182.555 146.777 182.454 146.582C182.258 146.481 181.376 146.143 178.907 146.546C175.806 147.054 171.421 148.565 165.707 151.331C154.347 156.828 139.168 166.569 121.14 179.973C85.1681 206.72 38.8057 247.337 -9.34599 295.489C-57.4977 343.641 -98.1149 390.003 -124.862 425.975C-138.266 444.003 -148.007 459.182 -153.504 470.542C-156.27 476.256 -157.781 480.641 -158.288 483.742C-158.692 486.211 -158.354 487.093 -158.253 487.289C-158.058 487.389 -157.176 487.728 -154.707 487.324C-151.606 486.816 -147.221 485.305 -141.506 482.54C-130.147 477.042 -114.968 467.302 -96.9399 453.897C-60.9677 427.15 -14.6053 386.533 33.5464 338.381C81.6981 290.23 122.315 243.867 149.062 207.895C162.467 189.867 172.207 174.688 177.705 163.329C180.47 157.614 181.982 153.229 182.489 150.128Z" fill="url(#paint2_linear_1402_897)"/>
</g>
<g clip-path="url(#clip1_1402_897)">
<path fill-rule="evenodd" clip-rule="evenodd" d="M-136.804 135.699C-45.6391 44.5346 105.356 47.587 203.297 145.529C301.239 243.471 304.292 394.465 213.127 485.63C198.914 499.843 102.133 442.631 5.50196 346C-91.1287 249.369 -151.017 149.913 -136.804 135.699ZM-36.0154 84.1567C42.8866 62.2073 133.25 84.0595 199.008 149.818C264.767 215.577 286.619 305.94 264.669 384.842C277.386 311.415 250.577 227.123 186.14 162.686C121.703 98.2488 37.411 71.44 -36.0154 84.1567ZM181.851 166.975C114.45 99.5738 25.2879 74.596 -49.1891 93.5051C20.2422 83.9622 103.317 114.177 168.983 179.843C234.649 245.509 264.864 328.584 255.321 398.015C274.23 323.538 249.252 234.376 181.851 166.975ZM-62.1688 102.381C7.49177 86.5381 95.4207 114.859 164.694 184.132C233.968 253.405 262.288 341.334 246.445 410.995C248.192 393.007 246.879 373.757 242.662 353.933C231.603 301.944 200.547 245.72 151.826 197C103.106 148.279 46.8821 117.223 -5.10653 106.164C-24.9309 101.947 -44.1809 100.634 -62.1688 102.381ZM-5.99306 112.316C-30.4213 107.119 -53.7264 106.497 -74.6643 110.615C-56.8632 109.756 -37.351 112.436 -17.0036 118.355C31.8055 132.553 86.022 165.509 134.669 214.157C183.317 262.804 216.273 317.021 230.471 365.83C236.39 386.177 239.07 405.689 238.211 423.491C242.33 402.553 241.707 379.248 236.511 354.819C225.758 304.272 195.448 249.199 147.537 201.289C99.6267 153.378 44.5546 123.068 -5.99306 112.316ZM-86.2979 118.15C-66.3193 115.005 -43.2029 117.162 -18.3596 124.388C29.158 138.211 82.397 170.463 130.38 218.446C178.363 266.429 210.615 319.668 224.438 367.186C231.665 392.029 233.821 415.146 230.676 435.124C230.417 417.858 226.094 398.347 218.255 377.708C200.931 332.1 166.091 279.892 117.513 231.314C68.9338 182.735 16.7258 147.896 -28.8822 130.571C-49.5204 122.732 -69.0314 118.409 -86.2979 118.15ZM-30.7446 136.435C-55.9539 126.86 -78.6079 122.942 -97.1665 124.932C-80.9246 126.515 -61.7118 132.714 -40.7461 142.819C1.64267 163.248 51.8414 199.956 100.356 248.471C148.87 296.985 185.578 347.183 206.008 389.572C216.112 410.538 222.311 429.751 223.894 445.993C225.885 427.434 221.967 404.78 212.391 379.571C195.484 335.062 161.275 283.655 113.223 235.603C65.1713 187.551 13.7645 153.342 -30.7446 136.435ZM-107.192 130.868C-104.237 130.753 -101.106 130.847 -97.8043 131.151C-82.5081 132.556 -63.9148 138.441 -43.1443 148.452C-1.62561 168.462 47.9498 204.643 96.0663 252.76C144.183 300.876 180.364 350.452 200.374 391.971C210.385 412.741 216.27 431.334 217.676 446.63C217.979 449.932 218.073 453.063 217.958 456.018C217.725 454.918 217.464 453.802 217.176 452.672C213.556 438.454 205.469 420.986 193.727 401.428C170.216 362.27 131.652 314.081 83.1986 265.628C34.7448 217.174 -13.444 178.61 -52.6015 155.1C-72.1594 143.357 -89.6276 135.27 -103.846 131.65C-104.976 131.362 -106.092 131.101 -107.192 130.868ZM-104.986 137.742C-111.474 136.09 -116.911 135.514 -121.338 135.893C-88.7373 147.524 -14.6585 206.374 63.897 284.929C142.452 363.485 201.302 437.563 212.933 470.165C213.312 465.737 212.736 460.3 211.084 453.813C207.692 440.492 199.974 423.67 188.392 404.379C165.252 365.838 127.086 318.094 78.9093 269.917C30.7324 221.74 -17.0122 183.574 -55.5525 160.435C-74.8436 148.852 -91.6655 141.134 -104.986 137.742ZM204.969 481.053C207.438 481.457 208.319 481.119 208.515 481.018C208.616 480.822 208.954 479.941 208.55 477.472C208.043 474.371 206.531 469.985 203.766 464.271C198.269 452.912 188.528 437.732 175.124 419.705C148.377 383.733 107.759 337.37 59.6077 289.218C11.456 241.067 -34.9064 200.45 -70.8786 173.703C-88.9063 160.298 -104.086 150.558 -115.445 145.06C-121.159 142.295 -125.545 140.783 -128.646 140.276C-131.114 139.872 -131.996 140.21 -132.192 140.311C-132.293 140.507 -132.631 141.389 -132.227 143.858C-131.72 146.959 -130.208 151.344 -127.443 157.058C-121.946 168.418 -112.205 183.597 -98.8005 201.625C-72.0536 237.597 -36.6497 290.848 11.502 339C59.6536 387.152 111.229 420.88 147.202 447.627C165.229 461.031 180.409 470.772 191.768 476.269C197.482 479.035 201.868 480.546 204.969 481.053Z" fill="url(#paint3_linear_1402_897)"/>
<path fill-rule="evenodd" clip-rule="evenodd" d="M-162.864 161.76C-254.029 252.924 -250.976 403.919 -153.035 501.861C-55.0929 599.803 95.9018 602.855 187.067 511.69C201.28 497.477 132.633 415.131 36.002 318.5C-60.6287 221.869 -148.651 147.546 -162.864 161.76ZM-214.407 262.548C-236.356 341.45 -214.504 431.813 -148.745 497.572C-82.9869 563.33 7.37617 585.182 86.2782 563.233C12.8519 575.95 -71.4408 549.141 -135.878 484.704C-200.315 420.267 -227.123 335.974 -214.407 262.548ZM-131.588 480.415C-198.99 413.013 -223.967 323.851 -205.058 249.374C-214.601 318.806 -184.387 401.881 -118.721 467.547C-53.0547 533.213 30.0206 563.427 99.4519 553.885C24.9749 572.794 -64.1872 547.816 -131.588 480.415ZM-196.183 236.395C-212.025 306.055 -183.705 393.984 -114.431 463.258C-45.158 532.531 42.771 560.852 112.432 545.009C94.4438 546.756 75.1936 545.443 55.3692 541.226C3.38059 530.167 -52.8436 499.11 -101.564 450.39C-150.284 401.67 -181.34 345.446 -192.399 293.457C-196.616 273.633 -197.929 254.383 -196.183 236.395ZM-186.248 292.57C-191.444 268.142 -192.067 244.837 -187.949 223.899C-188.808 241.7 -186.128 261.212 -180.209 281.56C-166.01 330.369 -133.054 384.585 -84.4068 433.233C-35.7593 481.88 18.4572 514.836 67.2663 529.035C87.6137 534.954 107.126 537.634 124.927 536.775C103.989 540.893 80.6841 540.27 56.2557 535.074C5.7081 524.322 -49.364 494.011 -97.2745 446.101C-145.185 398.19 -175.495 343.118 -186.248 292.57ZM-180.413 212.266C-183.559 232.244 -181.402 255.361 -174.175 280.204C-160.352 327.722 -128.101 380.961 -80.1175 428.944C-32.1343 476.927 21.1046 509.179 68.6223 523.001C93.4657 530.228 116.582 532.385 136.561 529.239C119.294 528.981 99.7831 524.658 79.1449 516.818C33.5369 499.494 -18.6712 464.655 -67.2498 416.076C-115.828 367.497 -150.668 315.289 -167.992 269.681C-175.831 249.043 -180.155 229.532 -180.413 212.266ZM-162.128 267.819C-171.704 242.61 -175.622 219.956 -173.631 201.397C-172.049 217.639 -165.85 236.852 -155.745 257.817C-135.315 300.206 -98.607 350.405 -50.0929 398.919C-1.57871 447.433 48.62 484.141 91.0088 504.571C111.974 514.676 131.187 520.875 147.429 522.457C128.871 524.448 106.217 520.53 81.0073 510.954C36.4982 494.048 -14.9086 459.839 -62.9606 411.787C-111.013 363.735 -145.221 312.328 -162.128 267.819ZM-167.696 191.371C-167.81 194.327 -167.716 197.457 -167.413 200.759C-166.008 216.055 -160.122 234.649 -150.112 255.419C-130.101 296.938 -93.9201 346.513 -45.8036 394.63C2.31294 442.746 51.8883 478.927 93.407 498.938C114.178 508.948 132.771 514.834 148.067 516.239C151.369 516.542 154.5 516.636 157.455 516.522C156.355 516.289 155.239 516.028 154.108 515.74C139.89 512.119 122.422 504.033 102.864 492.29C63.7067 468.78 15.5178 430.216 -32.9359 381.762C-81.3896 333.308 -119.954 285.119 -143.464 245.962C-155.207 226.404 -163.293 208.936 -166.914 194.718C-167.202 193.588 -167.463 192.472 -167.696 191.371ZM-160.822 193.577C-162.474 187.089 -163.049 181.653 -162.67 177.225C-151.039 209.826 -92.1898 283.905 -13.6343 362.46C64.9212 441.016 139 499.865 171.601 511.496C167.174 511.875 161.737 511.3 155.249 509.648C141.928 506.256 125.106 498.537 105.815 486.955C67.2749 463.815 19.5303 425.65 -28.6466 377.473C-76.8236 329.296 -114.989 281.551 -138.129 243.011C-149.711 223.72 -157.43 206.898 -160.822 193.577ZM182.49 503.532C182.894 506.001 182.555 506.883 182.455 507.078C182.259 507.179 181.377 507.518 178.908 507.114C175.807 506.606 171.422 505.095 165.708 502.329C154.348 496.832 139.169 487.091 121.141 473.687C85.1691 446.94 38.8067 406.323 -9.34504 358.171C-57.4967 310.02 -98.114 263.657 -124.861 227.685C-138.265 209.657 -148.006 194.478 -153.503 183.119C-156.269 177.404 -157.78 173.019 -158.287 169.918C-158.691 167.449 -158.353 166.567 -158.252 166.372C-158.057 166.271 -157.175 165.932 -154.706 166.336C-151.605 166.844 -147.22 168.355 -141.505 171.121C-130.146 176.618 -114.967 186.359 -96.9389 199.763C-60.9667 226.51 -18.6497 276.348 29.502 324.5C77.6536 372.652 122.316 409.793 149.063 445.765C162.468 463.793 172.208 478.972 177.706 490.331C180.471 496.046 181.982 500.431 182.49 503.532Z" fill="url(#paint4_linear_1402_897)"/>
<path fill-rule="evenodd" clip-rule="evenodd" d="M-162.864 161.76C-254.029 252.924 -250.976 403.919 -153.035 501.861C-55.0929 599.803 95.9018 602.855 187.067 511.69C201.28 497.477 132.633 415.131 36.002 318.5C-60.6287 221.869 -148.651 147.546 -162.864 161.76ZM-214.407 262.548C-236.356 341.45 -214.504 431.813 -148.745 497.572C-82.9869 563.33 7.37617 585.182 86.2782 563.233C12.8519 575.95 -71.4408 549.141 -135.878 484.704C-200.315 420.267 -227.123 335.974 -214.407 262.548ZM-131.588 480.415C-198.99 413.013 -223.967 323.851 -205.058 249.374C-214.601 318.806 -184.387 401.881 -118.721 467.547C-53.0547 533.213 30.0206 563.427 99.4519 553.885C24.9749 572.794 -64.1872 547.816 -131.588 480.415ZM-196.183 236.395C-212.025 306.055 -183.705 393.984 -114.431 463.258C-45.158 532.531 42.771 560.852 112.432 545.009C94.4438 546.756 75.1936 545.443 55.3692 541.226C3.38059 530.167 -52.8436 499.11 -101.564 450.39C-150.284 401.67 -181.34 345.446 -192.399 293.457C-196.616 273.633 -197.929 254.383 -196.183 236.395ZM-186.248 292.57C-191.444 268.142 -192.067 244.837 -187.949 223.899C-188.808 241.7 -186.128 261.212 -180.209 281.56C-166.01 330.369 -133.054 384.585 -84.4068 433.233C-35.7593 481.88 18.4572 514.836 67.2663 529.035C87.6137 534.954 107.126 537.634 124.927 536.775C103.989 540.893 80.6841 540.27 56.2557 535.074C5.7081 524.322 -49.364 494.011 -97.2745 446.101C-145.185 398.19 -175.495 343.118 -186.248 292.57ZM-180.413 212.266C-183.559 232.244 -181.402 255.361 -174.175 280.204C-160.352 327.722 -128.101 380.961 -80.1175 428.944C-32.1343 476.927 21.1046 509.179 68.6223 523.001C93.4657 530.228 116.582 532.385 136.561 529.239C119.294 528.981 99.7831 524.658 79.1449 516.818C33.5369 499.494 -18.6712 464.655 -67.2498 416.076C-115.828 367.497 -150.668 315.289 -167.992 269.681C-175.831 249.043 -180.155 229.532 -180.413 212.266ZM-162.128 267.819C-171.704 242.61 -175.622 219.956 -173.631 201.397C-172.049 217.639 -165.85 236.852 -155.745 257.817C-135.315 300.206 -98.607 350.405 -50.0929 398.919C-1.57871 447.433 48.62 484.141 91.0088 504.571C111.974 514.676 131.187 520.875 147.429 522.457C128.871 524.448 106.217 520.53 81.0073 510.954C36.4982 494.048 -14.9086 459.839 -62.9606 411.787C-111.013 363.735 -145.221 312.328 -162.128 267.819ZM-167.696 191.371C-167.81 194.327 -167.716 197.457 -167.413 200.759C-166.008 216.055 -160.122 234.649 -150.112 255.419C-130.101 296.938 -93.9201 346.513 -45.8036 394.63C2.31294 442.746 51.8883 478.927 93.407 498.938C114.178 508.948 132.771 514.834 148.067 516.239C151.369 516.542 154.5 516.636 157.455 516.522C156.355 516.289 155.239 516.028 154.108 515.74C139.89 512.119 122.422 504.033 102.864 492.29C63.7067 468.78 15.5178 430.216 -32.9359 381.762C-81.3896 333.308 -119.954 285.119 -143.464 245.962C-155.207 226.404 -163.293 208.936 -166.914 194.718C-167.202 193.588 -167.463 192.472 -167.696 191.371ZM-160.822 193.577C-162.474 187.089 -163.049 181.653 -162.67 177.225C-151.039 209.826 -92.1898 283.905 -13.6343 362.46C64.9212 441.016 139 499.865 171.601 511.496C167.174 511.875 161.737 511.3 155.249 509.648C141.928 506.256 125.106 498.537 105.815 486.955C67.2749 463.815 19.5303 425.65 -28.6466 377.473C-76.8236 329.296 -114.989 281.551 -138.129 243.011C-149.711 223.72 -157.43 206.898 -160.822 193.577ZM182.49 503.532C182.894 506.001 182.555 506.883 182.455 507.078C182.259 507.179 181.377 507.518 178.908 507.114C175.807 506.606 171.422 505.095 165.708 502.329C154.348 496.832 139.169 487.091 121.141 473.687C85.1691 446.94 38.8067 406.323 -9.34504 358.171C-57.4967 310.02 -98.114 263.657 -124.861 227.685C-138.265 209.657 -148.006 194.478 -153.503 183.119C-156.269 177.404 -157.78 173.019 -158.287 169.918C-158.691 167.449 -158.353 166.567 -158.252 166.372C-158.057 166.271 -157.175 165.932 -154.706 166.336C-151.605 166.844 -147.22 168.355 -141.505 171.121C-130.146 176.618 -114.967 186.359 -96.9389 199.763C-60.9667 226.51 -18.6497 276.348 29.502 324.5C77.6536 372.652 122.316 409.793 149.063 445.765C162.468 463.793 172.208 478.972 177.706 490.331C180.471 496.046 181.982 500.431 182.49 503.532Z" fill="url(#paint5_linear_1402_897)"/>
</g>
<defs>
<filter id="filter0_f_1402_897" x="-314.001" y="-9.16797" width="674" height="674" filterUnits="userSpaceOnUse" color-interpolation-filters="sRGB">
<feFlood flood-opacity="0" result="BackgroundImageFix"/>
<feBlend mode="normal" in="SourceGraphic" in2="BackgroundImageFix" result="shape"/>
<feGaussianBlur stdDeviation="6" result="effect1_foregroundBlur_1402_897"/>
</filter>
<linearGradient id="paint0_linear_1402_897" x1="12.4251" y1="317.26" x2="480.999" y2="788.332" gradientUnits="userSpaceOnUse">
<stop offset="0.5" stop-color="#FF8633"/>
<stop offset="1" stop-color="#FFF2E8"/>
</linearGradient>
<linearGradient id="paint1_linear_1402_897" x1="-185.68" y1="123.684" x2="46.5891" y2="352.044" gradientUnits="userSpaceOnUse">
<stop stop-color="white"/>
<stop offset="1" stop-color="white" stop-opacity="0"/>
</linearGradient>
<linearGradient id="paint2_linear_1402_897" x1="-153.036" y1="151.799" x2="79.499" y2="386.832" gradientUnits="userSpaceOnUse">
<stop stop-color="#BA8C27"/>
<stop offset="1" stop-color="#FFA366"/>
</linearGradient>
<linearGradient id="paint3_linear_1402_897" x1="12.4261" y1="336.4" x2="481" y2="-134.672" gradientUnits="userSpaceOnUse">
<stop offset="0.5" stop-color="#F6CC7C"/>
<stop offset="1" stop-color="#FFF2E8"/>
</linearGradient>
<linearGradient id="paint4_linear_1402_897" x1="-185.679" y1="529.976" x2="46.5901" y2="301.616" gradientUnits="userSpaceOnUse">
<stop stop-color="white"/>
<stop offset="1" stop-color="white" stop-opacity="0"/>
</linearGradient>
<linearGradient id="paint5_linear_1402_897" x1="-153.035" y1="501.861" x2="79.5" y2="266.828" gradientUnits="userSpaceOnUse">
<stop stop-color="#6C916F"/>
<stop offset="1" stop-color="#F6CC7C"/>
</linearGradient>
<clipPath id="clip0_1402_897">
<rect width="650" height="650" fill="white" transform="translate(-302.001 2.83203)"/>
</clipPath>
<clipPath id="clip1_1402_897">
<rect width="650" height="650" fill="white" transform="matrix(1 0 0 -1 -302 650.828)"/>
</clipPath>
</defs>
</svg>
