<svg width="97" height="33" viewBox="0 0 97 33" fill="none" xmlns="http://www.w3.org/2000/svg">
<rect y="0.314453" width="97" height="32" rx="16" fill="url(#paint0_linear_1155_3858)"/>
<rect x="0.5" y="0.814453" width="96" height="31" rx="15.5" stroke="white" stroke-opacity="0.1"/>
<path d="M19.93 20.3845C19.2833 20.3845 18.6933 20.2345 18.16 19.9345C17.6267 19.6278 17.2033 19.2045 16.89 18.6645C16.5833 18.1178 16.43 17.5045 16.43 16.8245C16.43 16.1445 16.5833 15.5345 16.89 14.9945C17.2033 14.4478 17.6267 14.0245 18.16 13.7245C18.6933 13.4178 19.2833 13.2645 19.93 13.2645C20.5833 13.2645 21.1767 13.4178 21.71 13.7245C22.2433 14.0245 22.6633 14.4445 22.97 14.9845C23.2767 15.5245 23.43 16.1378 23.43 16.8245C23.43 17.5111 23.2767 18.1245 22.97 18.6645C22.6633 19.2045 22.2433 19.6278 21.71 19.9345C21.1767 20.2345 20.5833 20.3845 19.93 20.3845ZM19.93 19.5945C20.4167 19.5945 20.8533 19.4811 21.24 19.2545C21.6333 19.0278 21.94 18.7045 22.16 18.2845C22.3867 17.8645 22.5 17.3778 22.5 16.8245C22.5 16.2645 22.3867 15.7778 22.16 15.3645C21.94 14.9445 21.6367 14.6211 21.25 14.3945C20.8633 14.1678 20.4233 14.0545 19.93 14.0545C19.4367 14.0545 18.9967 14.1678 18.61 14.3945C18.2233 14.6211 17.9167 14.9445 17.69 15.3645C17.47 15.7778 17.36 16.2645 17.36 16.8245C17.36 17.3778 17.47 17.8645 17.69 18.2845C17.9167 18.7045 18.2233 19.0278 18.61 19.2545C19.0033 19.4811 19.4433 19.5945 19.93 19.5945ZM29.4913 14.8345V20.3145H28.5813V19.5045C28.408 19.7845 28.1647 20.0045 27.8513 20.1645C27.5447 20.3178 27.2047 20.3945 26.8313 20.3945C26.4047 20.3945 26.0213 20.3078 25.6813 20.1345C25.3413 19.9545 25.0713 19.6878 24.8713 19.3345C24.678 18.9811 24.5813 18.5511 24.5813 18.0445V14.8345H25.4813V17.9245C25.4813 18.4645 25.618 18.8811 25.8913 19.1745C26.1647 19.4611 26.538 19.6045 27.0113 19.6045C27.498 19.6045 27.8813 19.4545 28.1613 19.1545C28.4413 18.8545 28.5813 18.4178 28.5813 17.8445V14.8345H29.4913ZM31.9378 15.7245C32.0978 15.4111 32.3245 15.1678 32.6178 14.9945C32.9178 14.8211 33.2811 14.7345 33.7078 14.7345V15.6745H33.4678C32.4478 15.6745 31.9378 16.2278 31.9378 17.3345V20.3145H31.0278V14.8345H31.9378V15.7245ZM42.0843 15.3845C42.0843 15.9645 41.8843 16.4478 41.4843 16.8345C41.091 17.2145 40.4876 17.4045 39.6743 17.4045H38.3343V20.3145H37.4243V13.3445H39.6743C40.461 13.3445 41.0576 13.5345 41.4643 13.9145C41.8776 14.2945 42.0843 14.7845 42.0843 15.3845ZM39.6743 16.6545C40.181 16.6545 40.5543 16.5445 40.7943 16.3245C41.0343 16.1045 41.1543 15.7911 41.1543 15.3845C41.1543 14.5245 40.661 14.0945 39.6743 14.0945H38.3343V16.6545H39.6743ZM44.1253 15.7245C44.2853 15.4111 44.512 15.1678 44.8053 14.9945C45.1053 14.8211 45.4686 14.7345 45.8953 14.7345V15.6745H45.6553C44.6353 15.6745 44.1253 16.2278 44.1253 17.3345V20.3145H43.2153V14.8345H44.1253V15.7245ZM49.3358 20.4045C48.8224 20.4045 48.3558 20.2878 47.9358 20.0545C47.5224 19.8211 47.1958 19.4911 46.9558 19.0645C46.7224 18.6311 46.6058 18.1311 46.6058 17.5645C46.6058 17.0045 46.7258 16.5111 46.9658 16.0845C47.2124 15.6511 47.5458 15.3211 47.9658 15.0945C48.3858 14.8611 48.8558 14.7445 49.3758 14.7445C49.8958 14.7445 50.3658 14.8611 50.7858 15.0945C51.2058 15.3211 51.5358 15.6478 51.7758 16.0745C52.0224 16.5011 52.1458 16.9978 52.1458 17.5645C52.1458 18.1311 52.0191 18.6311 51.7658 19.0645C51.5191 19.4911 51.1824 19.8211 50.7558 20.0545C50.3291 20.2878 49.8558 20.4045 49.3358 20.4045ZM49.3358 19.6045C49.6624 19.6045 49.9691 19.5278 50.2558 19.3745C50.5424 19.2211 50.7724 18.9911 50.9458 18.6845C51.1258 18.3778 51.2158 18.0045 51.2158 17.5645C51.2158 17.1245 51.1291 16.7511 50.9558 16.4445C50.7824 16.1378 50.5558 15.9111 50.2758 15.7645C49.9958 15.6111 49.6924 15.5345 49.3658 15.5345C49.0324 15.5345 48.7258 15.6111 48.4458 15.7645C48.1724 15.9111 47.9524 16.1378 47.7858 16.4445C47.6191 16.7511 47.5358 17.1245 47.5358 17.5645C47.5358 18.0111 47.6158 18.3878 47.7758 18.6945C47.9424 19.0011 48.1624 19.2311 48.4358 19.3845C48.7091 19.5311 49.0091 19.6045 49.3358 19.6045ZM53.0023 17.5545C53.0023 16.9945 53.1156 16.5045 53.3423 16.0845C53.5689 15.6578 53.8789 15.3278 54.2723 15.0945C54.6723 14.8611 55.1189 14.7445 55.6123 14.7445C56.0389 14.7445 56.4356 14.8445 56.8023 15.0445C57.1689 15.2378 57.4489 15.4945 57.6423 15.8145V12.9145H58.5623V20.3145H57.6423V19.2845C57.4623 19.6111 57.1956 19.8811 56.8423 20.0945C56.4889 20.3011 56.0756 20.4045 55.6023 20.4045C55.1156 20.4045 54.6723 20.2845 54.2723 20.0445C53.8789 19.8045 53.5689 19.4678 53.3423 19.0345C53.1156 18.6011 53.0023 18.1078 53.0023 17.5545ZM57.6423 17.5645C57.6423 17.1511 57.5589 16.7911 57.3923 16.4845C57.2256 16.1778 56.9989 15.9445 56.7123 15.7845C56.4323 15.6178 56.1223 15.5345 55.7823 15.5345C55.4423 15.5345 55.1323 15.6145 54.8523 15.7745C54.5723 15.9345 54.3489 16.1678 54.1823 16.4745C54.0156 16.7811 53.9323 17.1411 53.9323 17.5545C53.9323 17.9745 54.0156 18.3411 54.1823 18.6545C54.3489 18.9611 54.5723 19.1978 54.8523 19.3645C55.1323 19.5245 55.4423 19.6045 55.7823 19.6045C56.1223 19.6045 56.4323 19.5245 56.7123 19.3645C56.9989 19.1978 57.2256 18.9611 57.3923 18.6545C57.5589 18.3411 57.6423 17.9778 57.6423 17.5645ZM64.9601 14.8345V20.3145H64.0501V19.5045C63.8767 19.7845 63.6334 20.0045 63.3201 20.1645C63.0134 20.3178 62.6734 20.3945 62.3001 20.3945C61.8734 20.3945 61.4901 20.3078 61.1501 20.1345C60.8101 19.9545 60.5401 19.6878 60.3401 19.3345C60.1467 18.9811 60.0501 18.5511 60.0501 18.0445V14.8345H60.9501V17.9245C60.9501 18.4645 61.0867 18.8811 61.3601 19.1745C61.6334 19.4611 62.0067 19.6045 62.4801 19.6045C62.9667 19.6045 63.3501 19.4545 63.6301 19.1545C63.9101 18.8545 64.0501 18.4178 64.0501 17.8445V14.8345H64.9601ZM66.1566 17.5645C66.1566 16.9978 66.2699 16.5045 66.4966 16.0845C66.7232 15.6578 67.0366 15.3278 67.4366 15.0945C67.8432 14.8611 68.3066 14.7445 68.8266 14.7445C69.4999 14.7445 70.0532 14.9078 70.4866 15.2345C70.9266 15.5611 71.2166 16.0145 71.3566 16.5945H70.3766C70.2832 16.2611 70.0999 15.9978 69.8266 15.8045C69.5599 15.6111 69.2266 15.5145 68.8266 15.5145C68.3066 15.5145 67.8866 15.6945 67.5666 16.0545C67.2466 16.4078 67.0866 16.9111 67.0866 17.5645C67.0866 18.2245 67.2466 18.7345 67.5666 19.0945C67.8866 19.4545 68.3066 19.6345 68.8266 19.6345C69.2266 19.6345 69.5599 19.5411 69.8266 19.3545C70.0932 19.1678 70.2766 18.9011 70.3766 18.5545H71.3566C71.2099 19.1145 70.9166 19.5645 70.4766 19.9045C70.0366 20.2378 69.4866 20.4045 68.8266 20.4045C68.3066 20.4045 67.8432 20.2878 67.4366 20.0545C67.0366 19.8211 66.7232 19.4911 66.4966 19.0645C66.2699 18.6378 66.1566 18.1378 66.1566 17.5645ZM73.6808 15.5845V18.8145C73.6808 19.0811 73.7374 19.2711 73.8508 19.3845C73.9641 19.4911 74.1608 19.5445 74.4408 19.5445H75.1108V20.3145H74.2908C73.7841 20.3145 73.4041 20.1978 73.1508 19.9645C72.8974 19.7311 72.7708 19.3478 72.7708 18.8145V15.5845H72.0608V14.8345H72.7708V13.4545H73.6808V14.8345H75.1108V15.5845H73.6808ZM78.1534 20.4045C77.7334 20.4045 77.3567 20.3345 77.0234 20.1945C76.69 20.0478 76.4267 19.8478 76.2334 19.5945C76.04 19.3345 75.9334 19.0378 75.9134 18.7045H76.8534C76.88 18.9778 77.0067 19.2011 77.2334 19.3745C77.4667 19.5478 77.77 19.6345 78.1434 19.6345C78.49 19.6345 78.7634 19.5578 78.9634 19.4045C79.1634 19.2511 79.2634 19.0578 79.2634 18.8245C79.2634 18.5845 79.1567 18.4078 78.9434 18.2945C78.73 18.1745 78.4 18.0578 77.9534 17.9445C77.5467 17.8378 77.2134 17.7311 76.9534 17.6245C76.7 17.5111 76.48 17.3478 76.2934 17.1345C76.1134 16.9145 76.0234 16.6278 76.0234 16.2745C76.0234 15.9945 76.1067 15.7378 76.2734 15.5045C76.44 15.2711 76.6767 15.0878 76.9834 14.9545C77.29 14.8145 77.64 14.7445 78.0334 14.7445C78.64 14.7445 79.13 14.8978 79.5034 15.2045C79.8767 15.5111 80.0767 15.9311 80.1034 16.4645H79.1934C79.1734 16.1778 79.0567 15.9478 78.8434 15.7745C78.6367 15.6011 78.3567 15.5145 78.0034 15.5145C77.6767 15.5145 77.4167 15.5845 77.2234 15.7245C77.03 15.8645 76.9334 16.0478 76.9334 16.2745C76.9334 16.4545 76.99 16.6045 77.1034 16.7245C77.2234 16.8378 77.37 16.9311 77.5434 17.0045C77.7234 17.0711 77.97 17.1478 78.2834 17.2345C78.6767 17.3411 78.9967 17.4478 79.2434 17.5545C79.49 17.6545 79.7 17.8078 79.8734 18.0145C80.0534 18.2211 80.1467 18.4911 80.1534 18.8245C80.1534 19.1245 80.07 19.3945 79.9034 19.6345C79.7367 19.8745 79.5 20.0645 79.1934 20.2045C78.8934 20.3378 78.5467 20.4045 78.1534 20.4045Z" fill="white"/>
<defs>
<linearGradient id="paint0_linear_1155_3858" x1="48.5" y1="31.8281" x2="48.5" y2="-0.171875" gradientUnits="userSpaceOnUse">
<stop stop-color="#4C6D4F"/>
<stop offset="1" stop-color="#6C916F"/>
</linearGradient>
</defs>
</svg>
