<svg width="191" height="92" viewBox="0 0 191 92" fill="none" xmlns="http://www.w3.org/2000/svg">
<g filter="url(#filter0_di_1300_1488)">
<rect x="28" y="10" width="135" height="44" rx="22" fill="url(#paint0_linear_1300_1488)" shape-rendering="crispEdges"/>
<rect x="28.5" y="10.5" width="134" height="43" rx="21.5" stroke="url(#paint1_linear_1300_1488)" shape-rendering="crispEdges"/>
<rect x="28.5" y="10.5" width="134" height="43" rx="21.5" stroke="white" stroke-opacity="0.2" shape-rendering="crispEdges"/>
<rect x="28.5" y="10.5" width="134" height="43" rx="21.5" stroke="url(#paint2_linear_1300_1488)" stroke-opacity="0.3" shape-rendering="crispEdges"/>
<path d="M67.5938 30.1293H66.0427C65.983 29.7978 65.872 29.5062 65.7096 29.2543C65.5472 29.0024 65.3483 28.7886 65.113 28.6129C64.8777 28.4373 64.6142 28.3047 64.3225 28.2152C64.0342 28.1257 63.7276 28.081 63.4028 28.081C62.8161 28.081 62.2908 28.2285 61.8268 28.5234C61.3661 28.8184 61.0015 29.2509 60.733 29.821C60.4679 30.3911 60.3353 31.0871 60.3353 31.9091C60.3353 32.7377 60.4679 33.437 60.733 34.0071C61.0015 34.5772 61.3677 35.008 61.8318 35.2997C62.2958 35.5914 62.8178 35.7372 63.3978 35.7372C63.7193 35.7372 64.0242 35.6941 64.3126 35.608C64.6043 35.5185 64.8677 35.3875 65.1031 35.2152C65.3384 35.0429 65.5373 34.8324 65.6997 34.5838C65.8654 34.3319 65.9797 34.0436 66.0427 33.7188L67.5938 33.7237C67.511 34.2242 67.3502 34.6849 67.1116 35.1058C66.8763 35.5234 66.573 35.8847 66.2018 36.1896C65.8339 36.4912 65.413 36.7249 64.939 36.8906C64.4651 37.0563 63.948 37.1392 63.3879 37.1392C62.5062 37.1392 61.7207 36.9304 61.0313 36.5128C60.3419 36.0919 59.7984 35.4903 59.4007 34.7081C59.0062 33.9259 58.809 32.9929 58.809 31.9091C58.809 30.822 59.0079 29.889 59.4056 29.1101C59.8034 28.3279 60.3469 27.728 61.0363 27.3104C61.7257 26.8894 62.5096 26.679 63.3879 26.679C63.9281 26.679 64.4319 26.7569 64.8992 26.9126C65.3699 27.0651 65.7925 27.2905 66.167 27.5888C66.5415 27.8838 66.8514 28.245 67.0967 28.6726C67.3419 29.0968 67.5077 29.5824 67.5938 30.1293ZM72.5294 37.1541C71.8135 37.1541 71.1887 36.9901 70.6551 36.6619C70.1215 36.3338 69.7072 35.8748 69.4122 35.2848C69.1172 34.6948 68.9697 34.0054 68.9697 33.2166C68.9697 32.4245 69.1172 31.7318 69.4122 31.1385C69.7072 30.5452 70.1215 30.0845 70.6551 29.7564C71.1887 29.4283 71.8135 29.2642 72.5294 29.2642C73.2453 29.2642 73.8701 29.4283 74.4037 29.7564C74.9373 30.0845 75.3516 30.5452 75.6466 31.1385C75.9416 31.7318 76.089 32.4245 76.089 33.2166C76.089 34.0054 75.9416 34.6948 75.6466 35.2848C75.3516 35.8748 74.9373 36.3338 74.4037 36.6619C73.8701 36.9901 73.2453 37.1541 72.5294 37.1541ZM72.5344 35.9062C72.9984 35.9062 73.3828 35.7836 73.6878 35.5384C73.9927 35.2931 74.2181 34.9666 74.3639 34.5589C74.5131 34.1513 74.5876 33.7022 74.5876 33.2116C74.5876 32.7244 74.5131 32.277 74.3639 31.8693C74.2181 31.4583 73.9927 31.1286 73.6878 30.88C73.3828 30.6314 72.9984 30.5071 72.5344 30.5071C72.067 30.5071 71.6792 30.6314 71.371 30.88C71.0661 31.1286 70.839 31.4583 70.6899 31.8693C70.5441 32.277 70.4711 32.7244 70.4711 33.2116C70.4711 33.7022 70.5441 34.1513 70.6899 34.5589C70.839 34.9666 71.0661 35.2931 71.371 35.5384C71.6792 35.7836 72.067 35.9062 72.5344 35.9062ZM79.2348 32.4659V37H77.7483V29.3636H79.1752V30.6065H79.2696C79.4453 30.2022 79.7204 29.8774 80.0949 29.6321C80.4727 29.3868 80.9484 29.2642 81.5218 29.2642C82.0421 29.2642 82.4978 29.3736 82.8889 29.5923C83.28 29.8078 83.5833 30.1293 83.7987 30.5568C84.0142 30.9844 84.1219 31.513 84.1219 32.1428V37H82.6354V32.3217C82.6354 31.7682 82.4912 31.3357 82.2029 31.0241C81.9145 30.7093 81.5184 30.5518 81.0146 30.5518C80.67 30.5518 80.3634 30.6264 80.0949 30.7756C79.8298 30.9247 79.6193 31.1435 79.4635 31.4318C79.3111 31.7169 79.2348 32.0616 79.2348 32.4659ZM89.6801 29.3636V30.5568H85.509V29.3636H89.6801ZM86.6276 27.5341H88.1141V34.7578C88.1141 35.0462 88.1572 35.2633 88.2433 35.4091C88.3295 35.5516 88.4405 35.6494 88.5764 35.7024C88.7156 35.7521 88.8664 35.777 89.0289 35.777C89.1482 35.777 89.2526 35.7687 89.3421 35.7521C89.4316 35.7356 89.5012 35.7223 89.5509 35.7124L89.8193 36.9403C89.7332 36.9735 89.6105 37.0066 89.4514 37.0398C89.2923 37.0762 89.0935 37.0961 88.8548 37.0994C88.4637 37.1061 88.0992 37.0365 87.7611 36.8906C87.423 36.7448 87.1496 36.5194 86.9408 36.2145C86.732 35.9096 86.6276 35.5268 86.6276 35.0661V27.5341ZM93.5468 37.169C93.0629 37.169 92.6254 37.0795 92.2343 36.9006C91.8432 36.7183 91.5333 36.4548 91.3046 36.1101C91.0792 35.7654 90.9665 35.3428 90.9665 34.8423C90.9665 34.4115 91.0494 34.0568 91.2151 33.7784C91.3808 33.5 91.6046 33.2796 91.8863 33.1172C92.168 32.9548 92.4829 32.8321 92.8309 32.7493C93.1789 32.6664 93.5335 32.6035 93.8948 32.5604C94.3522 32.5073 94.7234 32.4643 95.0084 32.4311C95.2935 32.3946 95.5006 32.3366 95.6299 32.2571C95.7591 32.1776 95.8238 32.0483 95.8238 31.8693V31.8345C95.8238 31.4003 95.7011 31.0639 95.4559 30.8253C95.2139 30.5866 94.8527 30.4673 94.3721 30.4673C93.8716 30.4673 93.4772 30.5784 93.1888 30.8004C92.9038 31.0192 92.7066 31.2628 92.5972 31.5312L91.2002 31.2131C91.3659 30.7491 91.6079 30.3745 91.926 30.0895C92.2475 29.8011 92.6171 29.5923 93.0347 29.4631C93.4523 29.3305 93.8915 29.2642 94.3522 29.2642C94.6571 29.2642 94.9803 29.3007 95.3216 29.3736C95.6663 29.4432 95.9878 29.5724 96.2861 29.7614C96.5877 29.9503 96.8347 30.2204 97.0269 30.5717C97.2191 30.9197 97.3153 31.3722 97.3153 31.929V37H95.8635V35.956H95.8039C95.7078 36.1482 95.5636 36.3371 95.3714 36.5227C95.1791 36.7083 94.9322 36.8625 94.6306 36.9851C94.329 37.1077 93.9677 37.169 93.5468 37.169ZM93.8699 35.9759C94.2809 35.9759 94.6323 35.8946 94.9239 35.7322C95.2189 35.5698 95.4426 35.3577 95.5951 35.0959C95.7509 34.8307 95.8287 34.5473 95.8287 34.2457V33.2614C95.7757 33.3144 95.673 33.3641 95.5205 33.4105C95.3714 33.4536 95.2007 33.4917 95.0084 33.5249C94.8162 33.5547 94.6289 33.5829 94.4466 33.6094C94.2644 33.6326 94.1119 33.6525 93.9893 33.669C93.7009 33.7055 93.4374 33.7668 93.1988 33.853C92.9635 33.9392 92.7745 34.0634 92.632 34.2259C92.4928 34.3849 92.4232 34.5971 92.4232 34.8622C92.4232 35.2301 92.5591 35.5085 92.8309 35.6974C93.1027 35.883 93.449 35.9759 93.8699 35.9759ZM102.512 37.1541C101.773 37.1541 101.136 36.9867 100.603 36.652C100.072 36.3139 99.6647 35.8482 99.3797 35.255C99.0947 34.6617 98.9521 33.9822 98.9521 33.2166C98.9521 32.4411 99.098 31.7566 99.3896 31.1634C99.6813 30.5668 100.092 30.1011 100.623 29.7663C101.153 29.4316 101.778 29.2642 102.497 29.2642C103.077 29.2642 103.594 29.3719 104.048 29.5874C104.502 29.7995 104.868 30.0978 105.147 30.4822C105.428 30.8667 105.596 31.3158 105.649 31.8295H104.202C104.123 31.4716 103.94 31.1634 103.655 30.9048C103.374 30.6463 102.996 30.517 102.522 30.517C102.107 30.517 101.745 30.6264 101.433 30.8452C101.125 31.0606 100.884 31.3688 100.712 31.7699C100.54 32.1676 100.454 32.6383 100.454 33.1818C100.454 33.7386 100.538 34.2192 100.707 34.6236C100.876 35.0279 101.115 35.3411 101.423 35.5632C101.735 35.7853 102.101 35.8963 102.522 35.8963C102.803 35.8963 103.059 35.8449 103.287 35.7422C103.519 35.6361 103.713 35.4853 103.869 35.2898C104.028 35.0942 104.139 34.8589 104.202 34.5838H105.649C105.596 35.0777 105.435 35.5185 105.167 35.9062C104.898 36.294 104.539 36.599 104.088 36.821C103.64 37.0431 103.115 37.1541 102.512 37.1541ZM110.803 29.3636V30.5568H106.632V29.3636H110.803ZM107.751 27.5341H109.237V34.7578C109.237 35.0462 109.28 35.2633 109.366 35.4091C109.453 35.5516 109.564 35.6494 109.699 35.7024C109.839 35.7521 109.989 35.777 110.152 35.777C110.271 35.777 110.376 35.7687 110.465 35.7521C110.555 35.7356 110.624 35.7223 110.674 35.7124L110.942 36.9403C110.856 36.9735 110.734 37.0066 110.574 37.0398C110.415 37.0762 110.217 37.0961 109.978 37.0994C109.587 37.1061 109.222 37.0365 108.884 36.8906C108.546 36.7448 108.273 36.5194 108.064 36.2145C107.855 35.9096 107.751 35.5268 107.751 35.0661V27.5341ZM122.82 26.8182H124.361V33.5149C124.361 34.2275 124.193 34.8589 123.859 35.4091C123.524 35.956 123.053 36.3868 122.447 36.7017C121.84 37.0133 121.129 37.169 120.314 37.169C119.502 37.169 118.793 37.0133 118.186 36.7017C117.579 36.3868 117.109 35.956 116.774 35.4091C116.439 34.8589 116.272 34.2275 116.272 33.5149V26.8182H117.808V33.3906C117.808 33.8513 117.909 34.2607 118.111 34.6186C118.317 34.9766 118.607 35.2583 118.981 35.4638C119.356 35.666 119.8 35.767 120.314 35.767C120.831 35.767 121.277 35.666 121.651 35.4638C122.029 35.2583 122.317 34.9766 122.516 34.6186C122.718 34.2607 122.82 33.8513 122.82 33.3906V26.8182ZM132.197 31.228L130.85 31.4666C130.794 31.2943 130.704 31.1302 130.581 30.9744C130.462 30.8187 130.3 30.6911 130.094 30.5916C129.889 30.4922 129.632 30.4425 129.324 30.4425C128.903 30.4425 128.551 30.5369 128.27 30.7259C127.988 30.9115 127.847 31.1518 127.847 31.4467C127.847 31.7019 127.941 31.9074 128.13 32.0632C128.319 32.219 128.624 32.3466 129.045 32.446L130.258 32.7244C130.961 32.8868 131.485 33.1371 131.829 33.4751C132.174 33.8132 132.346 34.2524 132.346 34.7926C132.346 35.25 132.214 35.6577 131.949 36.0156C131.687 36.3703 131.321 36.6487 130.85 36.8509C130.383 37.053 129.841 37.1541 129.224 37.1541C128.369 37.1541 127.671 36.9718 127.131 36.6072C126.591 36.2393 126.259 35.7173 126.137 35.0412L127.574 34.8224C127.663 35.197 127.847 35.4804 128.125 35.6726C128.404 35.8615 128.767 35.956 129.214 35.956C129.701 35.956 130.091 35.8549 130.383 35.6527C130.674 35.4472 130.82 35.197 130.82 34.902C130.82 34.6634 130.731 34.4628 130.552 34.3004C130.376 34.138 130.106 34.0154 129.741 33.9325L128.449 33.6491C127.736 33.4867 127.209 33.2282 126.868 32.8736C126.53 32.5189 126.361 32.0698 126.361 31.5263C126.361 31.0755 126.486 30.6811 126.738 30.343C126.99 30.005 127.338 29.7415 127.782 29.5526C128.227 29.3603 128.735 29.2642 129.309 29.2642C130.134 29.2642 130.784 29.4432 131.258 29.8011C131.732 30.1558 132.045 30.6314 132.197 31.228Z" fill="white"/>
</g>
<defs>
<filter id="filter0_di_1300_1488" x="0.4" y="-10" width="190.2" height="101.6" filterUnits="userSpaceOnUse" color-interpolation-filters="sRGB">
<feFlood flood-opacity="0" result="BackgroundImageFix"/>
<feColorMatrix in="SourceAlpha" type="matrix" values="0 0 0 0 0 0 0 0 0 0 0 0 0 0 0 0 0 0 127 0" result="hardAlpha"/>
<feOffset dy="10"/>
<feGaussianBlur stdDeviation="13.8"/>
<feComposite in2="hardAlpha" operator="out"/>
<feColorMatrix type="matrix" values="0 0 0 0 0 0 0 0 0 0 0 0 0 0 0 0 0 0 0.22 0"/>
<feBlend mode="normal" in2="BackgroundImageFix" result="effect1_dropShadow_1300_1488"/>
<feBlend mode="normal" in="SourceGraphic" in2="effect1_dropShadow_1300_1488" result="shape"/>
<feColorMatrix in="SourceAlpha" type="matrix" values="0 0 0 0 0 0 0 0 0 0 0 0 0 0 0 0 0 0 127 0" result="hardAlpha"/>
<feOffset dy="10"/>
<feGaussianBlur stdDeviation="15"/>
<feComposite in2="hardAlpha" operator="arithmetic" k2="-1" k3="1"/>
<feColorMatrix type="matrix" values="0 0 0 0 1 0 0 0 0 0.52549 0 0 0 0 0.2 0 0 0 1 0"/>
<feBlend mode="normal" in2="shape" result="effect2_innerShadow_1300_1488"/>
</filter>
<linearGradient id="paint0_linear_1300_1488" x1="95.5" y1="-8" x2="95.5" y2="68.5" gradientUnits="userSpaceOnUse">
<stop stop-color="#FF6700" stop-opacity="0"/>
<stop offset="1" stop-color="#FF6700"/>
</linearGradient>
<linearGradient id="paint1_linear_1300_1488" x1="95.5" y1="10" x2="95.5" y2="54" gradientUnits="userSpaceOnUse">
<stop offset="0.171875" stop-color="#E1A940"/>
<stop offset="1" stop-color="#E1A940" stop-opacity="0.77"/>
</linearGradient>
<linearGradient id="paint2_linear_1300_1488" x1="95.5" y1="7.9375" x2="95.5" y2="54" gradientUnits="userSpaceOnUse">
<stop stop-color="#FF6700" stop-opacity="0"/>
<stop offset="1" stop-color="#FF8633" stop-opacity="0.7"/>
</linearGradient>
</defs>
</svg>
