<svg xmlns="http://www.w3.org/2000/svg" width="299" height="362" fill="none" viewBox="0 0 299 362"><g stroke-width=".47" filter="url(#a)" opacity=".7" style="mix-blend-mode:plus-lighter"><path stroke="url(#b)" d="M40.03 193.325c26.719 66.276 44.596 148.743 126.876 135.861 181.989-28.495 140.73-198.658 88.04-178.433-97.926 37.591-57.129-3.623-144.603-60.919S6.632 110.48 40.03 193.325Z"/><path stroke="url(#c)" d="M45.4 192.332c25.106 65.224 41.318 146.145 121.978 134.815 178.409-25.061 140.684-192.101 88.847-173.134-96.343 35.251-55.812-4.424-140.471-61.801s-101.738 18.591-70.355 100.12Z"/><path stroke="url(#d)" d="M50.671 191.421c23.535 64.137 38.134 143.48 117.148 133.648 174.766-21.747 140.467-185.595 89.507-167.855-94.71 32.971-54.483-5.183-136.346-62.569s-99.727 16.605-70.309 96.776Z"/><path stroke="url(#e)" d="M55.839 190.593c22.004 63.017 35.044 140.752 112.384 132.364 171.065-18.555 140.08-179.145 90.024-162.599-93.03 30.751-53.144-5.903-132.233-63.223s-97.68 14.686-70.175 93.458Z"/><path stroke="url(#f)" d="M60.9 189.84c20.515 61.866 32.05 137.963 107.691 130.963 167.307-15.484 139.526-172.754 90.399-157.369-91.304 28.592-51.798-6.581-128.135-63.763s-95.597 12.836-69.954 90.169Z"/><path stroke="url(#g)" d="M65.86 189.162c19.067 60.683 29.153 135.116 103.07 129.448 163.496-12.536 138.806-166.426 90.632-152.169-89.535 26.496-50.443-7.218-124.053-64.189s-93.48 11.055-69.648 86.91Z"/><path stroke="url(#h)" d="M70.712 188.559c17.66 59.471 26.352 132.213 98.524 127.821 159.633-9.712 137.921-160.164 90.722-147.002-87.721 24.464-49.081-7.814-119.99-64.503s-91.332 9.345-69.256 83.684Z"/><path stroke="url(#i)" d="M75.454 188.024c16.298 58.23 23.652 129.255 94.056 126.084 155.725-7.015 136.876-153.974 90.675-141.871-85.867 22.494-47.714-8.369-115.949-64.706C76 51.195 55.082 115.236 75.454 188.024Z"/><path stroke="url(#j)" d="M80.087 187.556c14.98 56.962 21.05 126.247 89.668 124.239 151.771-4.442 135.669-147.857 90.487-136.779-83.973 20.59-46.34-8.882-111.931-64.796s-86.947 6.135-68.224 77.336Z"/><path stroke="url(#k)" d="M84.61 187.154c13.703 55.666 18.549 123.188 85.36 122.286 147.776-1.995 134.306-141.816 90.164-131.727-82.041 18.75-44.964-9.356-107.941-64.779s-84.714 4.638-67.584 74.22Z"/><path stroke="url(#l)" d="M89.017 186.813c12.474 54.345 16.151 120.084 81.139 120.231 143.743.324 132.786-135.857 89.703-126.723-80.072 16.978-43.584-9.787-103.98-64.65s-82.455 3.212-66.862 71.142Z"/><path stroke="url(#m)" d="M93.317 186.532c11.289 52.998 13.856 116.935 77.004 118.073 139.674 2.516 131.113-129.982 89.108-121.765-78.069 15.271-42.202-10.178-100.05-64.415-57.848-54.236-80.173 1.858-66.062 68.107Z"/><path stroke="url(#n)" d="M97.499 186.308c10.149 51.629 11.663 113.745 72.957 115.816 135.573 4.58 129.289-124.194 88.38-116.859-76.032 13.632-40.819-10.528-96.155-64.071s-77.87.577-65.182 65.114Z"/><path stroke="url(#o)" d="M101.563 186.136c9.056 50.237 9.575 110.515 69.001 113.461 131.443 6.515 127.316-118.497 87.52-112.007-73.963 12.062-39.435-10.836-92.295-63.621s-75.546-.63-64.226 62.167Z"/><path stroke="url(#p)" d="M105.514 186.017c8.01 48.825 7.591 107.249 65.139 111.012 127.286 8.321 125.196-112.894 86.529-107.212-71.864 10.56-38.052-11.104-88.474-63.066s-73.205-1.765-63.194 59.266Z"/><path stroke="url(#q)" d="M109.345 185.943c7.009 47.392 5.712 103.949 61.37 108.469 123.106 9.998 122.932-107.387 85.41-102.477-69.737 9.128-36.671-11.33-84.695-62.407s-70.847-2.825-62.085 56.415Z"/><path stroke="url(#r)" d="M113.056 185.917c6.057 45.939 3.941 100.616 57.699 105.836 118.906 11.546 120.527-101.981 84.164-97.804-67.583 7.764-35.293-11.516-80.959-61.645-45.665-50.128-68.474-3.811-60.904 53.613Z"/><path stroke="url(#s)" d="M116.653 185.932c5.151 44.469 2.275 97.255 54.126 103.115 114.689 12.963 117.983-96.679 82.792-93.197-65.404 6.471-33.917-11.662-77.268-60.781s-66.089-4.724-59.65 50.863Z"/><path stroke="url(#t)" d="M120.128 185.99c4.293 42.983.715 93.867 50.654 100.31 110.457 14.251 115.303-91.483 81.297-88.658-63.202 5.249-32.547-11.768-73.626-59.817-41.078-48.05-63.692-5.563-58.325 48.165Z"/><path stroke="url(#u)" d="M123.484 186.079c3.484 41.481-.736 90.455 47.284 97.421 106.215 15.408 112.49-86.396 79.68-84.191-60.977 4.098-31.182-11.832-70.033-58.753s-61.286-6.327-56.931 45.523Z"/><path stroke="url(#v)" d="M126.713 186.206c2.723 39.964-2.08 87.021 44.019 94.452 101.963 16.435 109.545-81.422 77.943-79.797-58.734 3.018-29.823-11.858-66.494-57.593s-58.872-7.017-55.468 42.938Z"/><path stroke="url(#w)" d="M129.828 186.362c2.011 38.434-3.316 83.568 40.859 91.404 97.708 17.333 106.473-76.561 76.088-75.479-56.471 2.01-28.472-11.843-63.009-56.335s-56.452-7.632-53.938 40.41Z"/><path stroke="url(#x)" d="M132.815 186.547c1.348 36.891-4.443 80.098 37.806 88.282 93.45 18.1 103.277-71.82 74.118-71.242-54.192 1.075-27.128-11.788-59.581-54.981-32.452-43.194-54.028-8.174-52.343 37.941Z"/><path stroke="url(#y)" d="M135.683 186.757c.734 35.338-5.462 76.615 34.863 85.087 89.193 18.738 99.957-67.198 72.033-67.085-51.898.211-25.794-11.695-56.211-53.536s-51.602-8.64-50.685 35.534Z"/><path stroke="url(#z)" d="M138.426 186.989c.169 33.775-6.373 73.12 32.03 81.822 84.941 19.247 96.519-62.7 69.837-63.012-49.592-.579-24.47-11.562-52.903-51.997s-49.175-9.033-48.964 33.187Z"/><path stroke="url(#A)" d="M141.044 187.242c-.346 32.204-7.175 69.617 29.308 78.491 80.695 19.626 92.966-58.328 67.531-59.026-47.273-1.298-23.157-11.392-49.658-50.369s-46.749-9.351-47.181 30.904Z"/><path stroke="url(#B)" d="M143.542 187.51c-.812 30.625-7.868 66.108 26.7 75.094 76.46 19.877 89.3-54.083 65.117-55.129-44.944-1.943-21.854-11.182-46.477-48.652s-44.325-9.594-45.34 28.687Z"/><path stroke="url(#C)" d="M145.912 187.79c-1.228 29.04-8.453 62.594 24.207 71.636 72.238 19.999 85.524-49.97 62.598-51.324-42.608-2.515-20.565-10.934-43.364-46.848-22.798-35.913-41.906-9.764-43.441 26.536Z"/><path stroke="url(#D)" d="M148.16 188.085c-1.595 27.45-8.928 59.079 21.829 68.119 68.032 19.993 81.643-45.99 59.977-47.612-40.265-3.014-19.29-10.649-40.319-44.958s-39.494-9.86-41.487 24.451Z"/><path stroke="url(#E)" d="M150.283 188.382c-1.911 25.855-9.295 55.566 19.57 64.545 63.845 19.861 77.657-42.144 57.255-43.996-37.919-3.44-18.029-10.326-37.347-42.984-19.317-32.659-37.089-9.883-39.478 22.435Z"/><path stroke="url(#F)" d="M152.285 188.687c-2.178 24.258-9.554 52.056 17.428 60.918 59.679 19.601 73.572-38.437 54.434-40.478-35.568-3.793-16.783-9.967-34.446-40.93s-34.694-9.832-37.416 20.49Z"/><path stroke="url(#G)" d="M154.158 188.996c-2.394 22.659-9.704 48.554 15.406 57.241 55.54 19.215 69.391-34.87 51.518-37.061-33.217-4.073-15.553-9.571-31.62-38.794-16.067-29.224-32.31-9.71-35.304 18.614Z"/><path stroke="url(#H)" d="M155.91 189.302c-2.562 21.059-9.747 45.059 13.504 53.516 51.427 18.704 65.117-31.444 48.509-33.747-30.867-4.279-14.341-9.138-28.871-36.581-14.53-27.442-29.94-9.513-33.142 16.812Z"/><path stroke="url(#I)" d="M157.536 189.601c-2.679 19.461-9.683 41.578 11.723 49.747 47.346 18.068 60.753-28.163 45.409-30.537-28.519-4.413-13.145-8.671-26.199-34.291-13.054-25.621-27.584-9.246-30.933 15.081Z"/><path stroke="url(#J)" d="M159.042 189.897c-2.747 17.864-9.511 38.109 10.065 45.935 43.299 17.309 56.303-25.027 42.22-27.434-26.174-4.474-11.968-8.167-23.607-31.927s-25.244-8.906-28.678 13.426Z"/><path stroke="url(#K)" d="M160.423 190.181c-2.765 16.272-9.232 34.658 8.53 42.085 39.288 16.428 51.771-22.039 38.946-24.44-23.836-4.461-10.811-7.629-21.097-29.489-10.286-21.861-22.923-8.495-26.379 11.844Z"/><path stroke="url(#L)" d="M161.681 190.454c-2.734 14.682-8.848 31.225 7.119 38.199 35.317 15.424 47.16-19.201 35.589-21.556-21.505-4.377-9.674-7.057-18.67-26.983-8.997-19.925-20.621-8.013-24.038 10.34Z"/><path stroke="url(#M)" d="M162.816 190.711c-2.653 13.098-8.357 27.813 5.834 34.279 31.387 14.3 42.473-16.514 32.151-18.785-19.183-4.22-8.557-6.451-16.328-24.406-7.77-17.956-18.341-7.462-21.657 8.912Z"/><path stroke="url(#N)" d="M163.829 190.949c-2.523 11.522-7.761 24.427 4.673 30.33 27.504 13.057 37.715-13.979 28.637-16.127-16.872-3.991-7.463-5.812-14.072-21.765s-16.084-6.839-19.238 7.562Z"/><path stroke="url(#O)" d="M164.721 191.164c-2.345 9.952-7.062 21.066 3.639 26.353 23.667 11.695 32.888-11.6 25.047-13.586-14.574-3.691-6.392-5.14-11.905-19.058s-13.851-6.149-16.781 6.291Z"/><path stroke="url(#P)" d="M165.493 191.356c-2.116 8.392-6.257 17.735 2.731 22.353 19.882 10.215 27.998-9.376 21.386-11.162-12.289-3.32-5.343-4.436-9.826-16.29-4.482-11.853-11.645-5.39-14.291 5.099Z"/></g><defs><linearGradient id="b" x1="217.304" x2="113.954" y1="315.841" y2="46.605" gradientUnits="userSpaceOnUse"><stop stop-color="#1a6262"/><stop offset=".25" stop-color="#2a9a9a"/><stop offset=".389" stop-color="#b0ffff"/><stop offset=".591" stop-color="#f44e41"/><stop offset=".721" stop-color="#fb466d"/><stop offset=".822" stop-color="#96135e"/><stop offset=".904" stop-color="#260e29"/><stop offset="1" stop-color="#f2e8f5"/></linearGradient><linearGradient id="c" x1="216.869" x2="119.952" y1="314.874" y2="49.993" gradientUnits="userSpaceOnUse"><stop stop-color="#1a6262"/><stop offset=".25" stop-color="#2a9a9a"/><stop offset=".389" stop-color="#b0ffff"/><stop offset=".591" stop-color="#f44e41"/><stop offset=".721" stop-color="#fb466d"/><stop offset=".822" stop-color="#96135e"/><stop offset=".904" stop-color="#260e29"/><stop offset="1" stop-color="#f2e8f5"/></linearGradient><linearGradient id="d" x1="216.381" x2="125.733" y1="313.836" y2="53.445" gradientUnits="userSpaceOnUse"><stop stop-color="#1a6262"/><stop offset=".25" stop-color="#2a9a9a"/><stop offset=".389" stop-color="#b0ffff"/><stop offset=".591" stop-color="#f44e41"/><stop offset=".721" stop-color="#fb466d"/><stop offset=".822" stop-color="#96135e"/><stop offset=".904" stop-color="#260e29"/><stop offset="1" stop-color="#f2e8f5"/></linearGradient><linearGradient id="e" x1="215.837" x2="131.292" y1="312.73" y2="56.96" gradientUnits="userSpaceOnUse"><stop stop-color="#1a6262"/><stop offset=".25" stop-color="#2a9a9a"/><stop offset=".389" stop-color="#b0ffff"/><stop offset=".591" stop-color="#f44e41"/><stop offset=".721" stop-color="#fb466d"/><stop offset=".822" stop-color="#96135e"/><stop offset=".904" stop-color="#260e29"/><stop offset="1" stop-color="#f2e8f5"/></linearGradient><linearGradient id="f" x1="215.237" x2="136.627" y1="311.551" y2="60.527" gradientUnits="userSpaceOnUse"><stop stop-color="#1a6262"/><stop offset=".25" stop-color="#2a9a9a"/><stop offset=".389" stop-color="#b0ffff"/><stop offset=".591" stop-color="#f44e41"/><stop offset=".721" stop-color="#fb466d"/><stop offset=".822" stop-color="#96135e"/><stop offset=".904" stop-color="#260e29"/><stop offset="1" stop-color="#f2e8f5"/></linearGradient><linearGradient id="g" x1="214.589" x2="141.743" y1="310.299" y2="64.144" gradientUnits="userSpaceOnUse"><stop stop-color="#1a6262"/><stop offset=".25" stop-color="#2a9a9a"/><stop offset=".389" stop-color="#b0ffff"/><stop offset=".591" stop-color="#f44e41"/><stop offset=".721" stop-color="#fb466d"/><stop offset=".822" stop-color="#96135e"/><stop offset=".904" stop-color="#260e29"/><stop offset="1" stop-color="#f2e8f5"/></linearGradient><linearGradient id="h" x1="213.89" x2="146.634" y1="308.977" y2="67.809" gradientUnits="userSpaceOnUse"><stop stop-color="#1a6262"/><stop offset=".25" stop-color="#2a9a9a"/><stop offset=".389" stop-color="#b0ffff"/><stop offset=".591" stop-color="#f44e41"/><stop offset=".721" stop-color="#fb466d"/><stop offset=".822" stop-color="#96135e"/><stop offset=".904" stop-color="#260e29"/><stop offset="1" stop-color="#f2e8f5"/></linearGradient><linearGradient id="i" x1="213.143" x2="151.301" y1="307.579" y2="71.51" gradientUnits="userSpaceOnUse"><stop stop-color="#1a6262"/><stop offset=".25" stop-color="#2a9a9a"/><stop offset=".389" stop-color="#b0ffff"/><stop offset=".591" stop-color="#f44e41"/><stop offset=".721" stop-color="#fb466d"/><stop offset=".822" stop-color="#96135e"/><stop offset=".904" stop-color="#260e29"/><stop offset="1" stop-color="#f2e8f5"/></linearGradient><linearGradient id="j" x1="212.35" x2="155.745" y1="306.106" y2="75.246" gradientUnits="userSpaceOnUse"><stop stop-color="#1a6262"/><stop offset=".25" stop-color="#2a9a9a"/><stop offset=".389" stop-color="#b0ffff"/><stop offset=".591" stop-color="#f44e41"/><stop offset=".721" stop-color="#fb466d"/><stop offset=".822" stop-color="#96135e"/><stop offset=".904" stop-color="#260e29"/><stop offset="1" stop-color="#f2e8f5"/></linearGradient><linearGradient id="k" x1="211.512" x2="159.964" y1="304.557" y2="79.011" gradientUnits="userSpaceOnUse"><stop stop-color="#1a6262"/><stop offset=".25" stop-color="#2a9a9a"/><stop offset=".389" stop-color="#b0ffff"/><stop offset=".591" stop-color="#f44e41"/><stop offset=".721" stop-color="#fb466d"/><stop offset=".822" stop-color="#96135e"/><stop offset=".904" stop-color="#260e29"/><stop offset="1" stop-color="#f2e8f5"/></linearGradient><linearGradient id="l" x1="210.631" x2="163.957" y1="302.931" y2="82.8" gradientUnits="userSpaceOnUse"><stop stop-color="#1a6262"/><stop offset=".25" stop-color="#2a9a9a"/><stop offset=".389" stop-color="#b0ffff"/><stop offset=".591" stop-color="#f44e41"/><stop offset=".721" stop-color="#fb466d"/><stop offset=".822" stop-color="#96135e"/><stop offset=".904" stop-color="#260e29"/><stop offset="1" stop-color="#f2e8f5"/></linearGradient><linearGradient id="m" x1="209.714" x2="167.732" y1="301.228" y2="86.608" gradientUnits="userSpaceOnUse"><stop stop-color="#1a6262"/><stop offset=".25" stop-color="#2a9a9a"/><stop offset=".389" stop-color="#b0ffff"/><stop offset=".591" stop-color="#f44e41"/><stop offset=".721" stop-color="#fb466d"/><stop offset=".822" stop-color="#96135e"/><stop offset=".904" stop-color="#260e29"/><stop offset="1" stop-color="#f2e8f5"/></linearGradient><linearGradient id="n" x1="208.755" x2="171.278" y1="299.448" y2="90.43" gradientUnits="userSpaceOnUse"><stop stop-color="#1a6262"/><stop offset=".25" stop-color="#2a9a9a"/><stop offset=".389" stop-color="#b0ffff"/><stop offset=".591" stop-color="#f44e41"/><stop offset=".721" stop-color="#fb466d"/><stop offset=".822" stop-color="#96135e"/><stop offset=".904" stop-color="#260e29"/><stop offset="1" stop-color="#f2e8f5"/></linearGradient><linearGradient id="o" x1="207.757" x2="174.598" y1="297.587" y2="94.258" gradientUnits="userSpaceOnUse"><stop stop-color="#1a6262"/><stop offset=".25" stop-color="#2a9a9a"/><stop offset=".389" stop-color="#b0ffff"/><stop offset=".591" stop-color="#f44e41"/><stop offset=".721" stop-color="#fb466d"/><stop offset=".822" stop-color="#96135e"/><stop offset=".904" stop-color="#260e29"/><stop offset="1" stop-color="#f2e8f5"/></linearGradient><linearGradient id="p" x1="206.729" x2="177.699" y1="295.649" y2="98.092" gradientUnits="userSpaceOnUse"><stop stop-color="#1a6262"/><stop offset=".25" stop-color="#2a9a9a"/><stop offset=".389" stop-color="#b0ffff"/><stop offset=".591" stop-color="#f44e41"/><stop offset=".721" stop-color="#fb466d"/><stop offset=".822" stop-color="#96135e"/><stop offset=".904" stop-color="#260e29"/><stop offset="1" stop-color="#f2e8f5"/></linearGradient><linearGradient id="q" x1="205.663" x2="180.573" y1="293.626" y2="101.92" gradientUnits="userSpaceOnUse"><stop stop-color="#1a6262"/><stop offset=".25" stop-color="#2a9a9a"/><stop offset=".389" stop-color="#b0ffff"/><stop offset=".591" stop-color="#f44e41"/><stop offset=".721" stop-color="#fb466d"/><stop offset=".822" stop-color="#96135e"/><stop offset=".904" stop-color="#260e29"/><stop offset="1" stop-color="#f2e8f5"/></linearGradient><linearGradient id="r" x1="204.566" x2="183.223" y1="291.526" y2="105.743" gradientUnits="userSpaceOnUse"><stop stop-color="#1a6262"/><stop offset=".25" stop-color="#2a9a9a"/><stop offset=".389" stop-color="#b0ffff"/><stop offset=".591" stop-color="#f44e41"/><stop offset=".721" stop-color="#fb466d"/><stop offset=".822" stop-color="#96135e"/><stop offset=".904" stop-color="#260e29"/><stop offset="1" stop-color="#f2e8f5"/></linearGradient><linearGradient id="s" x1="203.445" x2="185.656" y1="289.343" y2="109.552" gradientUnits="userSpaceOnUse"><stop stop-color="#1a6262"/><stop offset=".25" stop-color="#2a9a9a"/><stop offset=".389" stop-color="#b0ffff"/><stop offset=".591" stop-color="#f44e41"/><stop offset=".721" stop-color="#fb466d"/><stop offset=".822" stop-color="#96135e"/><stop offset=".904" stop-color="#260e29"/><stop offset="1" stop-color="#f2e8f5"/></linearGradient><linearGradient id="t" x1="202.294" x2="187.864" y1="287.082" y2="113.348" gradientUnits="userSpaceOnUse"><stop stop-color="#1a6262"/><stop offset=".25" stop-color="#2a9a9a"/><stop offset=".389" stop-color="#b0ffff"/><stop offset=".591" stop-color="#f44e41"/><stop offset=".721" stop-color="#fb466d"/><stop offset=".822" stop-color="#96135e"/><stop offset=".904" stop-color="#260e29"/><stop offset="1" stop-color="#f2e8f5"/></linearGradient><linearGradient id="u" x1="201.12" x2="189.855" y1="284.732" y2="117.115" gradientUnits="userSpaceOnUse"><stop stop-color="#1a6262"/><stop offset=".25" stop-color="#2a9a9a"/><stop offset=".389" stop-color="#b0ffff"/><stop offset=".591" stop-color="#f44e41"/><stop offset=".721" stop-color="#fb466d"/><stop offset=".822" stop-color="#96135e"/><stop offset=".904" stop-color="#260e29"/><stop offset="1" stop-color="#f2e8f5"/></linearGradient><linearGradient id="v" x1="199.916" x2="191.619" y1="282.303" y2="120.857" gradientUnits="userSpaceOnUse"><stop stop-color="#1a6262"/><stop offset=".25" stop-color="#2a9a9a"/><stop offset=".389" stop-color="#b0ffff"/><stop offset=".591" stop-color="#f44e41"/><stop offset=".721" stop-color="#fb466d"/><stop offset=".822" stop-color="#96135e"/><stop offset=".904" stop-color="#260e29"/><stop offset="1" stop-color="#f2e8f5"/></linearGradient><linearGradient id="w" x1="198.7" x2="193.173" y1="279.788" y2="124.565" gradientUnits="userSpaceOnUse"><stop stop-color="#1a6262"/><stop offset=".25" stop-color="#2a9a9a"/><stop offset=".389" stop-color="#b0ffff"/><stop offset=".591" stop-color="#f44e41"/><stop offset=".721" stop-color="#fb466d"/><stop offset=".822" stop-color="#96135e"/><stop offset=".904" stop-color="#260e29"/><stop offset="1" stop-color="#f2e8f5"/></linearGradient><linearGradient id="x" x1="197.458" x2="194.504" y1="277.192" y2="128.236" gradientUnits="userSpaceOnUse"><stop stop-color="#1a6262"/><stop offset=".25" stop-color="#2a9a9a"/><stop offset=".389" stop-color="#b0ffff"/><stop offset=".591" stop-color="#f44e41"/><stop offset=".721" stop-color="#fb466d"/><stop offset=".822" stop-color="#96135e"/><stop offset=".904" stop-color="#260e29"/><stop offset="1" stop-color="#f2e8f5"/></linearGradient><linearGradient id="y" x1="196.203" x2="195.622" y1="274.511" y2="131.863" gradientUnits="userSpaceOnUse"><stop stop-color="#1a6262"/><stop offset=".25" stop-color="#2a9a9a"/><stop offset=".389" stop-color="#b0ffff"/><stop offset=".591" stop-color="#f44e41"/><stop offset=".721" stop-color="#fb466d"/><stop offset=".822" stop-color="#96135e"/><stop offset=".904" stop-color="#260e29"/><stop offset="1" stop-color="#f2e8f5"/></linearGradient><linearGradient id="z" x1="194.93" x2="196.524" y1="271.746" y2="135.443" gradientUnits="userSpaceOnUse"><stop stop-color="#1a6262"/><stop offset=".25" stop-color="#2a9a9a"/><stop offset=".389" stop-color="#b0ffff"/><stop offset=".591" stop-color="#f44e41"/><stop offset=".721" stop-color="#fb466d"/><stop offset=".822" stop-color="#96135e"/><stop offset=".904" stop-color="#260e29"/><stop offset="1" stop-color="#f2e8f5"/></linearGradient><linearGradient id="A" x1="193.643" x2="197.21" y1="268.898" y2="138.972" gradientUnits="userSpaceOnUse"><stop stop-color="#1a6262"/><stop offset=".25" stop-color="#2a9a9a"/><stop offset=".389" stop-color="#b0ffff"/><stop offset=".591" stop-color="#f44e41"/><stop offset=".721" stop-color="#fb466d"/><stop offset=".822" stop-color="#96135e"/><stop offset=".904" stop-color="#260e29"/><stop offset="1" stop-color="#f2e8f5"/></linearGradient><linearGradient id="B" x1="192.348" x2="197.688" y1="265.964" y2="142.441" gradientUnits="userSpaceOnUse"><stop stop-color="#1a6262"/><stop offset=".25" stop-color="#2a9a9a"/><stop offset=".389" stop-color="#b0ffff"/><stop offset=".591" stop-color="#f44e41"/><stop offset=".721" stop-color="#fb466d"/><stop offset=".822" stop-color="#96135e"/><stop offset=".904" stop-color="#260e29"/><stop offset="1" stop-color="#f2e8f5"/></linearGradient><linearGradient id="C" x1="191.039" x2="197.952" y1="262.944" y2="145.846" gradientUnits="userSpaceOnUse"><stop stop-color="#1a6262"/><stop offset=".25" stop-color="#2a9a9a"/><stop offset=".389" stop-color="#b0ffff"/><stop offset=".591" stop-color="#f44e41"/><stop offset=".721" stop-color="#fb466d"/><stop offset=".822" stop-color="#96135e"/><stop offset=".904" stop-color="#260e29"/><stop offset="1" stop-color="#f2e8f5"/></linearGradient><linearGradient id="D" x1="189.726" x2="198.01" y1="259.843" y2="149.187" gradientUnits="userSpaceOnUse"><stop stop-color="#1a6262"/><stop offset=".25" stop-color="#2a9a9a"/><stop offset=".389" stop-color="#b0ffff"/><stop offset=".591" stop-color="#f44e41"/><stop offset=".721" stop-color="#fb466d"/><stop offset=".822" stop-color="#96135e"/><stop offset=".904" stop-color="#260e29"/><stop offset="1" stop-color="#f2e8f5"/></linearGradient><linearGradient id="E" x1="188.407" x2="197.861" y1="256.652" y2="152.451" gradientUnits="userSpaceOnUse"><stop stop-color="#1a6262"/><stop offset=".25" stop-color="#2a9a9a"/><stop offset=".389" stop-color="#b0ffff"/><stop offset=".591" stop-color="#f44e41"/><stop offset=".721" stop-color="#fb466d"/><stop offset=".822" stop-color="#96135e"/><stop offset=".904" stop-color="#260e29"/><stop offset="1" stop-color="#f2e8f5"/></linearGradient><linearGradient id="F" x1="187.087" x2="197.51" y1="253.378" y2="155.64" gradientUnits="userSpaceOnUse"><stop stop-color="#1a6262"/><stop offset=".25" stop-color="#2a9a9a"/><stop offset=".389" stop-color="#b0ffff"/><stop offset=".591" stop-color="#f44e41"/><stop offset=".721" stop-color="#fb466d"/><stop offset=".822" stop-color="#96135e"/><stop offset=".904" stop-color="#260e29"/><stop offset="1" stop-color="#f2e8f5"/></linearGradient><linearGradient id="G" x1="185.761" x2="196.952" y1="250.023" y2="158.751" gradientUnits="userSpaceOnUse"><stop stop-color="#1a6262"/><stop offset=".25" stop-color="#2a9a9a"/><stop offset=".389" stop-color="#b0ffff"/><stop offset=".591" stop-color="#f44e41"/><stop offset=".721" stop-color="#fb466d"/><stop offset=".822" stop-color="#96135e"/><stop offset=".904" stop-color="#260e29"/><stop offset="1" stop-color="#f2e8f5"/></linearGradient><linearGradient id="H" x1="184.438" x2="196.196" y1="246.58" y2="161.772" gradientUnits="userSpaceOnUse"><stop stop-color="#1a6262"/><stop offset=".25" stop-color="#2a9a9a"/><stop offset=".389" stop-color="#b0ffff"/><stop offset=".591" stop-color="#f44e41"/><stop offset=".721" stop-color="#fb466d"/><stop offset=".822" stop-color="#96135e"/><stop offset=".904" stop-color="#260e29"/><stop offset="1" stop-color="#f2e8f5"/></linearGradient><linearGradient id="I" x1="183.116" x2="195.239" y1="243.05" y2="164.701" gradientUnits="userSpaceOnUse"><stop stop-color="#1a6262"/><stop offset=".25" stop-color="#2a9a9a"/><stop offset=".389" stop-color="#b0ffff"/><stop offset=".591" stop-color="#f44e41"/><stop offset=".721" stop-color="#fb466d"/><stop offset=".822" stop-color="#96135e"/><stop offset=".904" stop-color="#260e29"/><stop offset="1" stop-color="#f2e8f5"/></linearGradient><linearGradient id="J" x1="181.802" x2="194.091" y1="239.439" y2="167.536" gradientUnits="userSpaceOnUse"><stop stop-color="#1a6262"/><stop offset=".25" stop-color="#2a9a9a"/><stop offset=".389" stop-color="#b0ffff"/><stop offset=".591" stop-color="#f44e41"/><stop offset=".721" stop-color="#fb466d"/><stop offset=".822" stop-color="#96135e"/><stop offset=".904" stop-color="#260e29"/><stop offset="1" stop-color="#f2e8f5"/></linearGradient><linearGradient id="K" x1="180.494" x2="192.748" y1="235.743" y2="170.271" gradientUnits="userSpaceOnUse"><stop stop-color="#1a6262"/><stop offset=".25" stop-color="#2a9a9a"/><stop offset=".389" stop-color="#b0ffff"/><stop offset=".591" stop-color="#f44e41"/><stop offset=".721" stop-color="#fb466d"/><stop offset=".822" stop-color="#96135e"/><stop offset=".904" stop-color="#260e29"/><stop offset="1" stop-color="#f2e8f5"/></linearGradient><linearGradient id="L" x1="179.193" x2="191.214" y1="231.963" y2="172.902" gradientUnits="userSpaceOnUse"><stop stop-color="#1a6262"/><stop offset=".25" stop-color="#2a9a9a"/><stop offset=".389" stop-color="#b0ffff"/><stop offset=".591" stop-color="#f44e41"/><stop offset=".721" stop-color="#fb466d"/><stop offset=".822" stop-color="#96135e"/><stop offset=".904" stop-color="#260e29"/><stop offset="1" stop-color="#f2e8f5"/></linearGradient><linearGradient id="M" x1="177.904" x2="189.492" y1="228.099" y2="175.422" gradientUnits="userSpaceOnUse"><stop stop-color="#1a6262"/><stop offset=".25" stop-color="#2a9a9a"/><stop offset=".389" stop-color="#b0ffff"/><stop offset=".591" stop-color="#f44e41"/><stop offset=".721" stop-color="#fb466d"/><stop offset=".822" stop-color="#96135e"/><stop offset=".904" stop-color="#260e29"/><stop offset="1" stop-color="#f2e8f5"/></linearGradient><linearGradient id="N" x1="176.627" x2="187.585" y1="224.152" y2="177.831" gradientUnits="userSpaceOnUse"><stop stop-color="#1a6262"/><stop offset=".25" stop-color="#2a9a9a"/><stop offset=".389" stop-color="#b0ffff"/><stop offset=".591" stop-color="#f44e41"/><stop offset=".721" stop-color="#fb466d"/><stop offset=".822" stop-color="#96135e"/><stop offset=".904" stop-color="#260e29"/><stop offset="1" stop-color="#f2e8f5"/></linearGradient><linearGradient id="O" x1="175.364" x2="185.495" y1="220.118" y2="180.119" gradientUnits="userSpaceOnUse"><stop stop-color="#1a6262"/><stop offset=".25" stop-color="#2a9a9a"/><stop offset=".389" stop-color="#b0ffff"/><stop offset=".591" stop-color="#f44e41"/><stop offset=".721" stop-color="#fb466d"/><stop offset=".822" stop-color="#96135e"/><stop offset=".904" stop-color="#260e29"/><stop offset="1" stop-color="#f2e8f5"/></linearGradient><linearGradient id="P" x1="174.12" x2="183.228" y1="216.005" y2="182.287" gradientUnits="userSpaceOnUse"><stop stop-color="#1a6262"/><stop offset=".25" stop-color="#2a9a9a"/><stop offset=".389" stop-color="#b0ffff"/><stop offset=".591" stop-color="#f44e41"/><stop offset=".721" stop-color="#fb466d"/><stop offset=".822" stop-color="#96135e"/><stop offset=".904" stop-color="#260e29"/><stop offset="1" stop-color="#f2e8f5"/></linearGradient><filter id="a" width="316.385" height="300.85" x="3.684" y="49.913" color-interpolation-filters="sRGB" filterUnits="userSpaceOnUse"><feFlood flood-opacity="0" result="BackgroundImageFix"/><feBlend in="SourceGraphic" in2="BackgroundImageFix" result="shape"/><feGaussianBlur result="effect1_foregroundBlur_1613_7804" stdDeviation="10"/></filter></defs></svg>