<svg xmlns="http://www.w3.org/2000/svg" width="382" height="94" fill="none" viewBox="0 0 382 94">
  <path fill="#fff" d="M19 .908v4.52H7.36v7.16h8.92v4.44H7.36v11.8h-5.6V.908H19Zm18.37 27.92-6.16-10.88h-2.64v10.88h-5.6V.908h10.48c2.16 0 4 .387 5.52 1.16 1.52.747 2.654 1.773 3.4 3.08.774 1.28 1.16 2.72 1.16 4.32a8.4 8.4 0 0 1-1.6 5c-1.066 1.467-2.652 2.48-4.76 3.04l6.68 11.32h-6.48Zm-8.8-15.08h4.68c1.52 0 2.654-.36 3.4-1.08.748-.746 1.12-1.773 1.12-3.08 0-1.28-.372-2.267-1.12-2.96-.746-.72-1.88-1.08-3.4-1.08h-4.68v8.2Zm25.626-8.32v7h9.4v4.44h-9.4v7.4h10.6v4.56h-16.2V.868h16.2v4.56h-10.6Zm36.489 28.32-4.24-5.08a14.75 14.75 0 0 1-3.6.44c-2.613 0-5.013-.613-7.2-1.84a13.781 13.781 0 0 1-5.2-5.08c-1.28-2.186-1.92-4.653-1.92-7.4 0-2.72.64-5.16 1.92-7.32 1.28-2.187 3.013-3.893 5.2-5.12 2.187-1.227 4.587-1.84 7.2-1.84 2.64 0 5.04.613 7.2 1.84a13.406 13.406 0 0 1 5.16 5.12c1.28 2.16 1.92 4.6 1.92 7.32 0 2.48-.533 4.747-1.6 6.8-1.04 2.027-2.467 3.68-4.28 4.96l6.4 7.2h-6.96Zm-16.4-18.96c0 1.867.36 3.507 1.08 4.92.72 1.414 1.72 2.507 3 3.28 1.307.747 2.8 1.12 4.48 1.12 1.68 0 3.16-.373 4.44-1.12 1.28-.773 2.28-1.866 3-3.28.72-1.413 1.08-3.053 1.08-4.92s-.36-3.493-1.08-4.88c-.72-1.413-1.72-2.493-3-3.24-1.28-.747-2.76-1.12-4.44-1.12-1.68 0-3.173.373-4.48 1.12-1.28.747-2.28 1.827-3 3.24-.72 1.387-1.08 3.014-1.08 4.88ZM106.889.908v17.28c0 1.893.494 3.347 1.48 4.36.987.987 2.374 1.48 4.16 1.48 1.814 0 3.214-.493 4.2-1.48.987-1.013 1.48-2.466 1.48-4.36V.908h5.64v17.24c0 2.373-.52 4.387-1.56 6.04a9.647 9.647 0 0 1-4.12 3.68c-1.706.827-3.613 1.24-5.72 1.24-2.08 0-3.973-.413-5.68-1.24-1.68-.826-3.013-2.053-4-3.68-.986-1.653-1.48-3.666-1.48-6.04V.908h5.6Zm27.971 4.52v7h9.4v4.44h-9.4v7.4h10.6v4.56h-16.2V.868h16.2v4.56h-10.6Zm39.569 23.4h-5.6l-12.68-19.16v19.16h-5.6V.868h5.6l12.68 19.2V.868h5.6v27.96ZM198.963.908v4.52h-7.44v23.4h-5.6v-23.4h-7.44V.908h20.48Zm9.686 23.48h9.2v4.44h-14.8V.908h5.6v23.48ZM243.608.908l-9.44 18.2v9.72h-5.6v-9.72l-9.48-18.2h6.32l6 12.76 5.96-12.76h6.24Zm29.881 22.6h-11.12l-1.84 5.32h-5.88l10.04-27.96h6.52l10.04 27.96h-5.92l-1.84-5.32Zm-1.52-4.48-4.04-11.68-4.04 11.68h8.08Zm22.673 10.08c-1.946 0-3.706-.333-5.28-1-1.546-.666-2.773-1.627-3.68-2.88-.906-1.253-1.373-2.733-1.4-4.44h6c.08 1.147.48 2.053 1.2 2.72.747.667 1.76 1 3.04 1 1.307 0 2.334-.306 3.08-.92.747-.64 1.12-1.466 1.12-2.48 0-.826-.253-1.506-.76-2.04-.506-.533-1.146-.947-1.92-1.24-.746-.32-1.786-.666-3.12-1.04-1.813-.533-3.293-1.053-4.44-1.56-1.12-.533-2.093-1.32-2.92-2.36-.8-1.066-1.2-2.48-1.2-4.24 0-1.653.414-3.093 1.24-4.32.827-1.227 1.987-2.16 3.48-2.8 1.494-.667 3.2-1 5.12-1 2.88 0 5.214.707 7 2.12 1.814 1.387 2.814 3.333 3 5.84h-6.16c-.053-.96-.466-1.747-1.24-2.36-.746-.64-1.746-.96-3-.96-1.093 0-1.973.28-2.64.84-.64.56-.96 1.373-.96 2.44 0 .747.24 1.373.72 1.88.507.48 1.12.88 1.84 1.2.747.294 1.787.64 3.12 1.04 1.814.534 3.294 1.067 4.44 1.6 1.147.534 2.134 1.334 2.96 2.4.827 1.067 1.24 2.467 1.24 4.2 0 1.493-.386 2.88-1.16 4.16-.773 1.28-1.906 2.307-3.4 3.08-1.493.747-3.266 1.12-5.32 1.12Zm30.495-.28-10.16-12.44v12.44h-5.6V.908h5.6v12.52l10.16-12.52h6.76l-11.52 13.84 11.84 14.08h-7.08Zm16.364-23.4v7h9.4v4.44h-9.4v7.4h10.6v4.56h-16.2V.868h16.2v4.56h-10.6ZM366.95.908c2.933 0 5.506.573 7.72 1.72 2.24 1.147 3.96 2.787 5.16 4.92 1.226 2.107 1.84 4.56 1.84 7.36 0 2.8-.614 5.254-1.84 7.36-1.2 2.08-2.92 3.694-5.16 4.84-2.214 1.147-4.787 1.72-7.72 1.72h-9.76V.908h9.76Zm-.2 23.16c2.933 0 5.2-.8 6.8-2.4 1.6-1.6 2.4-3.853 2.4-6.76 0-2.906-.8-5.173-2.4-6.8-1.6-1.653-3.867-2.48-6.8-2.48h-3.96v18.44h3.96Z"/>
  <path fill="url(#a)" d="m22.56 93.748-4.24-5.08a14.8 14.8 0 0 1-3.6.44c-2.613 0-5.013-.613-7.2-1.84a13.781 13.781 0 0 1-5.2-5.08C1.04 80.001.4 77.535.4 74.788c0-2.72.64-5.16 1.92-7.32 1.28-2.187 3.013-3.893 5.2-5.12 2.187-1.227 4.587-1.84 7.2-1.84 2.64 0 5.04.613 7.2 1.84a13.407 13.407 0 0 1 5.16 5.12c1.28 2.16 1.92 4.6 1.92 7.32 0 2.48-.533 4.747-1.6 6.8-1.04 2.027-2.467 3.68-4.28 4.96l6.4 7.2h-6.96Zm-16.4-18.96c0 1.867.36 3.507 1.08 4.92.72 1.413 1.72 2.507 3 3.28 1.307.747 2.8 1.12 4.48 1.12 1.68 0 3.16-.373 4.44-1.12 1.28-.773 2.28-1.867 3-3.28.72-1.413 1.08-3.053 1.08-4.92s-.36-3.493-1.08-4.88c-.72-1.413-1.72-2.493-3-3.24-1.28-.747-2.76-1.12-4.44-1.12-1.68 0-3.173.373-4.48 1.12-1.28.747-2.28 1.827-3 3.24-.72 1.387-1.08 3.013-1.08 4.88Zm32.604-13.88v17.28c0 1.894.494 3.347 1.48 4.36.987.987 2.374 1.48 4.16 1.48 1.814 0 3.214-.493 4.2-1.48.987-1.013 1.48-2.466 1.48-4.36v-17.28h5.64v17.24c0 2.374-.52 4.387-1.56 6.04a9.653 9.653 0 0 1-4.12 3.68c-1.706.827-3.613 1.24-5.72 1.24-2.08 0-3.973-.413-5.68-1.24-1.68-.826-3.013-2.053-4-3.68-.986-1.653-1.48-3.666-1.48-6.04v-17.24h5.6Zm27.971 4.52v7h9.4v4.44h-9.4v7.4h10.6v4.56h-16.2v-27.96h16.2v4.56h-10.6Zm25.33 23.68c-1.948 0-3.708-.333-5.28-1-1.548-.666-2.774-1.627-3.68-2.88-.908-1.253-1.374-2.733-1.4-4.44h6c.08 1.147.48 2.053 1.2 2.72.746.667 1.76 1 3.04 1 1.306 0 2.332-.306 3.08-.92.746-.64 1.12-1.466 1.12-2.48 0-.827-.254-1.507-.76-2.04-.508-.533-1.148-.947-1.92-1.24-.748-.32-1.788-.666-3.12-1.04-1.814-.533-3.294-1.053-4.44-1.56-1.12-.533-2.094-1.32-2.92-2.36-.8-1.066-1.2-2.48-1.2-4.24 0-1.653.412-3.093 1.24-4.32.826-1.227 1.986-2.16 3.48-2.8 1.492-.666 3.2-1 5.12-1 2.88 0 5.212.707 7 2.12 1.812 1.387 2.812 3.334 2.999 5.84h-6.16c-.053-.96-.467-1.746-1.24-2.36-.747-.64-1.747-.96-3-.96-1.093 0-1.973.28-2.64.84-.64.56-.96 1.374-.96 2.44 0 .747.24 1.374.72 1.88.507.48 1.12.88 1.84 1.2.747.294 1.787.64 3.12 1.04 1.813.534 3.293 1.067 4.44 1.6 1.147.534 2.133 1.334 2.96 2.4.827 1.067 1.24 2.467 1.24 4.2 0 1.493-.387 2.88-1.16 4.16-.773 1.28-1.907 2.307-3.4 3.08-1.493.747-3.267 1.12-5.32 1.12Zm33.734-28.2v4.52h-7.44v23.4h-5.6v-23.4h-7.44v-4.52h20.48Zm9.686 0v27.92h-5.6v-27.92h5.6Zm18.493 28.2c-2.614 0-5.014-.613-7.2-1.84a13.779 13.779 0 0 1-5.2-5.08c-1.28-2.187-1.92-4.653-1.92-7.4 0-2.72.64-5.16 1.92-7.32 1.28-2.187 3.013-3.893 5.2-5.12 2.186-1.227 4.586-1.84 7.2-1.84 2.64 0 5.04.613 7.2 1.84a13.416 13.416 0 0 1 5.16 5.12c1.28 2.16 1.92 4.6 1.92 7.32 0 2.747-.64 5.213-1.92 7.4a13.498 13.498 0 0 1-5.16 5.08c-2.187 1.227-4.587 1.84-7.2 1.84Zm0-5c1.68 0 3.16-.373 4.44-1.12 1.28-.773 2.28-1.867 3-3.28.72-1.413 1.08-3.053 1.08-4.92s-.36-3.493-1.08-4.88c-.72-1.413-1.72-2.493-3-3.24-1.28-.747-2.76-1.12-4.44-1.12-1.68 0-3.174.373-4.48 1.12-1.28.747-2.28 1.827-3 3.24-.72 1.387-1.08 3.013-1.08 4.88s.36 3.507 1.08 4.92c.72 1.413 1.72 2.507 3 3.28 1.306.747 2.8 1.12 4.48 1.12Zm42.326 4.72h-5.6l-12.68-19.16v19.16h-5.6v-27.96h5.6l12.68 19.2v-19.2h5.6v27.96Zm15.174.28c-1.947 0-3.707-.333-5.28-1-1.547-.666-2.773-1.627-3.68-2.88s-1.373-2.733-1.4-4.44h6c.08 1.147.48 2.053 1.2 2.72.747.667 1.76 1 3.04 1 1.307 0 2.333-.306 3.08-.92.747-.64 1.12-1.466 1.12-2.48 0-.827-.253-1.507-.76-2.04-.507-.533-1.147-.947-1.92-1.24-.747-.32-1.787-.666-3.12-1.04-1.813-.533-3.293-1.053-4.44-1.56-1.12-.533-2.093-1.32-2.92-2.36-.8-1.066-1.2-2.48-1.2-4.24 0-1.653.413-3.093 1.24-4.32.827-1.227 1.987-2.16 3.48-2.8 1.493-.666 3.2-1 5.12-1 2.88 0 5.213.707 7 2.12 1.813 1.387 2.813 3.334 3 5.84h-6.16c-.053-.96-.467-1.746-1.24-2.36-.747-.64-1.747-.96-3-.96-1.093 0-1.973.28-2.64.84-.64.56-.96 1.374-.96 2.44 0 .747.24 1.374.72 1.88.507.48 1.12.88 1.84 1.2.747.294 1.787.64 3.12 1.04 1.813.534 3.293 1.067 4.44 1.6 1.147.534 2.133 1.334 2.96 2.4.827 1.067 1.24 2.467 1.24 4.2 0 1.493-.387 2.88-1.16 4.16-.773 1.28-1.907 2.307-3.4 3.08-1.493.747-3.267 1.12-5.32 1.12Z"/>
  <defs>
    <linearGradient id="a" x1="-21" x2="268" y1="62.328" y2="104.828" gradientUnits="userSpaceOnUse">
      <stop stop-color="#FF6700"/>
      <stop offset="1" stop-color="#EDBA5A"/>
    </linearGradient>
  </defs>
</svg>
