<svg width="163" height="26" viewBox="0 0 163 26" fill="none" xmlns="http://www.w3.org/2000/svg">
<path d="M23.3915 8.28169L23.7443 7.76717L22.7153 7.06156L22.3625 7.57607L23.3915 8.28169ZM15.2044 18.0151L14.8515 18.5296L15.8806 19.2352L16.2334 18.7207L15.2044 18.0151ZM7.8925 10.3275H7.26864C7.26864 11.9404 5.99243 13.2248 4.44625 13.2248V13.8487V14.4725C6.70668 14.4725 8.51635 12.604 8.51635 10.3275H7.8925ZM4.44625 13.8487V13.2248C2.90006 13.2248 1.62386 11.9404 1.62386 10.3275H1H0.376145C0.376145 12.604 2.18581 14.4725 4.44625 14.4725V13.8487ZM1 10.3275H1.62386C1.62386 8.71467 2.90006 7.43022 4.44625 7.43022V6.80637V6.18251C2.18581 6.18251 0.376145 8.05101 0.376145 10.3275H1ZM4.44625 6.80637V7.43022C5.99243 7.43022 7.26864 8.71467 7.26864 10.3275H7.8925H8.51635C8.51635 8.05101 6.70668 6.18251 4.44625 6.18251V6.80637ZM16.6888 21.0859H16.0649C16.0649 22.6988 14.7887 23.9832 13.2425 23.9832V24.6071V25.2309C15.503 25.2309 17.3126 23.3624 17.3126 21.0859H16.6888ZM13.2425 24.6071V23.9832C11.6964 23.9832 10.4202 22.6988 10.4202 21.0859H9.7963H9.17244C9.17244 23.3624 10.9821 25.2309 13.2425 25.2309V24.6071ZM9.7963 21.0859H10.4202C10.4202 19.4731 11.6964 18.1886 13.2425 18.1886V17.5648V16.9409C10.9821 16.9409 9.17244 18.8094 9.17244 21.0859H9.7963ZM13.2425 17.5648V18.1886C14.7887 18.1886 16.0649 19.4731 16.0649 21.0859H16.6888H17.3126C17.3126 18.8094 15.503 16.9409 13.2425 16.9409V17.5648ZM27.8212 4.50943H27.1973C27.1973 6.12228 25.9211 7.40673 24.375 7.40673V8.03058V8.65444C26.6354 8.65444 28.4451 6.78594 28.4451 4.50943H27.8212ZM24.375 8.03058V7.40673C22.8288 7.40673 21.5526 6.12228 21.5526 4.50943H20.9287H20.3048C20.3048 6.78594 22.1145 8.65444 24.375 8.65444V8.03058ZM20.9287 4.50943H21.5526C21.5526 2.89659 22.8288 1.61214 24.375 1.61214V0.988281V0.364426C22.1145 0.364426 20.3048 2.23292 20.3048 4.50943H20.9287ZM24.375 0.988281V1.61214C25.9211 1.61214 27.1973 2.89659 27.1973 4.50943H27.8212H28.4451C28.4451 2.23292 26.6354 0.364426 24.375 0.364426V0.988281ZM22.877 7.92888L22.3625 7.57607L15.2044 18.0151L15.7189 18.3679L16.2334 18.7207L23.3915 8.28169L22.877 7.92888ZM6.67815 12.7552L6.19853 13.1542L11.0127 18.9416L11.4923 18.5426L11.9719 18.1437L7.15776 12.3563L6.67815 12.7552Z" fill="#1A6262"/>
<path d="M32.1742 14.0351C29.9294 13.718 28.3434 12.2296 28.3434 10.1312C28.3434 7.98403 30.5638 6.39805 32.3938 6.39805C33.9797 6.39805 35.1997 7.05684 36.0781 8.32563L33.5893 10.1312C33.2722 9.83841 32.9306 9.61881 32.467 9.61881C32.0034 9.61881 31.735 9.8872 31.735 10.2532C31.735 10.668 32.0278 10.912 33.0526 11.034C35.3217 11.3268 37.0541 12.498 37.0541 15.0355C37.0541 17.5487 34.9801 19.2567 32.3206 19.2567C30.4906 19.2567 29.1486 18.6223 28.075 17.4023L31.003 15.2795C31.369 15.6699 31.8082 15.8163 32.345 15.8163C32.9794 15.8163 33.2722 15.4503 33.2722 14.9867C33.2722 14.4987 32.955 14.1571 32.1742 14.0351ZM51.2387 12.8396V18.9883H47.7983V12.8396C47.7983 10.8632 46.6516 9.86281 45.2364 9.86281C43.6992 9.86281 42.284 10.8632 42.284 12.8396V18.9883H38.8193V6.66645H42.284V7.52044C42.9672 6.73965 44.4068 6.39805 45.5292 6.39805C48.8963 6.39805 51.2387 9.27721 51.2387 12.8396ZM55.2052 4.49488C54.1316 4.49488 53.2044 3.59209 53.2044 2.51851C53.2044 1.54252 54.1316 0.615331 55.2052 0.615331C56.3764 0.615331 57.2791 1.51812 57.2791 2.51851C57.2791 3.59209 56.3764 4.49488 55.2052 4.49488ZM56.9619 6.66645V18.9883H53.4972V6.66645H56.9619ZM62.8712 24.8686H59.4065V6.66645H62.8712V7.52044C63.408 6.93484 64.75 6.39805 65.8724 6.39805C69.264 6.39805 71.9235 9.27721 71.9235 12.7908C71.9235 16.3531 69.1664 19.2567 65.7992 19.2567C64.7744 19.2567 63.53 18.8907 62.8712 18.1099V24.8686ZM65.5308 9.86281C63.9204 9.86281 62.7248 11.0828 62.7248 12.8152C62.7248 14.5719 63.9204 15.8163 65.5308 15.8163C67.1168 15.8163 68.41 14.5719 68.41 12.8152C68.41 11.0828 67.1168 9.86281 65.5308 9.86281ZM82.6788 14.5719L85.436 16.6947C84.3868 18.2563 82.2152 19.2567 80.0192 19.2567C76.3105 19.2567 73.3337 16.3531 73.3337 12.8396C73.3337 9.27721 76.1885 6.39805 79.7264 6.39805C82.7764 6.39805 85.1188 8.44762 85.8752 10.7412L78.9945 15.6699C79.3117 15.7919 79.6532 15.8163 80.0192 15.8163C81.0684 15.8163 82.1176 15.4503 82.6788 14.5719ZM76.8473 12.8396C76.8473 13.1324 76.8717 13.4008 76.9449 13.6448L81.4344 10.4484C80.9464 10.0824 80.3852 9.86281 79.7264 9.86281C78.1405 9.86281 76.8473 11.1072 76.8473 12.8396ZM94.6701 6.44685V10.0336C94.3285 9.9116 93.9625 9.86281 93.5721 9.86281C92.2301 9.86281 91.0833 10.8632 91.0833 12.8396V18.9883H87.6186V6.66645H91.0833V7.52044C91.8397 6.71525 92.8645 6.39805 93.8161 6.39805C94.1089 6.39805 94.3529 6.39805 94.6701 6.44685ZM103.419 9.86281H100.491V13.7912C100.491 15.1819 101.76 15.8163 103.346 15.8163V19.2567C99.6614 19.2567 97.0262 17.0851 97.0262 13.8888V9.86281H95.1718V6.66645H97.0262V5.05607L100.491 2.5429V6.66645H103.419V9.86281ZM117.432 12.8396V18.9883H113.992V12.8396C113.992 10.8632 112.845 9.86281 111.43 9.86281C109.893 9.86281 108.478 11.1072 108.478 12.8396V18.9883H105.013V0.810527H108.478V7.54484C109.136 6.73965 110.6 6.39805 111.723 6.39805C115.09 6.39805 117.432 9.27721 117.432 12.8396ZM121.399 4.49488C120.325 4.49488 119.398 3.59209 119.398 2.51851C119.398 1.54252 120.325 0.615331 121.399 0.615331C122.57 0.615331 123.473 1.51812 123.473 2.51851C123.473 3.59209 122.57 4.49488 121.399 4.49488ZM123.156 6.66645V18.9883H119.691V6.66645H123.156ZM138.02 12.8396V18.9883H134.579V12.8396C134.579 10.8632 133.432 9.86281 132.017 9.86281C130.48 9.86281 129.065 10.8632 129.065 12.8396V18.9883H125.6V6.66645H129.065V7.52044C129.748 6.73965 131.188 6.39805 132.31 6.39805C135.677 6.39805 138.02 9.27721 138.02 12.8396ZM144.719 14.6451L143.743 15.5723V18.9883H140.278V0.810527H143.743V11.5708L148.989 6.66645H153.283L147.086 12.4248L153.551 18.9883H149.135L144.719 14.6451ZM156.745 15.5723C157.868 15.5723 158.624 16.4019 158.624 17.4511C158.624 18.4515 157.892 19.3055 156.745 19.3055C155.623 19.3055 154.866 18.4515 154.866 17.4511C154.866 16.4019 155.623 15.5723 156.745 15.5723Z" fill="#1A6262"/>
</svg>
