<svg width="1183" height="177" viewBox="0 0 1183 177" fill="none" xmlns="http://www.w3.org/2000/svg">
<path d="M229.68 97.272C213.488 94.984 202.048 84.248 202.048 69.112C202.048 53.624 218.064 42.184 231.264 42.184C242.704 42.184 251.504 46.936 257.84 56.088L239.888 69.112C237.6 67 235.136 65.416 231.792 65.416C228.448 65.416 226.512 67.352 226.512 69.992C226.512 72.984 228.624 74.744 236.016 75.624C252.384 77.736 264.88 86.184 264.88 104.488C264.88 122.616 249.92 134.936 230.736 134.936C217.536 134.936 207.856 130.36 200.112 121.56L221.232 106.248C223.872 109.064 227.04 110.12 230.912 110.12C235.488 110.12 237.6 107.48 237.6 104.136C237.6 100.616 235.312 98.152 229.68 97.272ZM367.197 88.648V133H342.381V88.648C342.381 74.392 334.109 67.176 323.901 67.176C312.812 67.176 302.605 74.392 302.605 88.648V133H277.613V44.12H302.605V50.28C307.533 44.648 317.917 42.184 326.013 42.184C350.301 42.184 367.197 62.952 367.197 88.648ZM395.808 28.456C388.064 28.456 381.376 21.944 381.376 14.2C381.376 7.15999 388.064 0.471996 395.808 0.471996C404.256 0.471996 410.768 6.984 410.768 14.2C410.768 21.944 404.256 28.456 395.808 28.456ZM408.48 44.12V133H383.488V44.12H408.48ZM451.105 175.416H426.113V44.12H451.105V50.28C454.977 46.056 464.657 42.184 472.753 42.184C497.217 42.184 516.401 62.952 516.401 88.296C516.401 113.992 496.513 134.936 472.225 134.936C464.833 134.936 455.857 132.296 451.105 126.664V175.416ZM470.289 67.176C458.673 67.176 450.049 75.976 450.049 88.472C450.049 101.144 458.673 110.12 470.289 110.12C481.729 110.12 491.057 101.144 491.057 88.472C491.057 75.976 481.729 67.176 470.289 67.176ZM593.981 101.144L613.869 116.456C606.301 127.72 590.637 134.936 574.797 134.936C548.045 134.936 526.573 113.992 526.573 88.648C526.573 62.952 547.165 42.184 572.685 42.184C594.685 42.184 611.581 56.968 617.037 73.512L567.405 109.064C569.693 109.944 572.157 110.12 574.797 110.12C582.365 110.12 589.933 107.48 593.981 101.144ZM551.917 88.648C551.917 90.76 552.093 92.696 552.621 94.456L585.005 71.4C581.485 68.76 577.437 67.176 572.685 67.176C561.245 67.176 551.917 76.152 551.917 88.648ZM680.477 42.536V68.408C678.013 67.528 675.373 67.176 672.556 67.176C662.877 67.176 654.605 74.392 654.605 88.648V133H629.613V44.12H654.605V50.28C660.061 44.472 667.453 42.184 674.317 42.184C676.429 42.184 678.189 42.184 680.477 42.536ZM743.584 67.176H722.464V95.512C722.464 105.544 731.616 110.12 743.056 110.12V134.936C716.48 134.936 697.472 119.272 697.472 96.216V67.176H684.096V44.12H697.472V32.504L722.464 14.376V44.12H743.584V67.176ZM844.665 88.648V133H819.849V88.648C819.849 74.392 811.577 67.176 801.369 67.176C790.281 67.176 780.073 76.152 780.073 88.648V133H755.081V1.87999H780.073V50.456C784.825 44.648 795.385 42.184 803.481 42.184C827.769 42.184 844.665 62.952 844.665 88.648ZM873.276 28.456C865.532 28.456 858.844 21.944 858.844 14.2C858.844 7.15999 865.532 0.471996 873.276 0.471996C881.724 0.471996 888.236 6.984 888.236 14.2C888.236 21.944 881.724 28.456 873.276 28.456ZM885.948 44.12V133H860.956V44.12H885.948ZM993.165 88.648V133H968.349V88.648C968.349 74.392 960.077 67.176 949.869 67.176C938.781 67.176 928.573 74.392 928.573 88.648V133H903.581V44.12H928.573V50.28C933.501 44.648 943.885 42.184 951.981 42.184C976.269 42.184 993.165 62.952 993.165 88.648ZM1041.49 101.672L1034.45 108.36V133H1009.46V1.87999H1034.45V79.496L1072.29 44.12H1103.26L1058.56 85.656L1105.2 133H1073.34L1041.49 101.672ZM1128.24 108.36C1136.33 108.36 1141.79 114.344 1141.79 121.912C1141.79 129.128 1136.51 135.288 1128.24 135.288C1120.14 135.288 1114.69 129.128 1114.69 121.912C1114.69 114.344 1120.14 108.36 1128.24 108.36Z" fill="white"/>
<circle cx="25.8335" cy="69.5191" r="21.3785" stroke="white" stroke-width="8.91"/>
<circle cx="91.7718" cy="148.45" r="21.3785" stroke="white" stroke-width="8.91"/>
<circle cx="175.222" cy="26.8335" r="21.3785" stroke="white" stroke-width="8.91"/>
<line x1="4.455" y1="-4.455" x2="97.9692" y2="-4.455" transform="matrix(-0.5738 0.818996 -0.816612 -0.577187 162.911 45.7009)" stroke="white" stroke-width="8.91" stroke-linecap="square"/>
<line y1="-4.455" x2="55.7242" y2="-4.455" transform="matrix(0.647609 0.761973 -0.759152 0.650914 39.1821 90.23)" stroke="white" stroke-width="8.91"/>
</svg>
