<svg xmlns="http://www.w3.org/2000/svg" width="371" height="44" fill="none" viewBox="0 0 371 44"><g fill="#fff" clip-path="url(#a)"><path d="m20.727 17.501.326-.47-.941-.652-.326.47zm-7.569 8.925-.326.47.941.651.326-.47zm-6.776-7.05H5.81c0 1.474-1.18 2.657-2.619 2.657v1.145c2.085 0 3.763-1.709 3.763-3.802zm-3.191 3.23v-.573c-1.44 0-2.619-1.183-2.619-2.657H-.572c0 2.093 1.678 3.802 3.763 3.802zM0 19.376h.572c0-1.475 1.18-2.658 2.619-2.658v-1.145c-2.085 0-3.763 1.71-3.763 3.803zm3.191-3.23v.572c1.44 0 2.619 1.183 2.619 2.658h1.144c0-2.094-1.678-3.803-3.763-3.803zm11.336 13.098h-.573c0 1.475-1.179 2.658-2.618 2.658v1.145c2.085 0 3.763-1.71 3.763-3.802zm-3.191 3.23v-.572c-1.44 0-2.619-1.183-2.619-2.658H7.572c0 2.094 1.679 3.803 3.764 3.803zm-3.191-3.23h.572c0-1.474 1.179-2.657 2.619-2.657v-1.145c-2.085 0-3.764 1.71-3.764 3.802zm3.19-3.23v.573c1.44 0 2.62 1.183 2.62 2.657h1.144c0-2.093-1.678-3.802-3.763-3.802zm13.5-11.975h-.573c0 1.474-1.179 2.657-2.619 2.657v1.145c2.085 0 3.764-1.709 3.764-3.802zm-3.192 3.23v-.573c-1.44 0-2.618-1.183-2.618-2.657H17.88c0 2.093 1.678 3.802 3.763 3.802zm-3.19-3.23h.572c0-1.475 1.179-2.658 2.618-2.658v-1.145c-2.085 0-3.763 1.71-3.763 3.803zm3.19-3.23v.572c1.44 0 2.62 1.183 2.62 2.658h1.144c0-2.094-1.679-3.803-3.764-3.803zm-1.387 6.366-.47-.325-6.628 9.576.47.325.471.326 6.628-9.576zM5.258 21.603l-.439.368 4.458 5.308.438-.367.438-.368-4.457-5.31zm23.57 1.662c-2.06-.291-3.514-1.656-3.514-3.581 0-1.97 2.036-3.425 3.715-3.425 1.455 0 2.574.605 3.38 1.768l-2.283 1.657c-.291-.269-.605-.47-1.03-.47s-.671.246-.671.582c0 .38.268.604 1.208.716 2.082.269 3.671 1.343 3.671 3.67 0 2.306-1.902 3.873-4.342 3.873-1.679 0-2.91-.582-3.895-1.701l2.686-1.947c.336.358.739.492 1.231.492.582 0 .85-.336.85-.761 0-.448-.29-.761-1.006-.873m17.488-1.097v5.64H43.16v-5.64c0-1.813-1.052-2.73-2.35-2.73-1.41 0-2.708.917-2.708 2.73v5.64h-3.179V16.507h3.179v.783c.626-.716 1.947-1.03 2.976-1.03 3.09 0 5.238 2.641 5.238 5.91m3.638-7.654c-.984 0-1.835-.829-1.835-1.813 0-.896.85-1.746 1.835-1.746 1.075 0 1.903.828 1.903 1.746 0 .984-.828 1.813-1.903 1.813m1.612 1.992v11.303h-3.178V16.506zm5.42 16.697h-3.178V16.506h3.179v.783c.492-.537 1.723-1.03 2.753-1.03 3.11 0 5.55 2.641 5.55 5.865 0 3.267-2.529 5.93-5.618 5.93-.94 0-2.081-.335-2.685-1.051zm2.44-13.765c-1.477 0-2.574 1.119-2.574 2.708 0 1.611 1.097 2.753 2.574 2.753 1.455 0 2.641-1.142 2.641-2.753 0-1.59-1.186-2.708-2.64-2.708m15.73 4.32 2.53 1.947c-.963 1.432-2.955 2.35-4.97 2.35-3.401 0-6.132-2.664-6.132-5.887 0-3.268 2.619-5.909 5.864-5.909 2.798 0 4.947 1.88 5.64 3.984l-6.311 4.522c.29.111.604.134.94.134.962 0 1.925-.336 2.44-1.142m-5.349-1.59c0 .269.022.515.09.739l4.118-2.932a2.55 2.55 0 0 0-1.567-.537c-1.455 0-2.64 1.141-2.64 2.73m16.35-5.864v3.29a3 3 0 0 0-1.008-.156c-1.23 0-2.283.917-2.283 2.73v5.64h-3.178V16.507h3.178v.783c.694-.739 1.634-1.03 2.507-1.03.268 0 .492 0 .783.045m8.025 3.134h-2.686v3.603c0 1.276 1.164 1.858 2.619 1.858v3.156c-3.38 0-5.797-1.992-5.797-4.924v-3.693h-1.701v-2.932h1.7v-1.478l3.179-2.305v3.783h2.686zm12.855 2.73v5.64h-3.156v-5.64c0-1.813-1.052-2.73-2.35-2.73a2.72 2.72 0 0 0-2.709 2.73v5.64h-3.178V11.135h3.178v6.177c.605-.738 1.948-1.052 2.977-1.052 3.089 0 5.238 2.641 5.238 5.91m3.638-7.654c-.985 0-1.835-.829-1.835-1.813 0-.896.85-1.746 1.835-1.746 1.074 0 1.903.828 1.903 1.746 0 .984-.829 1.813-1.903 1.813m1.612 1.992v11.303h-3.179V16.506zm13.635 5.662v5.64h-3.156v-5.64c0-1.813-1.052-2.73-2.35-2.73-1.411 0-2.709.917-2.709 2.73v5.64h-3.178V16.507h3.178v.783c.627-.716 1.948-1.03 2.977-1.03 3.089 0 5.238 2.641 5.238 5.91m6.145 1.657-.895.85v3.134h-3.179V11.134h3.179v9.87l4.812-4.498h3.939l-5.685 5.282 5.931 6.02h-4.051zm11.032.85c1.03 0 1.723.761 1.723 1.723 0 .918-.671 1.702-1.723 1.702-1.03 0-1.723-.784-1.723-1.702 0-.962.693-1.723 1.723-1.723"/></g><defs><clipPath id="a"><path fill="#fff" d="M0 0h371v44H0z"/></clipPath></defs></svg>