<svg xmlns="http://www.w3.org/2000/svg" width="16" height="16" fill="none" viewBox="0 0 16 16"><path fill="#f8a700" d="m5 3.733-1.667.933L4.267 3l-.934-1.667L5 2.266l1.667-.933L5.733 3l.934 1.666zm8 6.533 1.667-.933L13.733 11l.934 1.666L13 11.733l-1.667.933.934-1.666-.934-1.667zm1.667-8.933L13.733 3l.934 1.666L13 3.733l-1.667.933L12.267 3l-.934-1.667L13 2.266zM8.893 8.52l1.627-1.627L9.107 5.48 7.48 7.106zm.687-3.66 1.56 1.56c.26.246.26.68 0 .94l-7.78 7.78a.664.664 0 0 1-.94 0L.86 13.58a.664.664 0 0 1 0-.94l7.78-7.78c.26-.26.693-.26.94 0"/></svg>