<svg xmlns="http://www.w3.org/2000/svg" width="199" height="13" fill="none" viewBox="0 0 199 13"><path fill="url(#a)" d="M.278.364H2.41l3.705 9.045h.136L9.955.364h2.13V12h-1.67V3.58h-.108l-3.432 8.403H5.489l-3.432-8.41h-.108V12H.279zm17.985 11.812q-1.29 0-2.222-.551a3.74 3.74 0 0 1-1.432-1.562q-.5-1.012-.5-2.37 0-1.341.5-2.363a3.9 3.9 0 0 1 1.41-1.597q.909-.574 2.125-.574.739 0 1.431.244.693.245 1.245.767.55.524.869 1.358.318.83.318 2.017v.603H15.07V6.875h5.272q0-.67-.272-1.187a2.06 2.06 0 0 0-.767-.824q-.49-.301-1.148-.301-.716 0-1.25.352a2.37 2.37 0 0 0-.818.909q-.284.556-.284 1.21v.994q0 .876.306 1.489.313.614.87.938.556.318 1.3.318.484 0 .881-.137.399-.141.688-.42t.443-.688l1.608.29q-.194.71-.693 1.245a3.36 3.36 0 0 1-1.244.823q-.745.29-1.7.29m9.39 0q-1.29 0-2.221-.551A3.74 3.74 0 0 1 24 10.063q-.5-1.012-.5-2.37 0-1.341.5-2.363a3.9 3.9 0 0 1 1.41-1.597q.908-.574 2.124-.574.739 0 1.432.244.693.245 1.244.767.551.524.87 1.358.318.83.318 2.017v.603H24.46V6.875h5.273q0-.67-.273-1.187a2.06 2.06 0 0 0-.767-.824q-.488-.301-1.148-.301-.716 0-1.25.352a2.36 2.36 0 0 0-.818.909q-.285.556-.284 1.21v.994q0 .876.307 1.489.312.614.87.938.555.318 1.3.318.483 0 .881-.137.398-.141.688-.42t.443-.688l1.608.29q-.194.71-.693 1.245a3.36 3.36 0 0 1-1.245.823q-.744.29-1.699.29m9.703-8.903v1.363H32.59V3.273zm-3.488-2.091h1.699v8.256q0 .494.148.744a.77.77 0 0 0 .38.335q.24.085.517.085.205 0 .358-.028l.239-.046.307 1.404a3 3 0 0 1-.42.114q-.274.062-.683.068a3 3 0 0 1-1.25-.239 2.14 2.14 0 0 1-.937-.773q-.358-.523-.358-1.312zm8.84-.818h1.995l3.04 5.29h.125l3.04-5.29h1.994L48.68 7.432V12h-1.75V7.432zm13.954 11.812q-1.227 0-2.142-.562a3.8 3.8 0 0 1-1.42-1.574q-.507-1.011-.506-2.364 0-1.358.505-2.375a3.8 3.8 0 0 1 1.42-1.58q.916-.562 2.143-.562t2.142.563 1.42 1.58q.507 1.016.506 2.374 0 1.353-.506 2.364a3.8 3.8 0 0 1-1.42 1.574q-.915.562-2.142.562m.006-1.426q.796 0 1.318-.42t.773-1.12q.255-.699.255-1.54 0-.834-.256-1.534a2.5 2.5 0 0 0-.772-1.13q-.523-.426-1.318-.426-.802 0-1.33.426a2.54 2.54 0 0 0-.778 1.13q-.25.7-.25 1.534 0 .841.25 1.54.256.7.778 1.12.528.42 1.33.42m11.487-2.37V3.274h1.704V12h-1.67v-1.511h-.091q-.3.698-.966 1.164-.66.46-1.642.46-.84 0-1.489-.369-.642-.375-1.01-1.108-.365-.732-.365-1.812V3.273h1.7v5.346q0 .893.494 1.42.494.53 1.284.53.477 0 .949-.24.477-.239.79-.721.318-.483.312-1.227M72.142 12V3.273h1.642v1.386h.091q.24-.705.84-1.108.609-.41 1.376-.409a7 7 0 0 1 .722.04v1.625a3 3 0 0 0-.364-.063 3.5 3.5 0 0 0-.523-.04q-.602 0-1.074.256a1.9 1.9 0 0 0-1.011 1.71V12zm18.386-7.96a3.6 3.6 0 0 0-.443-.926 2.83 2.83 0 0 0-1.522-1.154 3.5 3.5 0 0 0-1.063-.153q-.983 0-1.773.506-.79.505-1.25 1.482-.454.972-.454 2.381 0 1.414.46 2.392t1.261 1.483 1.824.506q.95 0 1.654-.386a2.7 2.7 0 0 0 1.096-1.091q.392-.71.392-1.67l.455.084h-3.33V6.045h4.574V7.37q0 1.467-.625 2.546a4.26 4.26 0 0 1-1.716 1.659q-1.09.585-2.5.585-1.58 0-2.772-.727-1.188-.728-1.853-2.063-.665-1.34-.665-3.181 0-1.393.387-2.5.386-1.11 1.085-1.881A4.7 4.7 0 0 1 85.403.619 5.2 5.2 0 0 1 87.49.205q.943 0 1.755.278.818.279 1.455.79a4.47 4.47 0 0 1 1.63 2.767zM94.501 12V3.273h1.642v1.386h.091q.24-.705.841-1.108.609-.41 1.375-.409a7 7 0 0 1 .722.04v1.625a3 3 0 0 0-.364-.063 3.5 3.5 0 0 0-.523-.04q-.602 0-1.073.256A1.9 1.9 0 0 0 96.2 6.67V12zm9.505.176q-1.228 0-2.142-.562a3.8 3.8 0 0 1-1.421-1.574q-.505-1.011-.505-2.364 0-1.358.505-2.375a3.8 3.8 0 0 1 1.421-1.58q.914-.562 2.142-.562t2.142.563q.915.562 1.42 1.58.506 1.016.506 2.374 0 1.353-.506 2.364a3.8 3.8 0 0 1-1.42 1.574q-.915.562-2.142.562m.005-1.426q.796 0 1.319-.42a2.46 2.46 0 0 0 .772-1.12q.256-.699.256-1.54 0-.834-.256-1.534a2.5 2.5 0 0 0-.772-1.13q-.523-.426-1.319-.426-.801 0-1.329.426a2.54 2.54 0 0 0-.779 1.13q-.25.7-.25 1.534 0 .841.25 1.54.256.7.779 1.12.528.42 1.329.42m7.586 1.25-2.569-8.727h1.756l1.71 6.409h.086l1.715-6.41h1.756l1.705 6.381h.085l1.699-6.38h1.755L118.733 12H117l-1.773-6.301h-.13L113.324 12zm15.385-8.727v1.363h-4.768V3.273zm-3.489-2.091h1.699v8.256q0 .494.147.744a.78.78 0 0 0 .381.335q.239.085.517.085.205 0 .358-.028l.239-.046.307 1.404a3 3 0 0 1-.421.114 3.3 3.3 0 0 1-.682.068 3 3 0 0 1-1.25-.239 2.14 2.14 0 0 1-.937-.773q-.358-.523-.358-1.312zm7.254 5.636V12h-1.699V.364h1.676v4.33h.108q.307-.705.938-1.12.63-.415 1.648-.415.897 0 1.568.37.676.369 1.045 1.102.375.727.375 1.818V12h-1.699V6.653q0-.96-.494-1.488-.494-.534-1.375-.534-.602 0-1.079.255-.472.255-.745.75-.267.489-.267 1.182M143.044 12V.364h4.148q1.358 0 2.25.494t1.335 1.352q.443.853.443 1.92 0 1.074-.449 1.933-.442.851-1.341 1.352-.891.494-2.244.494h-2.852V6.42h2.693q.858 0 1.392-.295.534-.3.784-.818t.25-1.176q0-.66-.25-1.17a1.8 1.8 0 0 0-.79-.802q-.534-.29-1.409-.29H144.8V12zm12.56.193a3.6 3.6 0 0 1-1.5-.307 2.53 2.53 0 0 1-1.063-.903q-.386-.591-.386-1.449 0-.739.284-1.216t.767-.755a4 4 0 0 1 1.08-.42q.596-.144 1.215-.217l1.273-.148q.49-.062.71-.198.222-.137.222-.444v-.04q0-.744-.42-1.153-.416-.41-1.239-.409-.858 0-1.352.38-.49.376-.677.836l-1.596-.364q.284-.795.829-1.284.552-.494 1.267-.716.717-.227 1.506-.227.523 0 1.108.125.59.12 1.102.443.517.324.847.926.33.597.33 1.552V12h-1.66v-1.193h-.068q-.165.33-.494.647-.33.32-.847.529t-1.238.21m.369-1.364q.704 0 1.205-.278.505-.278.767-.727.267-.455.267-.972V7.727q-.091.091-.353.17-.255.075-.585.131-.33.051-.642.097l-.523.068a4.2 4.2 0 0 0-.903.21q-.404.148-.648.427-.238.272-.238.727 0 .63.466.954.465.32 1.187.319m6.2 1.171V3.273h1.642v1.386h.091q.239-.705.841-1.108.608-.41 1.375-.409a7 7 0 0 1 .722.04v1.625a3 3 0 0 0-.364-.063 3.5 3.5 0 0 0-.523-.04q-.602 0-1.073.256a1.9 1.9 0 0 0-1.012 1.71V12zm10.73-8.727v1.363h-4.767V3.273zm-3.488-2.091h1.699v8.256q0 .494.147.744a.78.78 0 0 0 .381.335q.238.085.517.085.204 0 .358-.028l.239-.046.306 1.404a3 3 0 0 1-.42.114 3.3 3.3 0 0 1-.682.068 3 3 0 0 1-1.25-.239 2.14 2.14 0 0 1-.937-.773q-.358-.523-.358-1.312zm7.067 5.636V12h-1.699V3.273h1.63v1.42h.108q.301-.693.943-1.113.648-.42 1.631-.42.892 0 1.563.374.67.37 1.039 1.102.37.733.37 1.813V12h-1.699V6.653q0-.948-.494-1.483-.495-.54-1.358-.54-.591 0-1.052.256-.454.255-.721.75-.261.489-.261 1.182m11.625 5.358q-1.29 0-2.222-.551a3.74 3.74 0 0 1-1.432-1.562q-.5-1.012-.5-2.37 0-1.341.5-2.363a3.9 3.9 0 0 1 1.409-1.597q.91-.574 2.125-.574.74 0 1.432.244.693.245 1.244.767.552.524.87 1.358.318.83.318 2.017v.603h-6.938V6.875h5.273q0-.67-.273-1.187a2.05 2.05 0 0 0-.767-.824q-.488-.301-1.147-.301-.717 0-1.25.352a2.37 2.37 0 0 0-.819.909 2.6 2.6 0 0 0-.284 1.21v.994q0 .876.307 1.489.312.614.869.938.557.318 1.302.318.483 0 .88-.137.398-.141.688-.42t.443-.688l1.608.29q-.194.71-.693 1.245-.495.528-1.245.823-.744.29-1.698.29m5.629-.176V3.273h1.642v1.386h.091q.238-.705.841-1.108.607-.41 1.375-.409a7 7 0 0 1 .721.04v1.625a3 3 0 0 0-.363-.063 3.5 3.5 0 0 0-.523-.04q-.603 0-1.074.256a1.9 1.9 0 0 0-1.011 1.71V12z"/><defs><linearGradient id="a" x1="-1" x2="199" y1="6" y2="18" gradientUnits="userSpaceOnUse"><stop stop-color="#ff6700"/><stop offset="1" stop-color="#91c499"/></linearGradient></defs></svg>