<svg width="370" height="150" viewBox="0 0 370 150" fill="none" xmlns="http://www.w3.org/2000/svg">
<path d="M14.72 29.1081C12.1067 29.1081 9.70667 28.4948 7.52 27.2681C5.33333 26.0415 3.6 24.3481 2.32 22.1881C1.04 20.0015 0.4 17.5348 0.4 14.7881C0.4 12.0681 1.04 9.62812 2.32 7.46812C3.6 5.28146 5.33333 3.57479 7.52 2.34812C9.70667 1.12146 12.1067 0.508125 14.72 0.508125C17.36 0.508125 19.76 1.12146 21.92 2.34812C24.1067 3.57479 25.8267 5.28146 27.08 7.46812C28.36 9.62812 29 12.0681 29 14.7881C29 17.5348 28.36 20.0015 27.08 22.1881C25.8267 24.3481 24.1067 26.0415 21.92 27.2681C19.7333 28.4948 17.3333 29.1081 14.72 29.1081ZM14.72 24.1081C16.4 24.1081 17.88 23.7348 19.16 22.9881C20.44 22.2148 21.44 21.1215 22.16 19.7081C22.88 18.2948 23.24 16.6548 23.24 14.7881C23.24 12.9215 22.88 11.2948 22.16 9.90812C21.44 8.49479 20.44 7.41479 19.16 6.66812C17.88 5.92146 16.4 5.54812 14.72 5.54812C13.04 5.54812 11.5467 5.92146 10.24 6.66812C8.96 7.41479 7.96 8.49479 7.24 9.90812C6.52 11.2948 6.16 12.9215 6.16 14.7881C6.16 16.6548 6.52 18.2948 7.24 19.7081C7.96 21.1215 8.96 22.2148 10.24 22.9881C11.5467 23.7348 13.04 24.1081 14.72 24.1081ZM38.6863 0.908124V18.1881C38.6863 20.0815 39.1796 21.5348 40.1663 22.5481C41.1529 23.5348 42.5396 24.0281 44.3263 24.0281C46.1396 24.0281 47.5396 23.5348 48.5263 22.5481C49.5129 21.5348 50.0063 20.0815 50.0063 18.1881V0.908124H55.6463V18.1481C55.6463 20.5215 55.1263 22.5348 54.0863 24.1881C53.0729 25.8148 51.6996 27.0415 49.9663 27.8681C48.2596 28.6948 46.3529 29.1081 44.2463 29.1081C42.1663 29.1081 40.2729 28.6948 38.5663 27.8681C36.8863 27.0415 35.5529 25.8148 34.5663 24.1881C33.5796 22.5348 33.0863 20.5215 33.0863 18.1481V0.908124H38.6863ZM75.4569 28.8281L69.2969 17.9481H66.6569V28.8281H61.0569V0.908124H71.5369C73.6969 0.908124 75.5369 1.29479 77.0569 2.06812C78.5769 2.81479 79.7102 3.84146 80.4569 5.14812C81.2302 6.42812 81.6169 7.86812 81.6169 9.46812C81.6169 11.3081 81.0835 12.9748 80.0169 14.4681C78.9502 15.9348 77.3635 16.9481 75.2569 17.5081L81.9369 28.8281H75.4569ZM66.6569 13.7481H71.3369C72.8569 13.7481 73.9902 13.3881 74.7369 12.6681C75.4835 11.9215 75.8569 10.8948 75.8569 9.58812C75.8569 8.30812 75.4835 7.32146 74.7369 6.62812C73.9902 5.90812 72.8569 5.54812 71.3369 5.54812H66.6569V13.7481ZM133.533 0.908124L125.733 28.8281H119.133L113.893 8.94812L108.413 28.8281L101.853 28.8681L94.3331 0.908124H100.333L105.253 22.5881L110.933 0.908124H117.173L122.533 22.4681L127.493 0.908124H133.533ZM150.15 29.1081C147.536 29.1081 145.136 28.4948 142.95 27.2681C140.763 26.0415 139.03 24.3481 137.75 22.1881C136.47 20.0015 135.83 17.5348 135.83 14.7881C135.83 12.0681 136.47 9.62812 137.75 7.46812C139.03 5.28146 140.763 3.57479 142.95 2.34812C145.136 1.12146 147.536 0.508125 150.15 0.508125C152.79 0.508125 155.19 1.12146 157.35 2.34812C159.536 3.57479 161.256 5.28146 162.51 7.46812C163.79 9.62812 164.43 12.0681 164.43 14.7881C164.43 17.5348 163.79 20.0015 162.51 22.1881C161.256 24.3481 159.536 26.0415 157.35 27.2681C155.163 28.4948 152.763 29.1081 150.15 29.1081ZM150.15 24.1081C151.83 24.1081 153.31 23.7348 154.59 22.9881C155.87 22.2148 156.87 21.1215 157.59 19.7081C158.31 18.2948 158.67 16.6548 158.67 14.7881C158.67 12.9215 158.31 11.2948 157.59 9.90812C156.87 8.49479 155.87 7.41479 154.59 6.66812C153.31 5.92146 151.83 5.54812 150.15 5.54812C148.47 5.54812 146.976 5.92146 145.67 6.66812C144.39 7.41479 143.39 8.49479 142.67 9.90812C141.95 11.2948 141.59 12.9215 141.59 14.7881C141.59 16.6548 141.95 18.2948 142.67 19.7081C143.39 21.1215 144.39 22.2148 145.67 22.9881C146.976 23.7348 148.47 24.1081 150.15 24.1081ZM182.996 28.8281L176.836 17.9481H174.196V28.8281H168.596V0.908124H179.076C181.236 0.908124 183.076 1.29479 184.596 2.06812C186.116 2.81479 187.249 3.84146 187.996 5.14812C188.769 6.42812 189.156 7.86812 189.156 9.46812C189.156 11.3081 188.623 12.9748 187.556 14.4681C186.489 15.9348 184.903 16.9481 182.796 17.5081L189.476 28.8281H182.996ZM174.196 13.7481H178.876C180.396 13.7481 181.529 13.3881 182.276 12.6681C183.023 11.9215 183.396 10.8948 183.396 9.58812C183.396 8.30812 183.023 7.32146 182.276 6.62812C181.529 5.90812 180.396 5.54812 178.876 5.54812H174.196V13.7481ZM209.981 28.8281L199.821 16.3881V28.8281H194.221V0.908124H199.821V13.4281L209.981 0.908124H216.741L205.221 14.7481L217.061 28.8281H209.981ZM22.12 69.5481C22.12 71.0415 21.76 72.4415 21.04 73.7481C20.3467 75.0548 19.24 76.1081 17.72 76.9081C16.2267 77.7081 14.3333 78.1081 12.04 78.1081H7.36V88.8281H1.76V60.9081H12.04C14.2 60.9081 16.04 61.2815 17.56 62.0281C19.08 62.7748 20.2133 63.8015 20.96 65.1081C21.7333 66.4148 22.12 67.8948 22.12 69.5481ZM11.8 73.5881C13.3467 73.5881 14.4933 73.2415 15.24 72.5481C15.9867 71.8281 16.36 70.8281 16.36 69.5481C16.36 66.8281 14.84 65.4681 11.8 65.4681H7.36V73.5881H11.8ZM40.4959 88.8281L34.3359 77.9481H31.6959V88.8281H26.0959V60.9081H36.5759C38.7359 60.9081 40.5759 61.2948 42.0959 62.0681C43.6159 62.8148 44.7493 63.8415 45.4959 65.1481C46.2693 66.4281 46.6559 67.8681 46.6559 69.4681C46.6559 71.3081 46.1226 72.9748 45.0559 74.4681C43.9893 75.9348 42.4026 76.9481 40.2959 77.5081L46.9759 88.8281H40.4959ZM31.6959 73.7481H36.3759C37.8959 73.7481 39.0293 73.3881 39.7759 72.6681C40.5226 71.9215 40.8959 70.8948 40.8959 69.5881C40.8959 68.3081 40.5226 67.3215 39.7759 66.6281C39.0293 65.9081 37.8959 65.5481 36.3759 65.5481H31.6959V73.7481ZM64.6809 89.1081C62.0676 89.1081 59.6676 88.4948 57.4809 87.2681C55.2943 86.0415 53.5609 84.3481 52.2809 82.1881C51.0009 80.0015 50.3609 77.5348 50.3609 74.7881C50.3609 72.0681 51.0009 69.6281 52.2809 67.4681C53.5609 65.2815 55.2943 63.5748 57.4809 62.3481C59.6676 61.1215 62.0676 60.5081 64.6809 60.5081C67.3209 60.5081 69.7209 61.1215 71.8809 62.3481C74.0676 63.5748 75.7876 65.2815 77.0409 67.4681C78.3209 69.6281 78.9609 72.0681 78.9609 74.7881C78.9609 77.5348 78.3209 80.0015 77.0409 82.1881C75.7876 84.3481 74.0676 86.0415 71.8809 87.2681C69.6943 88.4948 67.2943 89.1081 64.6809 89.1081ZM64.6809 84.1081C66.3609 84.1081 67.8409 83.7348 69.1209 82.9881C70.4009 82.2148 71.4009 81.1215 72.1209 79.7081C72.8409 78.2948 73.2009 76.6548 73.2009 74.7881C73.2009 72.9215 72.8409 71.2948 72.1209 69.9081C71.4009 68.4948 70.4009 67.4148 69.1209 66.6681C67.8409 65.9215 66.3609 65.5481 64.6809 65.5481C63.0009 65.5481 61.5076 65.9215 60.2009 66.6681C58.9209 67.4148 57.9209 68.4948 57.2009 69.9081C56.4809 71.2948 56.1209 72.9215 56.1209 74.7881C56.1209 76.6548 56.4809 78.2948 57.2009 79.7081C57.9209 81.1215 58.9209 82.2148 60.2009 82.9881C61.5076 83.7348 63.0009 84.1081 64.6809 84.1081ZM81.7672 74.8281C81.7672 72.0815 82.3805 69.6281 83.6072 67.4681C84.8605 65.2815 86.5539 63.5881 88.6872 62.3881C90.8472 61.1615 93.2605 60.5481 95.9272 60.5481C99.0472 60.5481 101.781 61.3481 104.127 62.9481C106.474 64.5481 108.114 66.7615 109.047 69.5881H102.607C101.967 68.2548 101.061 67.2548 99.8872 66.5881C98.7405 65.9215 97.4072 65.5881 95.8872 65.5881C94.2605 65.5881 92.8072 65.9748 91.5272 66.7481C90.2739 67.4948 89.2872 68.5615 88.5672 69.9481C87.8739 71.3348 87.5272 72.9615 87.5272 74.8281C87.5272 76.6681 87.8739 78.2948 88.5672 79.7081C89.2872 81.0948 90.2739 82.1748 91.5272 82.9481C92.8072 83.6948 94.2605 84.0681 95.8872 84.0681C97.4072 84.0681 98.7405 83.7348 99.8872 83.0681C101.061 82.3748 101.967 81.3615 102.607 80.0281H109.047C108.114 82.8815 106.474 85.1081 104.127 86.7081C101.807 88.2815 99.0739 89.0681 95.9272 89.0681C93.2605 89.0681 90.8472 88.4681 88.6872 87.2681C86.5539 86.0415 84.8605 84.3481 83.6072 82.1881C82.3805 80.0281 81.7672 77.5748 81.7672 74.8281ZM119.43 65.4281V72.4281H128.83V76.8681H119.43V84.2681H130.03V88.8281H113.83V60.8681H130.03V65.4281H119.43ZM144.759 89.1081C142.813 89.1081 141.053 88.7748 139.479 88.1081C137.933 87.4415 136.706 86.4815 135.799 85.2281C134.893 83.9748 134.426 82.4948 134.399 80.7881H140.399C140.479 81.9348 140.879 82.8415 141.599 83.5081C142.346 84.1748 143.359 84.5081 144.639 84.5081C145.946 84.5081 146.973 84.2015 147.719 83.5881C148.466 82.9481 148.839 82.1215 148.839 81.1081C148.839 80.2815 148.586 79.6015 148.079 79.0681C147.573 78.5348 146.933 78.1215 146.159 77.8281C145.413 77.5081 144.373 77.1615 143.039 76.7881C141.226 76.2548 139.746 75.7348 138.599 75.2281C137.479 74.6948 136.506 73.9081 135.679 72.8681C134.879 71.8015 134.479 70.3881 134.479 68.6281C134.479 66.9748 134.893 65.5348 135.719 64.3081C136.546 63.0815 137.706 62.1481 139.199 61.5081C140.693 60.8415 142.399 60.5081 144.319 60.5081C147.199 60.5081 149.533 61.2148 151.319 62.6281C153.133 64.0148 154.133 65.9615 154.319 68.4681H148.159C148.106 67.5081 147.693 66.7215 146.919 66.1081C146.173 65.4681 145.173 65.1481 143.919 65.1481C142.826 65.1481 141.946 65.4281 141.279 65.9881C140.639 66.5481 140.319 67.3615 140.319 68.4281C140.319 69.1748 140.559 69.8015 141.039 70.3081C141.546 70.7881 142.159 71.1881 142.879 71.5081C143.626 71.8015 144.666 72.1481 145.999 72.5481C147.813 73.0815 149.293 73.6148 150.439 74.1481C151.586 74.6815 152.573 75.4815 153.399 76.5481C154.226 77.6148 154.639 79.0148 154.639 80.7481C154.639 82.2415 154.253 83.6281 153.479 84.9081C152.706 86.1881 151.573 87.2148 150.079 87.9881C148.586 88.7348 146.813 89.1081 144.759 89.1081ZM169.134 89.1081C167.188 89.1081 165.428 88.7748 163.854 88.1081C162.308 87.4415 161.081 86.4815 160.174 85.2281C159.268 83.9748 158.801 82.4948 158.774 80.7881H164.774C164.854 81.9348 165.254 82.8415 165.974 83.5081C166.721 84.1748 167.734 84.5081 169.014 84.5081C170.321 84.5081 171.348 84.2015 172.094 83.5881C172.841 82.9481 173.214 82.1215 173.214 81.1081C173.214 80.2815 172.961 79.6015 172.454 79.0681C171.948 78.5348 171.308 78.1215 170.534 77.8281C169.788 77.5081 168.748 77.1615 167.414 76.7881C165.601 76.2548 164.121 75.7348 162.974 75.2281C161.854 74.6948 160.881 73.9081 160.054 72.8681C159.254 71.8015 158.854 70.3881 158.854 68.6281C158.854 66.9748 159.268 65.5348 160.094 64.3081C160.921 63.0815 162.081 62.1481 163.574 61.5081C165.068 60.8415 166.774 60.5081 168.694 60.5081C171.574 60.5081 173.908 61.2148 175.694 62.6281C177.508 64.0148 178.508 65.9615 178.694 68.4681H172.534C172.481 67.5081 172.068 66.7215 171.294 66.1081C170.548 65.4681 169.548 65.1481 168.294 65.1481C167.201 65.1481 166.321 65.4281 165.654 65.9881C165.014 66.5481 164.694 67.3615 164.694 68.4281C164.694 69.1748 164.934 69.8015 165.414 70.3081C165.921 70.7881 166.534 71.1881 167.254 71.5081C168.001 71.8015 169.041 72.1481 170.374 72.5481C172.188 73.0815 173.668 73.6148 174.814 74.1481C175.961 74.6815 176.948 75.4815 177.774 76.5481C178.601 77.6148 179.014 79.0148 179.014 80.7481C179.014 82.2415 178.628 83.6281 177.854 84.9081C177.081 86.1881 175.948 87.2148 174.454 87.9881C172.961 88.7348 171.188 89.1081 169.134 89.1081ZM212.401 60.9081V65.4281H204.961V88.8281H199.361V65.4281H191.921V60.9081H212.401ZM239.647 60.9081V88.8281H234.047V76.9481H222.087V88.8281H216.487V60.9081H222.087V72.3881H234.047V60.9081H239.647ZM262.278 83.5081H251.158L249.318 88.8281H243.438L253.478 60.8681H259.998L270.038 88.8281H264.118L262.278 83.5081ZM260.758 79.0281L256.718 67.3481L252.678 79.0281H260.758ZM292.791 60.9081V65.4281H285.351V88.8281H279.751V65.4281H272.311V60.9081H292.791Z" fill="white"/>
<path d="M17.52 148.828L7.36 136.388V148.828H1.76V120.908H7.36V133.428L17.52 120.908H24.28L12.76 134.748L24.6 148.828H17.52ZM33.8834 125.428V132.428H43.2834V136.868H33.8834V144.268H44.4834V148.828H28.2834V120.868H44.4834V125.428H33.8834ZM55.1725 125.428V132.428H64.5725V136.868H55.1725V144.268H65.7725V148.828H49.5725V120.868H65.7725V125.428H55.1725ZM91.2216 129.548C91.2216 131.041 90.8616 132.441 90.1416 133.748C89.4482 135.055 88.3416 136.108 86.8216 136.908C85.3282 137.708 83.4349 138.108 81.1416 138.108H76.4616V148.828H70.8616V120.908H81.1416C83.3016 120.908 85.1416 121.281 86.6616 122.028C88.1816 122.775 89.3149 123.801 90.0616 125.108C90.8349 126.415 91.2216 127.895 91.2216 129.548ZM80.9016 133.588C82.4482 133.588 83.5949 133.241 84.3416 132.548C85.0882 131.828 85.4616 130.828 85.4616 129.548C85.4616 126.828 83.9416 125.468 80.9016 125.468H76.4616V133.588H80.9016ZM100.798 120.908V148.828H95.1975V120.908H100.798ZM130.21 148.828H124.61L111.93 129.668V148.828H106.33V120.868H111.93L124.61 140.068V120.868H130.21V148.828ZM155.184 129.308C154.544 128.135 153.664 127.241 152.544 126.628C151.424 126.015 150.118 125.708 148.624 125.708C146.971 125.708 145.504 126.081 144.224 126.828C142.944 127.575 141.944 128.641 141.224 130.028C140.504 131.415 140.144 133.015 140.144 134.828C140.144 136.695 140.504 138.321 141.224 139.708C141.971 141.095 142.998 142.161 144.304 142.908C145.611 143.655 147.131 144.028 148.864 144.028C150.998 144.028 152.744 143.468 154.104 142.348C155.464 141.201 156.358 139.615 156.784 137.588H147.184V133.308H162.304V138.188C161.931 140.135 161.131 141.935 159.904 143.588C158.678 145.241 157.091 146.575 155.144 147.588C153.224 148.575 151.064 149.068 148.664 149.068C145.971 149.068 143.531 148.468 141.344 147.268C139.184 146.041 137.478 144.348 136.224 142.188C134.998 140.028 134.384 137.575 134.384 134.828C134.384 132.081 134.998 129.628 136.224 127.468C137.478 125.281 139.184 123.588 141.344 122.388C143.531 121.161 145.958 120.548 148.624 120.548C151.771 120.548 154.504 121.321 156.824 122.868C159.144 124.388 160.744 126.535 161.624 129.308H155.184ZM181.499 120.908V138.188C181.499 140.081 181.992 141.535 182.979 142.548C183.965 143.535 185.352 144.028 187.139 144.028C188.952 144.028 190.352 143.535 191.339 142.548C192.325 141.535 192.819 140.081 192.819 138.188V120.908H198.459V138.148C198.459 140.521 197.939 142.535 196.899 144.188C195.885 145.815 194.512 147.041 192.779 147.868C191.072 148.695 189.165 149.108 187.059 149.108C184.979 149.108 183.085 148.695 181.379 147.868C179.699 147.041 178.365 145.815 177.379 144.188C176.392 142.535 175.899 140.521 175.899 138.148V120.908H181.499ZM213.509 149.108C211.563 149.108 209.803 148.775 208.229 148.108C206.683 147.441 205.456 146.481 204.549 145.228C203.643 143.975 203.176 142.495 203.149 140.788H209.149C209.229 141.935 209.629 142.841 210.349 143.508C211.096 144.175 212.109 144.508 213.389 144.508C214.696 144.508 215.723 144.201 216.469 143.588C217.216 142.948 217.589 142.121 217.589 141.108C217.589 140.281 217.336 139.601 216.829 139.068C216.323 138.535 215.683 138.121 214.909 137.828C214.163 137.508 213.123 137.161 211.789 136.788C209.976 136.255 208.496 135.735 207.349 135.228C206.229 134.695 205.256 133.908 204.429 132.868C203.629 131.801 203.229 130.388 203.229 128.628C203.229 126.975 203.643 125.535 204.469 124.308C205.296 123.081 206.456 122.148 207.949 121.508C209.443 120.841 211.149 120.508 213.069 120.508C215.949 120.508 218.283 121.215 220.069 122.628C221.883 124.015 222.883 125.961 223.069 128.468H216.909C216.856 127.508 216.443 126.721 215.669 126.108C214.923 125.468 213.923 125.148 212.669 125.148C211.576 125.148 210.696 125.428 210.029 125.988C209.389 126.548 209.069 127.361 209.069 128.428C209.069 129.175 209.309 129.801 209.789 130.308C210.296 130.788 210.909 131.188 211.629 131.508C212.376 131.801 213.416 132.148 214.749 132.548C216.563 133.081 218.043 133.615 219.189 134.148C220.336 134.681 221.323 135.481 222.149 136.548C222.976 137.615 223.389 139.015 223.389 140.748C223.389 142.241 223.003 143.628 222.229 144.908C221.456 146.188 220.323 147.215 218.829 147.988C217.336 148.735 215.563 149.108 213.509 149.108ZM254.896 143.508H243.776L241.936 148.828H236.056L246.096 120.868H252.616L262.656 148.828H256.736L254.896 143.508ZM253.376 139.028L249.336 127.348L245.296 139.028H253.376ZM289.568 120.908V148.828H283.968V136.948H272.008V148.828H266.408V120.908H272.008V132.388H283.968V120.908H289.568ZM300.68 125.428V132.428H310.08V136.868H300.68V144.268H311.28V148.828H295.08V120.868H311.28V125.428H300.68ZM333.489 143.508H322.369L320.529 148.828H314.649L324.689 120.868H331.209L341.249 148.828H335.329L333.489 143.508ZM331.969 139.028L327.929 127.348L323.889 139.028H331.969ZM354.762 120.908C357.696 120.908 360.269 121.481 362.482 122.628C364.722 123.775 366.442 125.415 367.642 127.548C368.869 129.655 369.482 132.108 369.482 134.908C369.482 137.708 368.869 140.161 367.642 142.268C366.442 144.348 364.722 145.961 362.482 147.108C360.269 148.255 357.696 148.828 354.762 148.828H345.002V120.908H354.762ZM354.562 144.068C357.496 144.068 359.762 143.268 361.362 141.668C362.962 140.068 363.762 137.815 363.762 134.908C363.762 132.001 362.962 129.735 361.362 128.108C359.762 126.455 357.496 125.628 354.562 125.628H350.602V144.068H354.562Z" fill="url(#paint0_linear_1212_4399)"/>
<defs>
<linearGradient id="paint0_linear_1212_4399" x1="102.5" y1="28.8281" x2="385.5" y2="172.828" gradientUnits="userSpaceOnUse">
<stop stop-color="#FF6700"/>
<stop offset="1" stop-color="#EDBA5A"/>
</linearGradient>
</defs>
</svg>
