<svg xmlns="http://www.w3.org/2000/svg" width="370" height="150" fill="none" viewBox="0 0 370 150"><path fill="#fff" d="M14.72 29.108q-3.92 0-7.2-1.84a13.8 13.8 0 0 1-5.2-5.08Q.4 18.908.4 14.788q0-4.08 1.92-7.32 1.92-3.28 5.2-5.12t7.2-1.84q3.96 0 7.2 1.84a13.4 13.4 0 0 1 5.16 5.12q1.92 3.24 1.92 7.32 0 4.12-1.92 7.4a13.5 13.5 0 0 1-5.16 5.08q-3.28 1.84-7.2 1.84m0-5q2.52 0 4.44-1.12 1.92-1.16 3-3.28t1.08-4.92-1.08-4.88q-1.08-2.12-3-3.24t-4.44-1.12-4.48 1.12q-1.92 1.12-3 3.24-1.08 2.08-1.08 4.88t1.08 4.92 3 3.28q1.96 1.12 4.48 1.12M38.686.908v17.28q0 2.84 1.48 4.36 1.48 1.48 4.16 1.48 2.721 0 4.2-1.48 1.48-1.52 1.48-4.36V.908h5.64v17.24q0 3.56-1.56 6.04a9.65 9.65 0 0 1-4.12 3.68q-2.56 1.24-5.72 1.24-3.12 0-5.68-1.24-2.52-1.24-4-3.68-1.48-2.48-1.48-6.04V.908zm36.77 27.92-6.16-10.88h-2.64v10.88h-5.6V.908h10.48q3.24 0 5.52 1.16 2.28 1.12 3.4 3.08 1.16 1.92 1.16 4.32.001 2.76-1.6 5-1.6 2.2-4.76 3.04l6.68 11.32zm-8.8-15.08h4.68q2.28 0 3.4-1.08 1.121-1.12 1.12-3.08.001-1.92-1.12-2.96-1.12-1.08-3.4-1.08h-4.68zM133.534.908l-7.8 27.92h-6.6l-5.24-19.88-5.48 19.88-6.56.04-7.52-27.96h6l4.92 21.68 5.68-21.68h6.24l5.36 21.56 4.96-21.56zm16.617 28.2q-3.921 0-7.2-1.84a13.8 13.8 0 0 1-5.2-5.08q-1.92-3.28-1.92-7.4 0-4.08 1.92-7.32 1.92-3.28 5.2-5.12 3.279-1.84 7.2-1.84 3.96 0 7.2 1.84a13.4 13.4 0 0 1 5.16 5.12q1.92 3.24 1.92 7.32 0 4.12-1.92 7.4a13.5 13.5 0 0 1-5.16 5.08q-3.28 1.84-7.2 1.84m0-5q2.52 0 4.44-1.12 1.92-1.16 3-3.28t1.08-4.92-1.08-4.88q-1.08-2.12-3-3.24t-4.44-1.12-4.48 1.12q-1.92 1.12-3 3.24-1.08 2.08-1.08 4.88t1.08 4.92 3 3.28q1.96 1.12 4.48 1.12m32.846 4.72-6.16-10.88h-2.64v10.88h-5.6V.908h10.48q3.24 0 5.52 1.16 2.28 1.12 3.4 3.08 1.16 1.92 1.16 4.32 0 2.76-1.6 5-1.6 2.2-4.76 3.04l6.68 11.32zm-8.8-15.08h4.68q2.28 0 3.4-1.08 1.12-1.12 1.12-3.08 0-1.92-1.12-2.96-1.12-1.08-3.4-1.08h-4.68zm35.785 15.08-10.16-12.44v12.44h-5.6V.908h5.6v12.52l10.16-12.52h6.76l-11.52 13.84 11.84 14.08zM22.12 69.548q0 2.24-1.08 4.2-1.04 1.96-3.32 3.16-2.24 1.2-5.68 1.2H7.36v10.72h-5.6v-27.92h10.28q3.24 0 5.52 1.12t3.4 3.08q1.16 1.96 1.16 4.44m-10.32 4.04q2.32 0 3.44-1.04 1.12-1.08 1.12-3 0-4.08-4.56-4.08H7.36v8.12zm28.696 15.24-6.16-10.88h-2.64v10.88h-5.6v-27.92h10.48q3.24 0 5.52 1.16 2.28 1.12 3.4 3.08 1.16 1.92 1.16 4.32a8.4 8.4 0 0 1-1.6 5q-1.6 2.2-4.76 3.04l6.68 11.32zm-8.8-15.08h4.68q2.28 0 3.4-1.08 1.12-1.12 1.12-3.08 0-1.92-1.12-2.96-1.12-1.08-3.4-1.08h-4.68zm32.985 15.36q-3.92 0-7.2-1.84a13.8 13.8 0 0 1-5.2-5.08q-1.92-3.28-1.92-7.4 0-4.08 1.92-7.32 1.92-3.28 5.2-5.12t7.2-1.84q3.96 0 7.2 1.84a13.4 13.4 0 0 1 5.16 5.12q1.92 3.24 1.92 7.32 0 4.12-1.92 7.4a13.5 13.5 0 0 1-5.16 5.08q-3.28 1.84-7.2 1.84m0-5q2.52 0 4.44-1.12 1.92-1.16 3-3.28t1.08-4.92-1.08-4.88q-1.08-2.12-3-3.24t-4.44-1.12-4.48 1.12q-1.92 1.12-3 3.24-1.08 2.08-1.08 4.88t1.08 4.92 3 3.28q1.96 1.12 4.48 1.12m17.086-9.28q0-4.12 1.84-7.36 1.88-3.28 5.08-5.08 3.24-1.84 7.24-1.84 4.68 0 8.2 2.4t4.92 6.64h-6.44q-.96-2-2.72-3-1.72-1-4-1-2.44 0-4.36 1.16-1.88 1.12-2.96 3.2-1.04 2.08-1.04 4.88 0 2.76 1.04 4.88 1.08 2.08 2.96 3.24 1.92 1.12 4.36 1.12 2.28 0 4-1 1.76-1.04 2.72-3.04h6.44q-1.4 4.28-4.92 6.68-3.48 2.36-8.2 2.36-4 0-7.24-1.8-3.2-1.84-5.08-5.08-1.84-3.24-1.84-7.36m37.663-9.4v7h9.4v4.44h-9.4v7.4h10.6v4.56h-16.2v-27.96h16.2v4.56zm25.329 23.68q-2.919 0-5.28-1-2.32-1-3.68-2.88t-1.4-4.44h6q.12 1.72 1.2 2.72 1.12 1 3.04 1 1.96 0 3.08-.92 1.12-.96 1.12-2.48 0-1.24-.76-2.04-.759-.8-1.92-1.24-1.119-.48-3.12-1.04-2.72-.8-4.44-1.56-1.68-.8-2.92-2.36-1.2-1.6-1.2-4.24 0-2.48 1.24-4.32t3.48-2.8q2.24-1 5.12-1 4.32 0 7 2.12 2.721 2.08 3 5.84h-6.16q-.08-1.44-1.24-2.36-1.119-.96-3-.96-1.64 0-2.64.84-.96.84-.96 2.44 0 1.12.72 1.88.76.72 1.84 1.2 1.12.44 3.12 1.04 2.721.8 4.44 1.6 1.72.801 2.96 2.4 1.24 1.6 1.24 4.2 0 2.24-1.16 4.16t-3.4 3.08q-2.24 1.12-5.32 1.12m24.375 0q-2.919 0-5.28-1-2.32-1-3.68-2.88t-1.4-4.44h6q.12 1.72 1.2 2.72 1.12 1 3.04 1 1.96 0 3.08-.92 1.12-.96 1.12-2.48 0-1.24-.76-2.04-.759-.8-1.92-1.24-1.119-.48-3.12-1.04-2.72-.8-4.44-1.56-1.68-.8-2.92-2.36-1.2-1.6-1.2-4.24 0-2.48 1.24-4.32t3.48-2.8q2.24-1 5.12-1 4.32 0 7 2.12 2.721 2.08 3 5.84h-6.16q-.08-1.44-1.24-2.36-1.119-.96-3-.96-1.64 0-2.64.84-.96.84-.96 2.44 0 1.12.72 1.88.76.72 1.84 1.2 1.12.44 3.12 1.04 2.721.8 4.44 1.6 1.72.801 2.96 2.4 1.24 1.6 1.24 4.2 0 2.24-1.16 4.16t-3.4 3.08q-2.24 1.12-5.32 1.12m43.267-28.2v4.52h-7.44v23.4h-5.6v-23.4h-7.44v-4.52zm27.246 0v27.92h-5.6v-11.88h-11.96v11.88h-5.6v-27.92h5.6v11.48h11.96v-11.48zm22.631 22.6h-11.12l-1.84 5.32h-5.88l10.04-27.96h6.52l10.04 27.96h-5.92zm-1.52-4.48-4.04-11.68-4.04 11.68zm32.033-18.12v4.52h-7.44v23.4h-5.6v-23.4h-7.44v-4.52z"/><path fill="url(#a)" d="m17.52 148.828-10.16-12.44v12.44h-5.6v-27.92h5.6v12.52l10.16-12.52h6.76l-11.52 13.84 11.84 14.08zm16.363-23.4v7h9.4v4.44h-9.4v7.4h10.6v4.56h-16.2v-27.96h16.2v4.56zm21.29 0v7h9.4v4.44h-9.4v7.4h10.6v4.56h-16.2v-27.96h16.2v4.56zm36.049 4.12a8.57 8.57 0 0 1-1.08 4.2q-1.04 1.96-3.32 3.16-2.24 1.2-5.68 1.2h-4.68v10.72h-5.6v-27.92h10.28q3.24 0 5.52 1.12t3.4 3.08q1.16 1.96 1.16 4.44m-10.32 4.04q2.32 0 3.44-1.04 1.12-1.08 1.12-3 0-4.08-4.56-4.08h-4.44v8.12zm19.896-12.68v27.92h-5.6v-27.92zm29.412 27.92h-5.6l-12.68-19.16v19.16h-5.6v-27.96h5.6l12.68 19.2v-19.2h5.6zm24.974-19.52q-.96-1.76-2.64-2.68t-3.92-.92q-2.48 0-4.4 1.12t-3 3.2-1.08 4.8q0 2.8 1.08 4.88 1.12 2.08 3.08 3.2t4.56 1.12q3.2 0 5.24-1.68 2.04-1.72 2.68-4.76h-9.6v-4.28h15.12v4.88q-.56 2.92-2.4 5.4t-4.76 4q-2.88 1.48-6.48 1.48-4.04 0-7.32-1.8a13.6 13.6 0 0 1-5.12-5.08q-1.84-3.24-1.84-7.36t1.84-7.36q1.88-3.28 5.12-5.08 3.28-1.84 7.28-1.84 4.72 0 8.2 2.32 3.48 2.28 4.8 6.44zm26.315-8.4v17.28q0 2.84 1.48 4.36 1.48 1.48 4.16 1.48 2.72 0 4.2-1.48 1.48-1.52 1.48-4.36v-17.28h5.64v17.24q0 3.56-1.56 6.04a9.66 9.66 0 0 1-4.12 3.68q-2.56 1.24-5.72 1.24-3.12 0-5.68-1.24-2.52-1.24-4-3.68-1.48-2.48-1.48-6.04v-17.24zm32.01 28.2q-2.919 0-5.28-1-2.32-1-3.68-2.88t-1.4-4.44h6q.12 1.72 1.2 2.72 1.12 1 3.04 1 1.96 0 3.08-.92 1.12-.96 1.12-2.48 0-1.24-.76-2.04-.759-.8-1.92-1.24-1.119-.48-3.12-1.04-2.72-.8-4.44-1.56-1.68-.8-2.92-2.36-1.2-1.6-1.2-4.24 0-2.48 1.24-4.32t3.48-2.8q2.24-1 5.12-1 4.32 0 7 2.12 2.721 2.08 3 5.84h-6.16q-.08-1.44-1.24-2.36-1.119-.96-3-.96-1.64 0-2.64.84-.96.84-.96 2.44 0 1.12.72 1.88.76.72 1.84 1.2 1.12.44 3.12 1.04 2.721.8 4.44 1.6t2.96 2.4q1.24 1.6 1.24 4.2 0 2.24-1.16 4.16t-3.4 3.08q-2.24 1.12-5.32 1.12m41.387-5.6h-11.12l-1.84 5.32h-5.88l10.04-27.96h6.52l10.04 27.96h-5.92zm-1.52-4.48-4.04-11.68-4.04 11.68zm36.192-18.12v27.92h-5.6v-11.88h-11.96v11.88h-5.6v-27.92h5.6v11.48h11.96v-11.48zm11.112 4.52v7h9.4v4.44h-9.4v7.4h10.6v4.56h-16.2v-27.96h16.2v4.56zm32.809 18.08h-11.12l-1.84 5.32h-5.88l10.04-27.96h6.52l10.04 27.96h-5.92zm-1.52-4.48-4.04-11.68-4.04 11.68zm22.793-18.12q4.4 0 7.72 1.72 3.36 1.72 5.16 4.92 1.84 3.16 1.84 7.36t-1.84 7.36q-1.8 3.12-5.16 4.84-3.32 1.72-7.72 1.72h-9.76v-27.92zm-.2 23.16q4.4 0 6.8-2.4t2.4-6.76-2.4-6.8q-2.4-2.48-6.8-2.48h-3.96v18.44z"/><defs><linearGradient id="a" x1="102.5" x2="385.5" y1="28.828" y2="172.828" gradientUnits="userSpaceOnUse"><stop stop-color="#ff6700"/><stop offset="1" stop-color="#edba5a"/></linearGradient></defs></svg>