<svg xmlns="http://www.w3.org/2000/svg" width="32" height="33" fill="none" viewBox="0 0 32 33">
  <path fill="#EDBA5A" d="M24 24.828a2 2 0 0 0 2-2v-4.884a2 2 0 0 0-2-2h-2.776c0-.703.042-1.405.124-2.108a6.98 6.98 0 0 1 .62-1.984c.29-.579.662-1.034 1.118-1.366.454-.372 1.032-.558 1.736-.558v-3.1c-1.157 0-2.17.248-3.04.744a6.599 6.599 0 0 0-2.17 1.984 9.8 9.8 0 0 0-1.24 2.916A15.392 15.392 0 0 0 18 15.944v6.884a2 2 0 0 0 2 2h4Zm-12 0a2 2 0 0 0 2-2v-4.884a2 2 0 0 0-2-2H9.224c0-.703.042-1.405.124-2.108a7.068 7.068 0 0 1 .62-1.984c.29-.579.662-1.034 1.118-1.366.454-.372 1.032-.558 1.736-.558v-3.1c-1.157 0-2.17.248-3.04.744a6.6 6.6 0 0 0-2.17 1.984 9.8 9.8 0 0 0-1.24 2.916A15.4 15.4 0 0 0 6 15.944v6.884a2 2 0 0 0 2 2h4Z"/>
</svg>
