<svg xmlns="http://www.w3.org/2000/svg" width="32" height="33" fill="none" viewBox="0 0 32 33"><path fill="#0ab7a8" d="M24 24.828a2 2 0 0 0 2-2v-4.884a2 2 0 0 0-2-2h-2.776q0-1.054.124-2.108a7 7 0 0 1 .62-1.984q.434-.868 1.118-1.366.68-.558 1.736-.558v-3.1q-1.735 0-3.04.744a6.6 6.6 0 0 0-2.17 1.984 9.8 9.8 0 0 0-1.24 2.916A15.4 15.4 0 0 0 18 15.944v6.884a2 2 0 0 0 2 2zm-12 0a2 2 0 0 0 2-2v-4.884a2 2 0 0 0-2-2H9.224q0-1.054.124-2.108a7 7 0 0 1 .62-1.984q.434-.868 1.118-1.366.68-.558 1.736-.558v-3.1q-1.735 0-3.04.744a6.6 6.6 0 0 0-2.17 1.984 9.8 9.8 0 0 0-1.24 2.916A15.4 15.4 0 0 0 6 15.944v6.884a2 2 0 0 0 2 2z"/></svg>