<svg xmlns="http://www.w3.org/2000/svg" width="418" height="569" fill="none" viewBox="0 0 418 569"><g stroke-width=".701" filter="url(#a)" opacity=".7" style="mix-blend-mode:plus-lighter"><path stroke="url(#b)" d="M374.838 456.288c76.749-74.004 180.84-144.827 117.031-251.448-141.135-235.831-353.471-83.648-296.043-22.064 106.734 114.457 26.918 81.055-3.452 234.087s86.526 131.93 182.464 39.425Z"/><path stroke="url(#c)" d="M374.838 456.288c76.749-74.004 180.84-144.827 117.031-251.448-141.135-235.831-353.471-83.648-296.043-22.064 106.734 114.457 26.918 81.055-3.452 234.087s86.526 131.93 182.464 39.425Z"/><path stroke="url(#d)" d="M370.462 449.41c76.195-71.186 179.077-138.841 118.321-244.09-134.384-232.797-344.374-87.249-289.163-26.14 102.611 113.574 25.074 79.68-6.983 228.863s82.582 130.349 177.825 41.367Z"/><path stroke="url(#e)" d="M370.462 449.41c76.195-71.186 179.077-138.841 118.321-244.09-134.384-232.797-344.374-87.249-289.163-26.14 102.611 113.574 25.074 79.68-6.983 228.863s82.582 130.349 177.825 41.367Z"/><path stroke="url(#f)" d="M366.254 442.627c75.57-68.405 177.171-132.946 119.408-236.755-127.763-229.61-335.252-90.584-282.23-30.004 98.545 112.59 23.281 78.266-10.35 223.586s78.709 128.678 173.172 43.173Z"/><path stroke="url(#g)" d="M366.254 442.627c75.57-68.405 177.171-132.946 119.408-236.755-127.763-229.61-335.252-90.584-282.23-30.004 98.545 112.59 23.281 78.266-10.35 223.586s78.709 128.678 173.172 43.173Z"/><path stroke="url(#h)" d="M362.216 435.947c74.877-65.66 175.124-127.146 120.294-229.446-121.278-226.274-326.114-93.655-275.249-33.658 94.536 111.507 21.539 76.817-13.552 218.262s74.91 126.918 168.507 44.842Z"/><path stroke="url(#i)" d="M362.216 435.947c74.877-65.66 175.124-127.146 120.294-229.446-121.278-226.274-326.114-93.655-275.249-33.658 94.536 111.507 21.539 76.817-13.552 218.262s74.91 126.918 168.507 44.842Z"/><path stroke="url(#j)" d="M358.349 429.364c74.118-62.956 172.94-121.446 120.98-222.172-114.929-222.79-316.963-96.459-268.223-37.098 90.585 110.326 19.847 75.333-16.59 212.894s71.187 125.071 163.833 46.376Z"/><path stroke="url(#k)" d="M358.349 429.364c74.118-62.956 172.94-121.446 120.98-222.172-114.929-222.79-316.963-96.459-268.223-37.098 90.585 110.326 19.847 75.333-16.59 212.894s71.187 125.071 163.833 46.376Z"/><path stroke="url(#l)" d="M354.637 422.882c73.291-60.292 170.621-115.846 121.467-214.932-108.722-219.166-307.807-99.001-261.16-40.326 86.696 109.048 18.209 73.814-19.461 207.485s67.54 123.138 159.154 47.773Z"/><path stroke="url(#m)" d="M354.637 422.882c73.291-60.292 170.621-115.846 121.467-214.932-108.722-219.166-307.807-99.001-261.16-40.326 86.696 109.048 18.209 73.814-19.461 207.485s67.54 123.138 159.154 47.773Z"/><path stroke="url(#n)" d="M351.093 416.505c72.4-57.67 168.169-110.35 121.756-207.735C370.192-6.632 174.198 107.493 218.787 165.429c82.87 107.677 16.622 72.264-22.167 202.041s63.973 121.122 154.473 49.035Z"/><path stroke="url(#o)" d="M351.093 416.505c72.4-57.67 168.169-110.35 121.756-207.735C370.192-6.632 174.198 107.493 218.787 165.429c82.87 107.677 16.622 72.264-22.167 202.041s63.973 121.122 154.473 49.035Z"/><path stroke="url(#p)" d="M347.7 410.243c71.444-55.091 165.588-104.96 121.851-200.582-96.74-211.502-289.503-103.29-246.938-46.142 79.11 106.212 15.091 70.682-24.705 196.563s60.487 119.026 149.792 50.161Z"/><path stroke="url(#q)" d="M347.7 410.243c71.444-55.091 165.588-104.96 121.851-200.582-96.74-211.502-289.503-103.29-246.938-46.142 79.11 106.212 15.091 70.682-24.705 196.563s60.487 119.026 149.792 50.161Z"/><path stroke="url(#r)" d="M344.466 404.103c70.426-52.558 162.879-99.681 121.75-193.48-90.971-207.471-280.366-105.041-239.788-48.73 75.416 104.657 13.612 69.07-27.078 191.057s57.083 116.85 145.116 51.153Z"/><path stroke="url(#s)" d="M344.466 404.103c70.426-52.558 162.879-99.681 121.75-193.48-90.971-207.471-280.366-105.041-239.788-48.73 75.416 104.657 13.612 69.07-27.078 191.057s57.083 116.85 145.116 51.153Z"/><path stroke="url(#t)" d="M341.382 398.064c69.346-50.07 160.046-94.513 121.457-186.433-85.354-203.312-271.249-106.53-232.621-51.104 71.793 103.012 12.189 67.43-29.282 185.527-41.47 118.097 53.763 114.597 140.446 52.01Z"/><path stroke="url(#u)" d="M341.382 398.064c69.346-50.07 160.046-94.513 121.457-186.433-85.354-203.312-271.249-106.53-232.621-51.104 71.793 103.012 12.189 67.43-29.282 185.527-41.47 118.097 53.763 114.597 140.446 52.01Z"/><path stroke="url(#v)" d="M338.447 392.158c68.206-47.629 157.092-89.46 120.973-179.443-79.891-199.029-262.155-107.758-225.439-53.264 68.239 101.279 10.82 65.762-31.319 179.975s50.528 112.27 135.785 52.732Z"/><path stroke="url(#w)" d="M338.447 392.158c68.206-47.629 157.092-89.46 120.973-179.443-79.891-199.029-262.155-107.758-225.439-53.264 68.239 101.279 10.82 65.762-31.319 179.975s50.528 112.27 135.785 52.732Z"/><path stroke="url(#x)" d="M335.65 386.367c67.007-45.238 154.02-84.524 120.299-172.516-74.584-194.626-253.092-108.728-218.248-55.212 64.759 99.461 9.507 64.068-33.189 174.407-42.696 110.338 47.38 109.869 131.138 53.321Z"/><path stroke="url(#y)" d="M335.65 386.367c67.007-45.238 154.02-84.524 120.299-172.516-74.584-194.626-253.092-108.728-218.248-55.212 64.759 99.461 9.507 64.068-33.189 174.407-42.696 110.338 47.38 109.869 131.138 53.321Z"/><path stroke="url(#z)" d="M333.01 380.71c65.749-42.897 150.832-79.708 119.438-165.657-69.438-190.106-244.066-109.439-211.054-56.947 61.353 97.559 8.251 62.35-34.891 168.826-43.142 106.475 44.321 107.399 126.507 53.778Z"/><path stroke="url(#A)" d="M333.01 380.71c65.749-42.897 150.832-79.708 119.438-165.657-69.438-190.106-244.066-109.439-211.054-56.947 61.353 97.559 8.251 62.35-34.891 168.826-43.142 106.475 44.321 107.399 126.507 53.778Z"/><path stroke="url(#B)" d="M330.503 375.184c64.435-40.606 147.531-75.014 118.392-158.868-64.453-185.474-235.082-109.894-203.862-58.469 58.025 95.575 7.051 60.609-36.426 163.235s41.352 104.86 121.896 54.102Z"/><path stroke="url(#C)" d="M330.503 375.184c64.435-40.606 147.531-75.014 118.392-158.868-64.453-185.474-235.082-109.894-203.862-58.469 58.025 95.575 7.051 60.609-36.426 163.235s41.352 104.86 121.896 54.102Z"/><path stroke="url(#D)" d="M328.124 369.779c63.065-38.368 144.121-70.444 117.161-152.155-59.63-180.733-226.145-110.093-196.674-59.779 54.774 93.512 5.908 58.846-37.794 157.64s38.475 102.255 117.307 54.294Z"/><path stroke="url(#E)" d="M328.124 369.779c63.065-38.368 144.121-70.444 117.161-152.155-59.63-180.733-226.145-110.093-196.674-59.779 54.774 93.512 5.908 58.846-37.794 157.64s38.475 102.255 117.307 54.294Z"/><path stroke="url(#F)" d="M325.877 364.525c61.642-36.184 140.605-66.001 115.751-145.522-54.975-175.888-217.264-110.039-189.498-60.877 51.603 91.37 4.822 57.062-38.995 152.043s35.69 99.586 112.742 54.356Z"/><path stroke="url(#G)" d="M325.877 364.525c61.642-36.184 140.605-66.001 115.751-145.522-54.975-175.888-217.264-110.039-189.498-60.877 51.603 91.37 4.822 57.062-38.995 152.043s35.69 99.586 112.742 54.356Z"/><path stroke="url(#H)" d="M323.773 359.402c60.166-34.054 136.987-61.687 114.161-138.971-50.486-170.943-208.441-109.734-182.338-61.765 48.514 89.152 3.794 55.259-40.028 146.449-43.822 91.189 32.998 96.855 108.205 54.287Z"/><path stroke="url(#I)" d="M323.773 359.402c60.166-34.054 136.987-61.687 114.161-138.971-50.486-170.943-208.441-109.734-182.338-61.765 48.514 89.152 3.794 55.259-40.028 146.449-43.822 91.189 32.998 96.855 108.205 54.287Z"/><path stroke="url(#J)" d="M321.788 354.42c58.638-31.98 133.267-57.503 112.394-132.508-46.169-165.9-199.684-109.178-175.198-62.442 45.507 86.86 2.824 53.438-40.896 140.86s30.402 94.066 103.7 54.09Z"/><path stroke="url(#K)" d="M321.788 354.42c58.638-31.98 133.267-57.503 112.394-132.508-46.169-165.9-199.684-109.178-175.198-62.442 45.507 86.86 2.824 53.438-40.896 140.86s30.402 94.066 103.7 54.09Z"/><path stroke="url(#L)" d="M319.924 349.586c57.061-29.963 129.452-53.453 110.453-126.137-42.022-160.766-190.997-108.374-168.084-62.91 42.586 84.497 1.913 51.601-41.598 135.283s27.903 91.218 99.229 53.764Z"/><path stroke="url(#M)" d="M319.924 349.586c57.061-29.963 129.452-53.453 110.453-126.137-42.022-160.766-190.997-108.374-168.084-62.91 42.586 84.497 1.913 51.601-41.598 135.283s27.903 91.218 99.229 53.764Z"/><path stroke="url(#N)" d="M318.169 344.888c55.435-28.004 125.543-49.538 108.34-119.861-38.05-155.544-182.388-107.326-161-63.171 39.75 82.064 1.06 49.75-42.134 129.72s25.501 88.317 94.794 53.312Z"/><path stroke="url(#O)" d="M318.169 344.888c55.435-28.004 125.543-49.538 108.34-119.861-38.05-155.544-182.388-107.326-161-63.171 39.75 82.064 1.06 49.75-42.134 129.72s25.501 88.317 94.794 53.312Z"/><path stroke="url(#P)" d="M316.538 340.35c53.762-26.104 121.543-45.76 106.057-113.684-34.253-150.238-173.861-106.033-153.951-63.224 37.002 79.563.265 47.884-42.506 124.174s23.197 85.363 90.4 52.734Z"/><path stroke="url(#Q)" d="M316.538 340.35c53.762-26.104 121.543-45.76 106.057-113.684-34.253-150.238-173.861-106.033-153.951-63.224 37.002 79.563.265 47.884-42.506 124.174s23.197 85.363 90.4 52.734Z"/><path stroke="url(#R)" d="M315.012 335.956c52.043-24.264 117.458-42.12 103.608-107.61-30.632-144.852-165.421-104.499-146.942-63.071 34.344 76.997-.469 46.006-42.714 118.65s20.994 82.36 86.048 52.031Z"/><path stroke="url(#S)" d="M315.012 335.956c52.043-24.264 117.458-42.12 103.608-107.61-30.632-144.852-165.421-104.499-146.942-63.071 34.344 76.997-.469 46.006-42.714 118.65s20.994 82.36 86.048 52.031Z"/><path stroke="url(#T)" d="M313.601 331.716c50.281-22.484 113.289-38.621 100.995-101.641-27.19-139.391-157.074-102.727-139.977-62.714 31.776 74.367-1.146 44.117-42.759 113.151-41.614 69.035 18.89 79.31 81.741 51.204Z"/><path stroke="url(#U)" d="M313.601 331.716c50.281-22.484 113.289-38.621 100.995-101.641-27.19-139.391-157.074-102.727-139.977-62.714 31.776 74.367-1.146 44.117-42.759 113.151-41.614 69.035 18.89 79.31 81.741 51.204Z"/><path stroke="url(#V)" d="M312.289 327.64c48.476-20.767 109.04-35.265 98.221-95.784-23.929-133.86-148.827-100.719-133.062-62.153 29.299 71.676-1.762 42.219-42.642 107.682s16.889 76.213 77.483 50.255Z"/><path stroke="url(#W)" d="M312.289 327.64c48.476-20.767 109.04-35.265 98.221-95.784-23.929-133.86-148.827-100.719-133.062-62.153 29.299 71.676-1.762 42.219-42.642 107.682s16.889 76.213 77.483 50.255Z"/><path stroke="url(#X)" d="M311.079 323.712c46.629-19.112 104.714-32.052 95.288-90.04-20.85-128.261-140.683-98.477-126.201-61.391 26.915 68.927-2.319 40.313-42.363 102.246-40.045 61.932 14.989 73.075 73.276 49.185Z"/><path stroke="url(#Y)" d="M311.079 323.712c46.629-19.112 104.714-32.052 95.288-90.04-20.85-128.261-140.683-98.477-126.201-61.391 26.915 68.927-2.319 40.313-42.363 102.246-40.045 61.932 14.989 73.075 73.276 49.185Z"/><path stroke="url(#Z)" d="M309.968 319.948c44.743-17.52 100.315-28.984 92.199-84.413-17.951-122.6-132.648-96.006-119.397-60.429 24.626 66.121-2.816 38.4-41.925 96.846s13.194 69.897 69.123 47.996Z"/><path stroke="url(#aa)" d="M309.968 319.948c44.743-17.52 100.315-28.984 92.199-84.413-17.951-122.6-132.648-96.006-119.397-60.429 24.626 66.121-2.816 38.4-41.925 96.846s13.194 69.897 69.123 47.996Z"/><path stroke="url(#ab)" d="M308.935 316.342c42.819-15.993 95.848-26.064 88.959-78.907-15.238-116.881-124.728-93.306-112.658-59.268 22.432 63.26-3.254 36.482-41.327 91.487s11.502 66.68 65.026 46.688Z"/><path stroke="url(#ac)" d="M308.935 316.342c42.819-15.993 95.848-26.064 88.959-78.907-15.238-116.881-124.728-93.306-112.658-59.268 22.432 63.26-3.254 36.482-41.327 91.487s11.502 66.68 65.026 46.688Z"/><path stroke="url(#ad)" d="M307.998 312.905c40.859-14.532 91.314-23.292 85.568-73.525-12.708-111.108-116.926-90.382-105.985-57.911 20.335 60.348-3.632 34.561-40.571 86.172s9.915 63.429 60.988 45.264Z"/><path stroke="url(#ae)" d="M307.998 312.905c40.859-14.532 91.314-23.292 85.568-73.525-12.708-111.108-116.926-90.382-105.985-57.911 20.335 60.348-3.632 34.561-40.571 86.172s9.915 63.429 60.988 45.264Z"/><path stroke="url(#af)" d="M307.151 309.631c38.863-13.136 86.717-20.67 82.031-68.271-10.366-105.287-109.251-87.236-99.386-56.359 18.335 57.387-3.95 32.637-39.658 80.905s8.433 60.145 57.013 43.725Z"/><path stroke="url(#ag)" d="M307.151 309.631c38.863-13.136 86.717-20.67 82.031-68.271-10.366-105.287-109.251-87.236-99.386-56.359 18.335 57.387-3.95 32.637-39.658 80.905s8.433 60.145 57.013 43.725Z"/><path stroke="url(#ah)" d="M306.378 306.533c36.834-11.807 82.062-18.198 78.351-63.147-8.21-99.42-101.705-83.873-92.862-54.614 16.434 54.377-4.209 30.712-38.59 75.688s7.057 56.831 53.101 42.073Z"/><path stroke="url(#ai)" d="M306.378 306.533c36.834-11.807 82.062-18.198 78.351-63.147-8.21-99.42-101.705-83.873-92.862-54.614 16.434 54.377-4.209 30.712-38.59 75.688s7.057 56.831 53.101 42.073Z"/><path stroke="url(#aj)" d="M305.681 303.585c34.774-10.545 77.352-15.879 74.531-58.157-6.241-93.513-94.293-80.294-86.42-52.678 14.633 51.324-4.407 28.787-37.368 70.527s5.789 53.49 49.257 40.308Z"/><path stroke="url(#ak)" d="M305.681 303.585c34.774-10.545 77.352-15.879 74.531-58.157-6.241-93.513-94.293-80.294-86.42-52.678 14.633 51.324-4.407 28.787-37.368 70.527s5.789 53.49 49.257 40.308Z"/><path stroke="url(#al)" d="M305.064 300.819c32.684-9.352 72.591-13.713 70.574-53.304-4.46-87.571-87.021-76.504-80.063-50.554 12.932 48.227-4.547 26.864-35.993 65.424s4.627 50.123 45.482 38.434Z"/><path stroke="url(#am)" d="M305.064 300.819c32.684-9.352 72.591-13.713 70.574-53.304-4.46-87.571-87.021-76.504-80.063-50.554 12.932 48.227-4.547 26.864-35.993 65.424s4.627 50.123 45.482 38.434Z"/><path stroke="url(#an)" d="M304.498 298.233c30.565-8.227 67.782-11.701 66.485-48.592-2.869-81.596-79.894-72.505-73.796-48.243 11.332 45.091-4.627 24.945-34.469 60.383-29.841 35.439 3.574 46.735 41.78 36.452Z"/><path stroke="url(#ao)" d="M304.498 298.233c30.565-8.227 67.782-11.701 66.485-48.592-2.869-81.596-79.894-72.505-73.796-48.243 11.332 45.091-4.627 24.945-34.469 60.383-29.841 35.439 3.574 46.735 41.78 36.452Z"/><path stroke="url(#ap)" d="M304.013 295.818c28.42-7.171 62.928-9.844 62.265-44.022-1.467-75.595-72.914-68.302-67.623-45.748 9.835 41.917-4.647 23.03-32.793 55.408s2.627 43.325 38.151 34.362Z"/><path stroke="url(#aq)" d="M304.013 295.818c28.42-7.171 62.928-9.844 62.265-44.022-1.467-75.595-72.914-68.302-67.623-45.748 9.835 41.917-4.647 23.03-32.793 55.408s2.627 43.325 38.151 34.362Z"/><path stroke="url(#ar)" d="M303.579 293.564c26.249-6.185 58.035-8.143 57.919-39.597-.254-69.572-66.089-63.9-61.548-43.073 8.441 38.709-4.609 21.122-30.971 50.502s1.789 39.899 34.6 32.168Z"/><path stroke="url(#as)" d="M303.579 293.564c26.249-6.185 58.035-8.143 57.919-39.597-.254-69.572-66.089-63.9-61.548-43.073 8.441 38.709-4.609 21.122-30.971 50.502s1.789 39.899 34.6 32.168Z"/><path stroke="url(#at)" d="M303.198 291.494c24.055-5.269 53.104-6.6 53.45-35.323.767-63.531-59.423-59.3-55.576-40.216 7.151 35.467-4.511 19.219-29.003 45.667s1.061 36.458 31.129 29.872Z"/><path stroke="url(#au)" d="M303.198 291.494c24.055-5.269 53.104-6.6 53.45-35.323.767-63.531-59.423-59.3-55.576-40.216 7.151 35.467-4.511 19.219-29.003 45.667s1.061 36.458 31.129 29.872Z"/><path stroke="url(#av)" d="M302.874 289.606c21.839-4.424 48.14-5.213 48.863-31.199 1.599-57.476-52.919-54.507-49.71-37.184 5.964 32.195-4.356 17.327-26.891 40.909-22.536 23.582.44 33.005 27.738 27.474Z"/><path stroke="url(#aw)" d="M302.874 289.606c21.839-4.424 48.14-5.213 48.863-31.199 1.599-57.476-52.919-54.507-49.71-37.184 5.964 32.195-4.356 17.327-26.891 40.909-22.536 23.582.44 33.005 27.738 27.474Z"/><path stroke="url(#ax)" d="M302.597 287.892c19.602-3.651 43.147-3.985 44.159-27.229 2.24-51.413-46.582-49.526-43.955-33.979 4.884 28.896-4.141 15.444-24.637 36.229s-.071 29.543 24.433 24.979Z"/><path stroke="url(#ay)" d="M302.597 287.892c19.602-3.651 43.147-3.985 44.159-27.229 2.24-51.413-46.582-49.526-43.955-33.979 4.884 28.896-4.141 15.444-24.637 36.229s-.071 29.543 24.433 24.979Z"/><path stroke="url(#az)" d="M302.361 286.355c17.348-2.949 38.129-2.916 39.345-23.416 2.69-45.345-40.418-44.36-38.315-30.602 3.908 25.571-3.869 13.573-22.243 31.632-18.375 18.059-.472 26.072 21.213 22.386Z"/><path stroke="url(#aA)" d="M302.361 286.355c17.348-2.949 38.129-2.916 39.345-23.416 2.69-45.345-40.418-44.36-38.315-30.602 3.908 25.571-3.869 13.573-22.243 31.632-18.375 18.059-.472 26.072 21.213 22.386Z"/><path stroke="url(#aB)" d="M302.158 284.999c15.077-2.319 33.088-2.006 34.422-19.763 2.949-39.276-34.429-39.013-32.793-27.056 3.038 22.223-3.539 11.715-19.711 27.12-16.173 15.405-.765 22.598 18.082 19.699Z"/><path stroke="url(#aC)" d="M302.158 284.999c15.077-2.319 33.088-2.006 34.422-19.763 2.949-39.276-34.429-39.013-32.793-27.056 3.038 22.223-3.539 11.715-19.711 27.12-16.173 15.405-.765 22.598 18.082 19.699Z"/><path stroke="url(#aD)" d="M301.99 283.822c12.792-1.761 28.031-1.255 29.396-16.271 3.019-33.213-28.619-33.49-27.394-23.345 2.276 18.855-3.15 9.871-17.043 22.697s-.948 19.122 15.041 16.919Z"/><path stroke="url(#aE)" d="M301.99 283.822c12.792-1.761 28.031-1.255 29.396-16.271 3.019-33.213-28.619-33.49-27.394-23.345 2.276 18.855-3.15 9.871-17.043 22.697s-.948 19.122 15.041 16.919Z"/></g><defs><linearGradient id="b" x1="445.241" x2="130.555" y1="142.579" y2="436.028" gradientUnits="userSpaceOnUse"><stop stop-color="#fff" stop-opacity=".8"/><stop offset="1" stop-color="#fff"/></linearGradient><linearGradient id="c" x1="411.731" x2="164.064" y1="422.099" y2="156.508" gradientUnits="userSpaceOnUse"><stop stop-color="#da5900"/><stop offset=".5" stop-color="#d29f34"/><stop offset="1" stop-color="#a7d1ad"/></linearGradient><linearGradient id="d" x1="444.144" x2="131.888" y1="143.716" y2="425.832" gradientUnits="userSpaceOnUse"><stop stop-color="#fff" stop-opacity=".8"/><stop offset="1" stop-color="#fff"/></linearGradient><linearGradient id="e" x1="407.067" x2="168.964" y1="416.544" y2="153.003" gradientUnits="userSpaceOnUse"><stop stop-color="#da5900"/><stop offset=".5" stop-color="#d29f34"/><stop offset="1" stop-color="#a7d1ad"/></linearGradient><linearGradient id="f" x1="442.98" x2="133.431" y1="144.972" y2="415.906" gradientUnits="userSpaceOnUse"><stop stop-color="#fff" stop-opacity=".8"/><stop offset="1" stop-color="#fff"/></linearGradient><linearGradient id="g" x1="402.539" x2="173.872" y1="411.068" y2="149.81" gradientUnits="userSpaceOnUse"><stop stop-color="#da5900"/><stop offset=".5" stop-color="#d29f34"/><stop offset="1" stop-color="#a7d1ad"/></linearGradient><linearGradient id="h" x1="441.751" x2="135.183" y1="146.35" y2="406.258" gradientUnits="userSpaceOnUse"><stop stop-color="#fff" stop-opacity=".8"/><stop offset="1" stop-color="#fff"/></linearGradient><linearGradient id="i" x1="398.148" x2="178.785" y1="405.676" y2="146.932" gradientUnits="userSpaceOnUse"><stop stop-color="#da5900"/><stop offset=".5" stop-color="#d29f34"/><stop offset="1" stop-color="#a7d1ad"/></linearGradient><linearGradient id="j" x1="440.459" x2="137.14" y1="147.836" y2="396.882" gradientUnits="userSpaceOnUse"><stop stop-color="#fff" stop-opacity=".8"/><stop offset="1" stop-color="#fff"/></linearGradient><linearGradient id="k" x1="393.898" x2="183.701" y1="400.361" y2="144.357" gradientUnits="userSpaceOnUse"><stop stop-color="#da5900"/><stop offset=".5" stop-color="#d29f34"/><stop offset="1" stop-color="#a7d1ad"/></linearGradient><linearGradient id="l" x1="439.088" x2="139.282" y1="149.432" y2="387.784" gradientUnits="userSpaceOnUse"><stop stop-color="#fff" stop-opacity=".8"/><stop offset="1" stop-color="#fff"/></linearGradient><linearGradient id="m" x1="389.771" x2="188.599" y1="395.128" y2="142.088" gradientUnits="userSpaceOnUse"><stop stop-color="#da5900"/><stop offset=".5" stop-color="#d29f34"/><stop offset="1" stop-color="#a7d1ad"/></linearGradient><linearGradient id="n" x1="437.65" x2="141.619" y1="151.135" y2="378.967" gradientUnits="userSpaceOnUse"><stop stop-color="#fff" stop-opacity=".8"/><stop offset="1" stop-color="#fff"/></linearGradient><linearGradient id="o" x1="385.782" x2="193.487" y1="389.979" y2="140.122" gradientUnits="userSpaceOnUse"><stop stop-color="#da5900"/><stop offset=".5" stop-color="#d29f34"/><stop offset="1" stop-color="#a7d1ad"/></linearGradient><linearGradient id="p" x1="436.132" x2="144.129" y1="152.95" y2="370.441" gradientUnits="userSpaceOnUse"><stop stop-color="#fff" stop-opacity=".8"/><stop offset="1" stop-color="#fff"/></linearGradient><linearGradient id="q" x1="381.914" x2="198.346" y1="384.925" y2="138.466" gradientUnits="userSpaceOnUse"><stop stop-color="#da5900"/><stop offset=".5" stop-color="#d29f34"/><stop offset="1" stop-color="#a7d1ad"/></linearGradient><linearGradient id="r" x1="434.539" x2="146.815" y1="154.878" y2="362.214" gradientUnits="userSpaceOnUse"><stop stop-color="#fff" stop-opacity=".8"/><stop offset="1" stop-color="#fff"/></linearGradient><linearGradient id="s" x1="378.176" x2="203.177" y1="379.971" y2="137.121" gradientUnits="userSpaceOnUse"><stop stop-color="#da5900"/><stop offset=".5" stop-color="#d29f34"/><stop offset="1" stop-color="#a7d1ad"/></linearGradient><linearGradient id="t" x1="432.865" x2="149.666" y1="156.893" y2="354.263" gradientUnits="userSpaceOnUse"><stop stop-color="#fff" stop-opacity=".8"/><stop offset="1" stop-color="#fff"/></linearGradient><linearGradient id="u" x1="374.56" x2="207.97" y1="375.094" y2="136.062" gradientUnits="userSpaceOnUse"><stop stop-color="#da5900"/><stop offset=".5" stop-color="#d29f34"/><stop offset="1" stop-color="#a7d1ad"/></linearGradient><linearGradient id="v" x1="431.109" x2="152.676" y1="159.023" y2="346.624" gradientUnits="userSpaceOnUse"><stop stop-color="#fff" stop-opacity=".8"/><stop offset="1" stop-color="#fff"/></linearGradient><linearGradient id="w" x1="371.065" x2="212.72" y1="370.329" y2="135.317" gradientUnits="userSpaceOnUse"><stop stop-color="#da5900"/><stop offset=".5" stop-color="#d29f34"/><stop offset="1" stop-color="#a7d1ad"/></linearGradient><linearGradient id="x" x1="429.261" x2="155.829" y1="161.243" y2="339.274" gradientUnits="userSpaceOnUse"><stop stop-color="#fff" stop-opacity=".8"/><stop offset="1" stop-color="#fff"/></linearGradient><linearGradient id="y" x1="367.679" x2="217.41" y1="365.655" y2="134.862" gradientUnits="userSpaceOnUse"><stop stop-color="#da5900"/><stop offset=".5" stop-color="#d29f34"/><stop offset="1" stop-color="#a7d1ad"/></linearGradient><linearGradient id="z" x1="427.341" x2="159.141" y1="163.567" y2="332.234" gradientUnits="userSpaceOnUse"><stop stop-color="#fff" stop-opacity=".8"/><stop offset="1" stop-color="#fff"/></linearGradient><linearGradient id="A" x1="364.424" x2="222.057" y1="361.09" y2="134.71" gradientUnits="userSpaceOnUse"><stop stop-color="#da5900"/><stop offset=".5" stop-color="#d29f34"/><stop offset="1" stop-color="#a7d1ad"/></linearGradient><linearGradient id="B" x1="425.326" x2="162.583" y1="165.988" y2="325.501" gradientUnits="userSpaceOnUse"><stop stop-color="#fff" stop-opacity=".8"/><stop offset="1" stop-color="#fff"/></linearGradient><linearGradient id="C" x1="361.276" x2="226.634" y1="356.633" y2="134.856" gradientUnits="userSpaceOnUse"><stop stop-color="#da5900"/><stop offset=".5" stop-color="#d29f34"/><stop offset="1" stop-color="#a7d1ad"/></linearGradient><linearGradient id="D" x1="423.213" x2="166.147" y1="168.49" y2="319.064" gradientUnits="userSpaceOnUse"><stop stop-color="#fff" stop-opacity=".8"/><stop offset="1" stop-color="#fff"/></linearGradient><linearGradient id="E" x1="358.229" x2="231.13" y1="352.271" y2="135.283" gradientUnits="userSpaceOnUse"><stop stop-color="#da5900"/><stop offset=".5" stop-color="#d29f34"/><stop offset="1" stop-color="#a7d1ad"/></linearGradient><linearGradient id="F" x1="421.008" x2="169.833" y1="171.097" y2="312.953" gradientUnits="userSpaceOnUse"><stop stop-color="#fff" stop-opacity=".8"/><stop offset="1" stop-color="#fff"/></linearGradient><linearGradient id="G" x1="355.291" x2="235.55" y1="348.034" y2="136.016" gradientUnits="userSpaceOnUse"><stop stop-color="#da5900"/><stop offset=".5" stop-color="#d29f34"/><stop offset="1" stop-color="#a7d1ad"/></linearGradient><linearGradient id="H" x1="418.723" x2="173.647" y1="173.785" y2="307.146" gradientUnits="userSpaceOnUse"><stop stop-color="#fff" stop-opacity=".8"/><stop offset="1" stop-color="#fff"/></linearGradient><linearGradient id="I" x1="352.471" x2="239.899" y1="343.902" y2="137.03" gradientUnits="userSpaceOnUse"><stop stop-color="#da5900"/><stop offset=".5" stop-color="#d29f34"/><stop offset="1" stop-color="#a7d1ad"/></linearGradient><linearGradient id="J" x1="416.333" x2="177.562" y1="176.559" y2="301.655" gradientUnits="userSpaceOnUse"><stop stop-color="#fff" stop-opacity=".8"/><stop offset="1" stop-color="#fff"/></linearGradient><linearGradient id="K" x1="349.746" x2="244.149" y1="339.884" y2="138.33" gradientUnits="userSpaceOnUse"><stop stop-color="#da5900"/><stop offset=".5" stop-color="#d29f34"/><stop offset="1" stop-color="#a7d1ad"/></linearGradient><linearGradient id="L" x1="413.846" x2="181.575" y1="179.42" y2="296.483" gradientUnits="userSpaceOnUse"><stop stop-color="#fff" stop-opacity=".8"/><stop offset="1" stop-color="#fff"/></linearGradient><linearGradient id="M" x1="347.119" x2="248.302" y1="335.986" y2="139.917" gradientUnits="userSpaceOnUse"><stop stop-color="#da5900"/><stop offset=".5" stop-color="#d29f34"/><stop offset="1" stop-color="#a7d1ad"/></linearGradient><linearGradient id="N" x1="411.249" x2="185.671" y1="182.352" y2="291.618" gradientUnits="userSpaceOnUse"><stop stop-color="#fff" stop-opacity=".8"/><stop offset="1" stop-color="#fff"/></linearGradient><linearGradient id="O" x1="344.579" x2="252.341" y1="332.197" y2="141.774" gradientUnits="userSpaceOnUse"><stop stop-color="#da5900"/><stop offset=".5" stop-color="#d29f34"/><stop offset="1" stop-color="#a7d1ad"/></linearGradient><linearGradient id="P" x1="408.559" x2="189.86" y1="185.374" y2="287.085" gradientUnits="userSpaceOnUse"><stop stop-color="#fff" stop-opacity=".8"/><stop offset="1" stop-color="#fff"/></linearGradient><linearGradient id="Q" x1="342.141" x2="256.279" y1="328.539" y2="143.919" gradientUnits="userSpaceOnUse"><stop stop-color="#da5900"/><stop offset=".5" stop-color="#d29f34"/><stop offset="1" stop-color="#a7d1ad"/></linearGradient><linearGradient id="R" x1="405.761" x2="194.12" y1="188.464" y2="282.866" gradientUnits="userSpaceOnUse"><stop stop-color="#fff" stop-opacity=".8"/><stop offset="1" stop-color="#fff"/></linearGradient><linearGradient id="S" x1="339.787" x2="260.094" y1="324.998" y2="146.333" gradientUnits="userSpaceOnUse"><stop stop-color="#da5900"/><stop offset=".5" stop-color="#d29f34"/><stop offset="1" stop-color="#a7d1ad"/></linearGradient><linearGradient id="T" x1="402.866" x2="198.458" y1="191.63" y2="278.969" gradientUnits="userSpaceOnUse"><stop stop-color="#fff" stop-opacity=".8"/><stop offset="1" stop-color="#fff"/></linearGradient><linearGradient id="U" x1="337.528" x2="263.795" y1="321.581" y2="149.018" gradientUnits="userSpaceOnUse"><stop stop-color="#da5900"/><stop offset=".5" stop-color="#d29f34"/><stop offset="1" stop-color="#a7d1ad"/></linearGradient><linearGradient id="V" x1="399.859" x2="202.852" y1="194.872" y2="275.403" gradientUnits="userSpaceOnUse"><stop stop-color="#fff" stop-opacity=".8"/><stop offset="1" stop-color="#fff"/></linearGradient><linearGradient id="W" x1="335.349" x2="267.362" y1="318.298" y2="151.978" gradientUnits="userSpaceOnUse"><stop stop-color="#da5900"/><stop offset=".5" stop-color="#d29f34"/><stop offset="1" stop-color="#a7d1ad"/></linearGradient><linearGradient id="X" x1="396.747" x2="207.301" y1="198.175" y2="272.152" gradientUnits="userSpaceOnUse"><stop stop-color="#fff" stop-opacity=".8"/><stop offset="1" stop-color="#fff"/></linearGradient><linearGradient id="Y" x1="333.252" x2="270.796" y1="315.133" y2="155.193" gradientUnits="userSpaceOnUse"><stop stop-color="#da5900"/><stop offset=".5" stop-color="#d29f34"/><stop offset="1" stop-color="#a7d1ad"/></linearGradient><linearGradient id="Z" x1="393.529" x2="211.801" y1="201.546" y2="269.229" gradientUnits="userSpaceOnUse"><stop stop-color="#fff" stop-opacity=".8"/><stop offset="1" stop-color="#fff"/></linearGradient><linearGradient id="aa" x1="331.236" x2="274.093" y1="312.102" y2="158.673" gradientUnits="userSpaceOnUse"><stop stop-color="#da5900"/><stop offset=".5" stop-color="#d29f34"/><stop offset="1" stop-color="#a7d1ad"/></linearGradient><linearGradient id="ab" x1="390.187" x2="216.325" y1="204.977" y2="266.628" gradientUnits="userSpaceOnUse"><stop stop-color="#fff" stop-opacity=".8"/><stop offset="1" stop-color="#fff"/></linearGradient><linearGradient id="ac" x1="329.282" x2="277.23" y1="309.199" y2="162.407" gradientUnits="userSpaceOnUse"><stop stop-color="#da5900"/><stop offset=".5" stop-color="#d29f34"/><stop offset="1" stop-color="#a7d1ad"/></linearGradient><linearGradient id="ad" x1="386.74" x2="220.888" y1="208.473" y2="264.358" gradientUnits="userSpaceOnUse"><stop stop-color="#fff" stop-opacity=".8"/><stop offset="1" stop-color="#fff"/></linearGradient><linearGradient id="ae" x1="327.407" x2="280.221" y1="306.433" y2="166.398" gradientUnits="userSpaceOnUse"><stop stop-color="#da5900"/><stop offset=".5" stop-color="#d29f34"/><stop offset="1" stop-color="#a7d1ad"/></linearGradient><linearGradient id="af" x1="383.185" x2="225.479" y1="212.023" y2="262.411" gradientUnits="userSpaceOnUse"><stop stop-color="#fff" stop-opacity=".8"/><stop offset="1" stop-color="#fff"/></linearGradient><linearGradient id="ag" x1="325.605" x2="283.059" y1="303.798" y2="170.636" gradientUnits="userSpaceOnUse"><stop stop-color="#da5900"/><stop offset=".5" stop-color="#d29f34"/><stop offset="1" stop-color="#a7d1ad"/></linearGradient><linearGradient id="ah" x1="379.511" x2="230.08" y1="215.637" y2="260.798" gradientUnits="userSpaceOnUse"><stop stop-color="#fff" stop-opacity=".8"/><stop offset="1" stop-color="#fff"/></linearGradient><linearGradient id="ai" x1="323.863" x2="285.729" y1="301.308" y2="175.128" gradientUnits="userSpaceOnUse"><stop stop-color="#da5900"/><stop offset=".5" stop-color="#d29f34"/><stop offset="1" stop-color="#a7d1ad"/></linearGradient><linearGradient id="aj" x1="375.721" x2="234.689" y1="219.285" y2="259.493" gradientUnits="userSpaceOnUse"><stop stop-color="#fff" stop-opacity=".8"/><stop offset="1" stop-color="#fff"/></linearGradient><linearGradient id="ak" x1="322.182" x2="288.228" y1="298.936" y2="179.842" gradientUnits="userSpaceOnUse"><stop stop-color="#da5900"/><stop offset=".5" stop-color="#d29f34"/><stop offset="1" stop-color="#a7d1ad"/></linearGradient><linearGradient id="al" x1="371.823" x2="239.306" y1="222.993" y2="258.525" gradientUnits="userSpaceOnUse"><stop stop-color="#fff" stop-opacity=".8"/><stop offset="1" stop-color="#fff"/></linearGradient><linearGradient id="am" x1="320.568" x2="290.561" y1="296.713" y2="184.804" gradientUnits="userSpaceOnUse"><stop stop-color="#da5900"/><stop offset=".5" stop-color="#d29f34"/><stop offset="1" stop-color="#a7d1ad"/></linearGradient><linearGradient id="an" x1="367.79" x2="243.899" y1="226.754" y2="257.89" gradientUnits="userSpaceOnUse"><stop stop-color="#fff" stop-opacity=".8"/><stop offset="1" stop-color="#fff"/></linearGradient><linearGradient id="ao" x1="318.992" x2="292.697" y1="294.638" y2="190.006" gradientUnits="userSpaceOnUse"><stop stop-color="#da5900"/><stop offset=".5" stop-color="#d29f34"/><stop offset="1" stop-color="#a7d1ad"/></linearGradient><linearGradient id="ap" x1="363.656" x2="248.494" y1="230.558" y2="257.577" gradientUnits="userSpaceOnUse"><stop stop-color="#fff" stop-opacity=".8"/><stop offset="1" stop-color="#fff"/></linearGradient><linearGradient id="aq" x1="317.486" x2="294.664" y1="292.701" y2="195.434" gradientUnits="userSpaceOnUse"><stop stop-color="#da5900"/><stop offset=".5" stop-color="#d29f34"/><stop offset="1" stop-color="#a7d1ad"/></linearGradient><linearGradient id="ar" x1="359.393" x2="253.057" y1="234.388" y2="257.576" gradientUnits="userSpaceOnUse"><stop stop-color="#fff" stop-opacity=".8"/><stop offset="1" stop-color="#fff"/></linearGradient><linearGradient id="as" x1="316.018" x2="296.432" y1="290.893" y2="201.071" gradientUnits="userSpaceOnUse"><stop stop-color="#da5900"/><stop offset=".5" stop-color="#d29f34"/><stop offset="1" stop-color="#a7d1ad"/></linearGradient><linearGradient id="at" x1="355.008" x2="257.587" y1="238.264" y2="257.904" gradientUnits="userSpaceOnUse"><stop stop-color="#fff" stop-opacity=".8"/><stop offset="1" stop-color="#fff"/></linearGradient><linearGradient id="au" x1="314.593" x2="298.002" y1="289.233" y2="206.934" gradientUnits="userSpaceOnUse"><stop stop-color="#da5900"/><stop offset=".5" stop-color="#d29f34"/><stop offset="1" stop-color="#a7d1ad"/></linearGradient><linearGradient id="av" x1="350.508" x2="262.086" y1="242.18" y2="258.561" gradientUnits="userSpaceOnUse"><stop stop-color="#fff" stop-opacity=".8"/><stop offset="1" stop-color="#fff"/></linearGradient><linearGradient id="aw" x1="313.217" x2="299.377" y1="287.724" y2="213.017" gradientUnits="userSpaceOnUse"><stop stop-color="#da5900"/><stop offset=".5" stop-color="#d29f34"/><stop offset="1" stop-color="#a7d1ad"/></linearGradient><linearGradient id="ax" x1="345.885" x2="266.538" y1="246.123" y2="259.533" gradientUnits="userSpaceOnUse"><stop stop-color="#fff" stop-opacity=".8"/><stop offset="1" stop-color="#fff"/></linearGradient><linearGradient id="ay" x1="311.877" x2="300.546" y1="286.353" y2="219.303" gradientUnits="userSpaceOnUse"><stop stop-color="#da5900"/><stop offset=".5" stop-color="#d29f34"/><stop offset="1" stop-color="#a7d1ad"/></linearGradient><linearGradient id="az" x1="341.139" x2="270.936" y1="250.094" y2="260.824" gradientUnits="userSpaceOnUse"><stop stop-color="#fff" stop-opacity=".8"/><stop offset="1" stop-color="#fff"/></linearGradient><linearGradient id="aA" x1="310.571" x2="301.503" y1="285.126" y2="225.792" gradientUnits="userSpaceOnUse"><stop stop-color="#da5900"/><stop offset=".5" stop-color="#d29f34"/><stop offset="1" stop-color="#a7d1ad"/></linearGradient><linearGradient id="aB" x1="336.263" x2="275.267" y1="254.093" y2="262.434" gradientUnits="userSpaceOnUse"><stop stop-color="#fff" stop-opacity=".8"/><stop offset="1" stop-color="#fff"/></linearGradient><linearGradient id="aC" x1="309.291" x2="302.239" y1="284.046" y2="232.48" gradientUnits="userSpaceOnUse"><stop stop-color="#da5900"/><stop offset=".5" stop-color="#d29f34"/><stop offset="1" stop-color="#a7d1ad"/></linearGradient><linearGradient id="aD" x1="331.266" x2="279.532" y1="258.112" y2="264.358" gradientUnits="userSpaceOnUse"><stop stop-color="#fff" stop-opacity=".8"/><stop offset="1" stop-color="#fff"/></linearGradient><linearGradient id="aE" x1="308.04" x2="302.758" y1="283.111" y2="239.359" gradientUnits="userSpaceOnUse"><stop stop-color="#da5900"/><stop offset=".5" stop-color="#d29f34"/><stop offset="1" stop-color="#a7d1ad"/></linearGradient><filter id="a" width="334.188" height="460.039" x="181.848" y="73.092" color-interpolation-filters="sRGB" filterUnits="userSpaceOnUse"><feFlood flood-opacity="0" result="BackgroundImageFix"/><feBlend in="SourceGraphic" in2="BackgroundImageFix" result="shape"/><feGaussianBlur result="effect1_foregroundBlur_1223_18714" stdDeviation="2"/></filter></defs></svg>