<svg width="418" height="569" viewBox="0 0 418 569" fill="none" xmlns="http://www.w3.org/2000/svg">
<g style="mix-blend-mode:plus-lighter" opacity="0.7" filter="url(#filter0_f_1223_18714)">
<path d="M374.838 456.288C451.587 382.284 555.678 311.461 491.869 204.84C350.734 -30.9911 138.398 121.192 195.826 182.776C302.56 297.233 222.744 263.831 192.374 416.863C162.004 569.894 278.9 548.793 374.838 456.288Z" stroke="url(#paint0_linear_1223_18714)" stroke-width="0.701126"/>
<path d="M374.838 456.288C451.587 382.284 555.678 311.461 491.869 204.84C350.734 -30.9911 138.398 121.192 195.826 182.776C302.56 297.233 222.744 263.831 192.374 416.863C162.004 569.894 278.9 548.793 374.838 456.288Z" stroke="url(#paint1_linear_1223_18714)" stroke-width="0.701126"/>
<path d="M370.462 449.41C446.657 378.224 549.539 310.569 488.783 205.32C354.399 -27.4769 144.409 118.071 199.62 179.18C302.231 292.754 224.694 258.86 192.637 408.043C160.58 557.226 275.219 538.392 370.462 449.41Z" stroke="url(#paint2_linear_1223_18714)" stroke-width="0.701126"/>
<path d="M370.462 449.41C446.657 378.224 549.539 310.569 488.783 205.32C354.399 -27.4769 144.409 118.071 199.62 179.18C302.231 292.754 224.694 258.86 192.637 408.043C160.58 557.226 275.219 538.392 370.462 449.41Z" stroke="url(#paint3_linear_1223_18714)" stroke-width="0.701126"/>
<path d="M366.254 442.627C441.824 374.222 543.425 309.681 485.662 205.872C357.899 -23.7375 150.41 115.288 203.432 175.868C301.977 288.458 226.713 254.134 193.082 399.454C159.451 544.774 271.791 528.132 366.254 442.627Z" stroke="url(#paint4_linear_1223_18714)" stroke-width="0.701126"/>
<path d="M366.254 442.627C441.824 374.222 543.425 309.681 485.662 205.872C357.899 -23.7375 150.41 115.288 203.432 175.868C301.977 288.458 226.713 254.134 193.082 399.454C159.451 544.774 271.791 528.132 366.254 442.627Z" stroke="url(#paint5_linear_1223_18714)" stroke-width="0.701126"/>
<path d="M362.216 435.947C437.093 370.287 537.34 308.801 482.51 206.501C361.232 -19.7726 156.396 112.846 207.261 172.843C301.797 284.35 228.8 249.66 193.709 391.105C158.618 532.55 268.619 518.023 362.216 435.947Z" stroke="url(#paint6_linear_1223_18714)" stroke-width="0.701126"/>
<path d="M362.216 435.947C437.093 370.287 537.34 308.801 482.51 206.501C361.232 -19.7726 156.396 112.846 207.261 172.843C301.797 284.35 228.8 249.66 193.709 391.105C158.618 532.55 268.619 518.023 362.216 435.947Z" stroke="url(#paint7_linear_1223_18714)" stroke-width="0.701126"/>
<path d="M358.349 429.364C432.467 366.408 531.289 307.918 479.329 207.192C364.4 -15.5983 162.366 110.733 211.106 170.094C301.691 280.42 230.953 245.427 194.516 382.988C158.079 520.549 265.703 508.059 358.349 429.364Z" stroke="url(#paint8_linear_1223_18714)" stroke-width="0.701126"/>
<path d="M358.349 429.364C432.467 366.408 531.289 307.918 479.329 207.192C364.4 -15.5983 162.366 110.733 211.106 170.094C301.691 280.42 230.953 245.427 194.516 382.988C158.079 520.549 265.703 508.059 358.349 429.364Z" stroke="url(#paint9_linear_1223_18714)" stroke-width="0.701126"/>
<path d="M354.637 422.882C427.928 362.59 525.258 307.036 476.104 207.95C367.382 -11.2161 168.297 108.949 214.944 167.624C301.64 276.672 233.153 241.438 195.483 375.109C157.813 508.78 263.023 498.247 354.637 422.882Z" stroke="url(#paint10_linear_1223_18714)" stroke-width="0.701126"/>
<path d="M354.637 422.882C427.928 362.59 525.258 307.036 476.104 207.95C367.382 -11.2161 168.297 108.949 214.944 167.624C301.64 276.672 233.153 241.438 195.483 375.109C157.813 508.78 263.023 498.247 354.637 422.882Z" stroke="url(#paint11_linear_1223_18714)" stroke-width="0.701126"/>
<path d="M351.093 416.505C423.493 358.835 519.262 306.155 472.849 208.77C370.192 -6.63151 174.198 107.493 218.787 165.429C301.657 273.106 235.409 237.693 196.62 367.47C157.83 497.247 260.593 488.592 351.093 416.505Z" stroke="url(#paint12_linear_1223_18714)" stroke-width="0.701126"/>
<path d="M351.093 416.505C423.493 358.835 519.262 306.155 472.849 208.77C370.192 -6.63151 174.198 107.493 218.787 165.429C301.657 273.106 235.409 237.693 196.62 367.47C157.83 497.247 260.593 488.592 351.093 416.505Z" stroke="url(#paint13_linear_1223_18714)" stroke-width="0.701126"/>
<path d="M347.7 410.243C419.144 355.152 513.288 305.283 469.551 209.661C372.811 -1.84142 180.048 106.371 222.613 163.519C301.723 269.731 237.704 234.201 197.908 360.082C158.112 485.963 258.395 479.108 347.7 410.243Z" stroke="url(#paint14_linear_1223_18714)" stroke-width="0.701126"/>
<path d="M347.7 410.243C419.144 355.152 513.288 305.283 469.551 209.661C372.811 -1.84142 180.048 106.371 222.613 163.519C301.723 269.731 237.704 234.201 197.908 360.082C158.112 485.963 258.395 479.108 347.7 410.243Z" stroke="url(#paint15_linear_1223_18714)" stroke-width="0.701126"/>
<path d="M344.466 404.103C414.892 351.545 507.345 304.422 466.216 210.623C375.245 3.15151 185.85 105.582 226.428 161.893C301.844 266.55 240.04 230.963 199.35 352.95C158.661 474.937 256.433 469.8 344.466 404.103Z" stroke="url(#paint16_linear_1223_18714)" stroke-width="0.701126"/>
<path d="M344.466 404.103C414.892 351.545 507.345 304.422 466.216 210.623C375.245 3.15151 185.85 105.582 226.428 161.893C301.844 266.55 240.04 230.963 199.35 352.95C158.661 474.937 256.433 469.8 344.466 404.103Z" stroke="url(#paint17_linear_1223_18714)" stroke-width="0.701126"/>
<path d="M341.382 398.064C410.728 347.994 501.428 303.551 462.839 211.631C377.485 8.31898 191.59 105.101 230.218 160.527C302.011 263.539 242.407 227.957 200.936 346.054C159.466 464.151 254.699 460.651 341.382 398.064Z" stroke="url(#paint18_linear_1223_18714)" stroke-width="0.701126"/>
<path d="M341.382 398.064C410.728 347.994 501.428 303.551 462.839 211.631C377.485 8.31898 191.59 105.101 230.218 160.527C302.011 263.539 242.407 227.957 200.936 346.054C159.466 464.151 254.699 460.651 341.382 398.064Z" stroke="url(#paint19_linear_1223_18714)" stroke-width="0.701126"/>
<path d="M338.447 392.158C406.653 344.529 495.539 302.698 459.42 212.715C379.529 13.6862 197.265 104.957 233.981 159.451C302.22 260.73 244.801 225.213 202.662 339.426C160.523 453.639 253.19 451.696 338.447 392.158Z" stroke="url(#paint20_linear_1223_18714)" stroke-width="0.701126"/>
<path d="M338.447 392.158C406.653 344.529 495.539 302.698 459.42 212.715C379.529 13.6862 197.265 104.957 233.981 159.451C302.22 260.73 244.801 225.213 202.662 339.426C160.523 453.639 253.19 451.696 338.447 392.158Z" stroke="url(#paint21_linear_1223_18714)" stroke-width="0.701126"/>
<path d="M335.65 386.367C402.657 341.129 489.67 301.843 455.949 213.851C381.365 19.225 202.857 105.123 237.701 158.639C302.46 258.1 247.208 222.707 204.512 333.046C161.816 443.384 251.892 442.915 335.65 386.367Z" stroke="url(#paint22_linear_1223_18714)" stroke-width="0.701126"/>
<path d="M335.65 386.367C402.657 341.129 489.67 301.843 455.949 213.851C381.365 19.225 202.857 105.123 237.701 158.639C302.46 258.1 247.208 222.707 204.512 333.046C161.816 443.384 251.892 442.915 335.65 386.367Z" stroke="url(#paint23_linear_1223_18714)" stroke-width="0.701126"/>
<path d="M333.01 380.71C398.759 337.813 483.842 301.002 452.448 215.053C383.01 24.9469 208.382 105.614 241.394 158.106C302.747 255.665 249.645 220.456 206.503 326.932C163.361 433.407 250.824 434.331 333.01 380.71Z" stroke="url(#paint24_linear_1223_18714)" stroke-width="0.701126"/>
<path d="M333.01 380.71C398.759 337.813 483.842 301.002 452.448 215.053C383.01 24.9469 208.382 105.614 241.394 158.106C302.747 255.665 249.645 220.456 206.503 326.932C163.361 433.407 250.824 434.331 333.01 380.71Z" stroke="url(#paint25_linear_1223_18714)" stroke-width="0.701126"/>
<path d="M330.503 375.184C394.938 334.578 478.034 300.17 448.895 216.316C384.442 30.8418 213.813 106.422 245.033 157.847C303.058 253.422 252.084 218.456 208.607 321.082C165.13 423.708 249.959 425.942 330.503 375.184Z" stroke="url(#paint26_linear_1223_18714)" stroke-width="0.701126"/>
<path d="M330.503 375.184C394.938 334.578 478.034 300.17 448.895 216.316C384.442 30.8418 213.813 106.422 245.033 157.847C303.058 253.422 252.084 218.456 208.607 321.082C165.13 423.708 249.959 425.942 330.503 375.184Z" stroke="url(#paint27_linear_1223_18714)" stroke-width="0.701126"/>
<path d="M328.124 369.779C391.189 331.411 472.245 299.335 445.285 217.624C385.655 36.8909 219.14 107.531 248.611 157.845C303.385 251.357 254.519 216.691 210.817 315.485C167.116 414.279 249.292 417.74 328.124 369.779Z" stroke="url(#paint28_linear_1223_18714)" stroke-width="0.701126"/>
<path d="M328.124 369.779C391.189 331.411 472.245 299.335 445.285 217.624C385.655 36.8909 219.14 107.531 248.611 157.845C303.385 251.357 254.519 216.691 210.817 315.485C167.116 414.279 249.292 417.74 328.124 369.779Z" stroke="url(#paint29_linear_1223_18714)" stroke-width="0.701126"/>
<path d="M325.877 364.525C387.519 328.341 466.482 298.524 441.628 219.003C386.653 43.1154 224.364 108.964 252.13 158.126C303.733 249.496 256.952 215.188 213.135 310.169C169.319 405.15 248.825 409.755 325.877 364.525Z" stroke="url(#paint30_linear_1223_18714)" stroke-width="0.701126"/>
<path d="M325.877 364.525C387.519 328.341 466.482 298.524 441.628 219.003C386.653 43.1154 224.364 108.964 252.13 158.126C303.733 249.496 256.952 215.188 213.135 310.169C169.319 405.15 248.825 409.755 325.877 364.525Z" stroke="url(#paint31_linear_1223_18714)" stroke-width="0.701126"/>
<path d="M323.773 359.402C383.939 325.348 460.76 297.715 437.934 220.431C387.448 49.4883 229.493 110.697 255.596 158.666C304.11 247.818 259.39 213.925 215.568 305.115C171.746 396.304 248.566 401.97 323.773 359.402Z" stroke="url(#paint32_linear_1223_18714)" stroke-width="0.701126"/>
<path d="M323.773 359.402C383.939 325.348 460.76 297.715 437.934 220.431C387.448 49.4883 229.493 110.697 255.596 158.666C304.11 247.818 259.39 213.925 215.568 305.115C171.746 396.304 248.566 401.97 323.773 359.402Z" stroke="url(#paint33_linear_1223_18714)" stroke-width="0.701126"/>
<path d="M321.788 354.42C380.426 322.44 455.055 296.917 434.182 221.912C388.013 56.0113 234.498 112.734 258.984 159.47C304.491 246.33 261.808 212.908 218.088 300.33C174.368 387.753 248.49 394.396 321.788 354.42Z" stroke="url(#paint34_linear_1223_18714)" stroke-width="0.701126"/>
<path d="M321.788 354.42C380.426 322.44 455.055 296.917 434.182 221.912C388.013 56.0113 234.498 112.734 258.984 159.47C304.491 246.33 261.808 212.908 218.088 300.33C174.368 387.753 248.49 394.396 321.788 354.42Z" stroke="url(#paint35_linear_1223_18714)" stroke-width="0.701126"/>
<path d="M319.924 349.586C376.985 319.623 449.376 296.133 430.377 223.449C388.355 62.6829 239.38 115.075 262.293 160.539C304.879 245.036 264.206 212.14 220.695 295.822C177.185 379.503 248.598 387.04 319.924 349.586Z" stroke="url(#paint36_linear_1223_18714)" stroke-width="0.701126"/>
<path d="M319.924 349.586C376.985 319.623 449.376 296.133 430.377 223.449C388.355 62.6829 239.38 115.075 262.293 160.539C304.879 245.036 264.206 212.14 220.695 295.822C177.185 379.503 248.598 387.04 319.924 349.586Z" stroke="url(#paint37_linear_1223_18714)" stroke-width="0.701126"/>
<path d="M318.169 344.888C373.604 316.884 443.712 295.35 426.509 225.027C388.459 69.4827 244.121 117.701 265.509 161.856C305.259 243.92 266.569 211.606 223.375 291.576C180.181 371.546 248.876 379.893 318.169 344.888Z" stroke="url(#paint38_linear_1223_18714)" stroke-width="0.701126"/>
<path d="M318.169 344.888C373.604 316.884 443.712 295.35 426.509 225.027C388.459 69.4827 244.121 117.701 265.509 161.856C305.259 243.92 266.569 211.606 223.375 291.576C180.181 371.546 248.876 379.893 318.169 344.888Z" stroke="url(#paint39_linear_1223_18714)" stroke-width="0.701126"/>
<path d="M316.538 340.35C370.3 314.246 438.081 294.59 422.595 226.666C388.342 76.4278 248.734 120.633 268.644 163.442C305.646 243.005 268.909 211.326 226.138 287.616C183.366 363.906 249.335 372.979 316.538 340.35Z" stroke="url(#paint40_linear_1223_18714)" stroke-width="0.701126"/>
<path d="M316.538 340.35C370.3 314.246 438.081 294.59 422.595 226.666C388.342 76.4278 248.734 120.633 268.644 163.442C305.646 243.005 268.909 211.326 226.138 287.616C183.366 363.906 249.335 372.979 316.538 340.35Z" stroke="url(#paint41_linear_1223_18714)" stroke-width="0.701126"/>
<path d="M315.012 335.956C367.055 311.692 432.47 293.836 418.62 228.346C387.988 83.494 253.199 123.847 271.678 165.275C306.022 242.272 271.209 211.281 228.964 283.925C186.719 356.569 249.958 366.285 315.012 335.956Z" stroke="url(#paint42_linear_1223_18714)" stroke-width="0.701126"/>
<path d="M315.012 335.956C367.055 311.692 432.47 293.836 418.62 228.346C387.988 83.494 253.199 123.847 271.678 165.275C306.022 242.272 271.209 211.281 228.964 283.925C186.719 356.569 249.958 366.285 315.012 335.956Z" stroke="url(#paint43_linear_1223_18714)" stroke-width="0.701126"/>
<path d="M313.601 331.716C363.882 309.232 426.89 293.095 414.596 230.075C387.406 90.6835 257.522 127.348 274.619 167.361C306.395 241.728 273.473 211.478 231.86 280.512C190.246 349.547 250.75 359.822 313.601 331.716Z" stroke="url(#paint44_linear_1223_18714)" stroke-width="0.701126"/>
<path d="M313.601 331.716C363.882 309.232 426.89 293.095 414.596 230.075C387.406 90.6835 257.522 127.348 274.619 167.361C306.395 241.728 273.473 211.478 231.86 280.512C190.246 349.547 250.75 359.822 313.601 331.716Z" stroke="url(#paint45_linear_1223_18714)" stroke-width="0.701126"/>
<path d="M312.289 327.64C360.765 306.873 421.329 292.375 410.51 231.856C386.581 97.9963 261.683 131.137 277.448 169.703C306.747 241.379 275.686 211.922 234.806 277.385C193.926 342.847 251.695 353.598 312.289 327.64Z" stroke="url(#paint46_linear_1223_18714)" stroke-width="0.701126"/>
<path d="M312.289 327.64C360.765 306.873 421.329 292.375 410.51 231.856C386.581 97.9963 261.683 131.137 277.448 169.703C306.747 241.379 275.686 211.922 234.806 277.385C193.926 342.847 251.695 353.598 312.289 327.64Z" stroke="url(#paint47_linear_1223_18714)" stroke-width="0.701126"/>
<path d="M311.079 323.712C357.708 304.6 415.793 291.66 406.367 233.672C385.517 105.411 265.684 135.195 280.166 172.281C307.081 241.208 277.847 212.594 237.803 274.527C197.758 336.459 252.792 347.602 311.079 323.712Z" stroke="url(#paint48_linear_1223_18714)" stroke-width="0.701126"/>
<path d="M311.079 323.712C357.708 304.6 415.793 291.66 406.367 233.672C385.517 105.411 265.684 135.195 280.166 172.281C307.081 241.208 277.847 212.594 237.803 274.527C197.758 336.459 252.792 347.602 311.079 323.712Z" stroke="url(#paint49_linear_1223_18714)" stroke-width="0.701126"/>
<path d="M309.968 319.948C354.711 302.428 410.283 290.964 402.167 235.535C384.216 112.935 269.519 139.529 282.77 175.106C307.396 241.227 279.954 213.506 240.845 271.952C201.737 330.398 254.039 341.849 309.968 319.948Z" stroke="url(#paint50_linear_1223_18714)" stroke-width="0.701126"/>
<path d="M309.968 319.948C354.711 302.428 410.283 290.964 402.167 235.535C384.216 112.935 269.519 139.529 282.77 175.106C307.396 241.227 279.954 213.506 240.845 271.952C201.737 330.398 254.039 341.849 309.968 319.948Z" stroke="url(#paint51_linear_1223_18714)" stroke-width="0.701126"/>
<path d="M308.935 316.342C351.754 300.349 404.783 290.278 397.894 237.435C382.656 120.554 273.166 144.129 285.236 178.167C307.668 241.427 281.982 214.649 243.909 269.654C205.836 324.658 255.411 336.334 308.935 316.342Z" stroke="url(#paint52_linear_1223_18714)" stroke-width="0.701126"/>
<path d="M308.935 316.342C351.754 300.349 404.783 290.278 397.894 237.435C382.656 120.554 273.166 144.129 285.236 178.167C307.668 241.427 281.982 214.649 243.909 269.654C205.836 324.658 255.411 336.334 308.935 316.342Z" stroke="url(#paint53_linear_1223_18714)" stroke-width="0.701126"/>
<path d="M307.998 312.905C348.857 298.373 399.312 289.613 393.566 239.38C380.858 128.272 276.64 148.998 287.581 181.469C307.916 241.817 283.949 216.03 247.01 267.641C210.071 319.252 256.925 331.07 307.998 312.905Z" stroke="url(#paint54_linear_1223_18714)" stroke-width="0.701126"/>
<path d="M307.998 312.905C348.857 298.373 399.312 289.613 393.566 239.38C380.858 128.272 276.64 148.998 287.581 181.469C307.916 241.817 283.949 216.03 247.01 267.641C210.071 319.252 256.925 331.07 307.998 312.905Z" stroke="url(#paint55_linear_1223_18714)" stroke-width="0.701126"/>
<path d="M307.151 309.631C346.014 296.495 393.868 288.961 389.182 241.36C378.816 136.073 279.931 154.124 289.796 185.001C308.131 242.388 285.846 217.638 250.138 265.906C214.43 314.173 258.571 326.051 307.151 309.631Z" stroke="url(#paint56_linear_1223_18714)" stroke-width="0.701126"/>
<path d="M307.151 309.631C346.014 296.495 393.868 288.961 389.182 241.36C378.816 136.073 279.931 154.124 289.796 185.001C308.131 242.388 285.846 217.638 250.138 265.906C214.43 314.173 258.571 326.051 307.151 309.631Z" stroke="url(#paint57_linear_1223_18714)" stroke-width="0.701126"/>
<path d="M306.378 306.533C343.212 294.726 388.44 288.335 384.729 243.386C376.519 143.966 283.024 159.513 291.867 188.772C308.301 243.149 287.658 219.484 253.277 264.46C218.895 309.436 260.334 321.291 306.378 306.533Z" stroke="url(#paint58_linear_1223_18714)" stroke-width="0.701126"/>
<path d="M306.378 306.533C343.212 294.726 388.44 288.335 384.729 243.386C376.519 143.966 283.024 159.513 291.867 188.772C308.301 243.149 287.658 219.484 253.277 264.46C218.895 309.436 260.334 321.291 306.378 306.533Z" stroke="url(#paint59_linear_1223_18714)" stroke-width="0.701126"/>
<path d="M305.681 303.585C340.455 293.04 383.033 287.706 380.212 245.428C373.971 151.915 285.919 165.134 293.792 192.75C308.425 244.074 289.385 221.537 256.424 263.277C223.463 305.017 262.213 316.767 305.681 303.585Z" stroke="url(#paint60_linear_1223_18714)" stroke-width="0.701126"/>
<path d="M305.681 303.585C340.455 293.04 383.033 287.706 380.212 245.428C373.971 151.915 285.919 165.134 293.792 192.75C308.425 244.074 289.385 221.537 256.424 263.277C223.463 305.017 262.213 316.767 305.681 303.585Z" stroke="url(#paint61_linear_1223_18714)" stroke-width="0.701126"/>
<path d="M305.064 300.819C337.748 291.467 377.655 287.106 375.638 247.515C371.178 159.944 288.617 171.011 295.575 196.961C308.507 245.188 291.028 223.825 259.582 262.385C228.135 300.945 264.209 312.508 305.064 300.819Z" stroke="url(#paint62_linear_1223_18714)" stroke-width="0.701126"/>
<path d="M305.064 300.819C337.748 291.467 377.655 287.106 375.638 247.515C371.178 159.944 288.617 171.011 295.575 196.961C308.507 245.188 291.028 223.825 259.582 262.385C228.135 300.945 264.209 312.508 305.064 300.819Z" stroke="url(#paint63_linear_1223_18714)" stroke-width="0.701126"/>
<path d="M304.498 298.233C335.063 290.006 372.28 286.532 370.983 249.641C368.114 168.045 291.089 177.136 297.187 201.398C308.519 246.489 292.56 226.343 262.718 261.781C232.877 297.22 266.292 308.516 304.498 298.233Z" stroke="url(#paint64_linear_1223_18714)" stroke-width="0.701126"/>
<path d="M304.498 298.233C335.063 290.006 372.28 286.532 370.983 249.641C368.114 168.045 291.089 177.136 297.187 201.398C308.519 246.489 292.56 226.343 262.718 261.781C232.877 297.22 266.292 308.516 304.498 298.233Z" stroke="url(#paint65_linear_1223_18714)" stroke-width="0.701126"/>
<path d="M304.013 295.818C332.433 288.647 366.941 285.974 366.278 251.796C364.811 176.201 293.364 183.494 298.655 206.048C308.49 247.965 294.008 229.078 265.862 261.456C237.715 293.834 268.489 304.781 304.013 295.818Z" stroke="url(#paint66_linear_1223_18714)" stroke-width="0.701126"/>
<path d="M304.013 295.818C332.433 288.647 366.941 285.974 366.278 251.796C364.811 176.201 293.364 183.494 298.655 206.048C308.49 247.965 294.008 229.078 265.862 261.456C237.715 293.834 268.489 304.781 304.013 295.818Z" stroke="url(#paint67_linear_1223_18714)" stroke-width="0.701126"/>
<path d="M303.579 293.564C329.828 287.379 361.614 285.421 361.498 253.967C361.244 184.395 295.409 190.067 299.95 210.894C308.391 249.603 295.341 232.016 268.979 261.396C242.616 290.777 270.768 301.295 303.579 293.564Z" stroke="url(#paint68_linear_1223_18714)" stroke-width="0.701126"/>
<path d="M303.579 293.564C329.828 287.379 361.614 285.421 361.498 253.967C361.244 184.395 295.409 190.067 299.95 210.894C308.391 249.603 295.341 232.016 268.979 261.396C242.616 290.777 270.768 301.295 303.579 293.564Z" stroke="url(#paint69_linear_1223_18714)" stroke-width="0.701126"/>
<path d="M303.198 291.494C327.253 286.225 356.302 284.894 356.648 256.171C357.415 192.64 297.225 196.871 301.072 215.955C308.223 251.422 296.561 235.174 272.069 261.622C247.577 288.07 273.13 298.08 303.198 291.494Z" stroke="url(#paint70_linear_1223_18714)" stroke-width="0.701126"/>
<path d="M303.198 291.494C327.253 286.225 356.302 284.894 356.648 256.171C357.415 192.64 297.225 196.871 301.072 215.955C308.223 251.422 296.561 235.174 272.069 261.622C247.577 288.07 273.13 298.08 303.198 291.494Z" stroke="url(#paint71_linear_1223_18714)" stroke-width="0.701126"/>
<path d="M302.874 289.606C324.713 285.182 351.014 284.393 351.737 258.407C353.336 200.931 298.818 203.9 302.027 221.223C307.991 253.418 297.671 238.55 275.136 262.132C252.6 285.714 275.576 295.137 302.874 289.606Z" stroke="url(#paint72_linear_1223_18714)" stroke-width="0.701126"/>
<path d="M302.874 289.606C324.713 285.182 351.014 284.393 351.737 258.407C353.336 200.931 298.818 203.9 302.027 221.223C307.991 253.418 297.671 238.55 275.136 262.132C252.6 285.714 275.576 295.137 302.874 289.606Z" stroke="url(#paint73_linear_1223_18714)" stroke-width="0.701126"/>
<path d="M302.597 287.892C322.199 284.241 345.744 283.907 346.756 260.663C348.996 209.25 300.174 211.137 302.801 226.684C307.685 255.58 298.66 242.128 278.164 262.913C257.668 283.698 278.093 292.456 302.597 287.892Z" stroke="url(#paint74_linear_1223_18714)" stroke-width="0.701126"/>
<path d="M302.597 287.892C322.199 284.241 345.744 283.907 346.756 260.663C348.996 209.25 300.174 211.137 302.801 226.684C307.685 255.58 298.66 242.128 278.164 262.913C257.668 283.698 278.093 292.456 302.597 287.892Z" stroke="url(#paint75_linear_1223_18714)" stroke-width="0.701126"/>
<path d="M302.361 286.355C319.709 283.406 340.49 283.439 341.706 262.939C344.396 217.594 301.288 218.579 303.391 232.337C307.299 257.908 299.522 245.91 281.148 263.969C262.773 282.028 280.676 290.041 302.361 286.355Z" stroke="url(#paint76_linear_1223_18714)" stroke-width="0.701126"/>
<path d="M302.361 286.355C319.709 283.406 340.49 283.439 341.706 262.939C344.396 217.594 301.288 218.579 303.391 232.337C307.299 257.908 299.522 245.91 281.148 263.969C262.773 282.028 280.676 290.041 302.361 286.355Z" stroke="url(#paint77_linear_1223_18714)" stroke-width="0.701126"/>
<path d="M302.158 284.999C317.235 282.68 335.246 282.993 336.58 265.236C339.529 225.96 302.151 226.223 303.787 238.18C306.825 260.403 300.248 249.895 284.076 265.3C267.903 280.705 283.311 287.898 302.158 284.999Z" stroke="url(#paint78_linear_1223_18714)" stroke-width="0.701126"/>
<path d="M302.158 284.999C317.235 282.68 335.246 282.993 336.58 265.236C339.529 225.96 302.151 226.223 303.787 238.18C306.825 260.403 300.248 249.895 284.076 265.3C267.903 280.705 283.311 287.898 302.158 284.999Z" stroke="url(#paint79_linear_1223_18714)" stroke-width="0.701126"/>
<path d="M301.99 283.822C314.782 282.061 330.021 282.567 331.386 267.551C334.405 234.338 302.767 234.061 303.992 244.206C306.268 263.061 300.842 254.077 286.949 266.903C273.057 279.729 286.001 286.025 301.99 283.822Z" stroke="url(#paint80_linear_1223_18714)" stroke-width="0.701126"/>
<path d="M301.99 283.822C314.782 282.061 330.021 282.567 331.386 267.551C334.405 234.338 302.767 234.061 303.992 244.206C306.268 263.061 300.842 254.077 286.949 266.903C273.057 279.729 286.001 286.025 301.99 283.822Z" stroke="url(#paint81_linear_1223_18714)" stroke-width="0.701126"/>
</g>
<defs>
<filter id="filter0_f_1223_18714" x="181.848" y="73.0918" width="334.188" height="460.039" filterUnits="userSpaceOnUse" color-interpolation-filters="sRGB">
<feFlood flood-opacity="0" result="BackgroundImageFix"/>
<feBlend mode="normal" in="SourceGraphic" in2="BackgroundImageFix" result="shape"/>
<feGaussianBlur stdDeviation="2" result="effect1_foregroundBlur_1223_18714"/>
</filter>
<linearGradient id="paint0_linear_1223_18714" x1="445.241" y1="142.579" x2="130.555" y2="436.028" gradientUnits="userSpaceOnUse">
<stop stop-color="white" stop-opacity="0.8"/>
<stop offset="1" stop-color="white"/>
</linearGradient>
<linearGradient id="paint1_linear_1223_18714" x1="411.731" y1="422.099" x2="164.064" y2="156.508" gradientUnits="userSpaceOnUse">
<stop stop-color="#DA5900"/>
<stop offset="0.5" stop-color="#D29F34"/>
<stop offset="1" stop-color="#A7D1AD"/>
</linearGradient>
<linearGradient id="paint2_linear_1223_18714" x1="444.144" y1="143.716" x2="131.888" y2="425.832" gradientUnits="userSpaceOnUse">
<stop stop-color="white" stop-opacity="0.8"/>
<stop offset="1" stop-color="white"/>
</linearGradient>
<linearGradient id="paint3_linear_1223_18714" x1="407.067" y1="416.544" x2="168.964" y2="153.003" gradientUnits="userSpaceOnUse">
<stop stop-color="#DA5900"/>
<stop offset="0.5" stop-color="#D29F34"/>
<stop offset="1" stop-color="#A7D1AD"/>
</linearGradient>
<linearGradient id="paint4_linear_1223_18714" x1="442.98" y1="144.972" x2="133.431" y2="415.906" gradientUnits="userSpaceOnUse">
<stop stop-color="white" stop-opacity="0.8"/>
<stop offset="1" stop-color="white"/>
</linearGradient>
<linearGradient id="paint5_linear_1223_18714" x1="402.539" y1="411.068" x2="173.872" y2="149.81" gradientUnits="userSpaceOnUse">
<stop stop-color="#DA5900"/>
<stop offset="0.5" stop-color="#D29F34"/>
<stop offset="1" stop-color="#A7D1AD"/>
</linearGradient>
<linearGradient id="paint6_linear_1223_18714" x1="441.751" y1="146.35" x2="135.183" y2="406.258" gradientUnits="userSpaceOnUse">
<stop stop-color="white" stop-opacity="0.8"/>
<stop offset="1" stop-color="white"/>
</linearGradient>
<linearGradient id="paint7_linear_1223_18714" x1="398.148" y1="405.676" x2="178.785" y2="146.932" gradientUnits="userSpaceOnUse">
<stop stop-color="#DA5900"/>
<stop offset="0.5" stop-color="#D29F34"/>
<stop offset="1" stop-color="#A7D1AD"/>
</linearGradient>
<linearGradient id="paint8_linear_1223_18714" x1="440.459" y1="147.836" x2="137.14" y2="396.882" gradientUnits="userSpaceOnUse">
<stop stop-color="white" stop-opacity="0.8"/>
<stop offset="1" stop-color="white"/>
</linearGradient>
<linearGradient id="paint9_linear_1223_18714" x1="393.898" y1="400.361" x2="183.701" y2="144.357" gradientUnits="userSpaceOnUse">
<stop stop-color="#DA5900"/>
<stop offset="0.5" stop-color="#D29F34"/>
<stop offset="1" stop-color="#A7D1AD"/>
</linearGradient>
<linearGradient id="paint10_linear_1223_18714" x1="439.088" y1="149.432" x2="139.282" y2="387.784" gradientUnits="userSpaceOnUse">
<stop stop-color="white" stop-opacity="0.8"/>
<stop offset="1" stop-color="white"/>
</linearGradient>
<linearGradient id="paint11_linear_1223_18714" x1="389.771" y1="395.128" x2="188.599" y2="142.088" gradientUnits="userSpaceOnUse">
<stop stop-color="#DA5900"/>
<stop offset="0.5" stop-color="#D29F34"/>
<stop offset="1" stop-color="#A7D1AD"/>
</linearGradient>
<linearGradient id="paint12_linear_1223_18714" x1="437.65" y1="151.135" x2="141.619" y2="378.967" gradientUnits="userSpaceOnUse">
<stop stop-color="white" stop-opacity="0.8"/>
<stop offset="1" stop-color="white"/>
</linearGradient>
<linearGradient id="paint13_linear_1223_18714" x1="385.782" y1="389.979" x2="193.487" y2="140.122" gradientUnits="userSpaceOnUse">
<stop stop-color="#DA5900"/>
<stop offset="0.5" stop-color="#D29F34"/>
<stop offset="1" stop-color="#A7D1AD"/>
</linearGradient>
<linearGradient id="paint14_linear_1223_18714" x1="436.132" y1="152.95" x2="144.129" y2="370.441" gradientUnits="userSpaceOnUse">
<stop stop-color="white" stop-opacity="0.8"/>
<stop offset="1" stop-color="white"/>
</linearGradient>
<linearGradient id="paint15_linear_1223_18714" x1="381.914" y1="384.925" x2="198.346" y2="138.466" gradientUnits="userSpaceOnUse">
<stop stop-color="#DA5900"/>
<stop offset="0.5" stop-color="#D29F34"/>
<stop offset="1" stop-color="#A7D1AD"/>
</linearGradient>
<linearGradient id="paint16_linear_1223_18714" x1="434.539" y1="154.878" x2="146.815" y2="362.214" gradientUnits="userSpaceOnUse">
<stop stop-color="white" stop-opacity="0.8"/>
<stop offset="1" stop-color="white"/>
</linearGradient>
<linearGradient id="paint17_linear_1223_18714" x1="378.176" y1="379.971" x2="203.177" y2="137.121" gradientUnits="userSpaceOnUse">
<stop stop-color="#DA5900"/>
<stop offset="0.5" stop-color="#D29F34"/>
<stop offset="1" stop-color="#A7D1AD"/>
</linearGradient>
<linearGradient id="paint18_linear_1223_18714" x1="432.865" y1="156.893" x2="149.666" y2="354.263" gradientUnits="userSpaceOnUse">
<stop stop-color="white" stop-opacity="0.8"/>
<stop offset="1" stop-color="white"/>
</linearGradient>
<linearGradient id="paint19_linear_1223_18714" x1="374.56" y1="375.094" x2="207.97" y2="136.062" gradientUnits="userSpaceOnUse">
<stop stop-color="#DA5900"/>
<stop offset="0.5" stop-color="#D29F34"/>
<stop offset="1" stop-color="#A7D1AD"/>
</linearGradient>
<linearGradient id="paint20_linear_1223_18714" x1="431.109" y1="159.023" x2="152.676" y2="346.624" gradientUnits="userSpaceOnUse">
<stop stop-color="white" stop-opacity="0.8"/>
<stop offset="1" stop-color="white"/>
</linearGradient>
<linearGradient id="paint21_linear_1223_18714" x1="371.065" y1="370.329" x2="212.72" y2="135.317" gradientUnits="userSpaceOnUse">
<stop stop-color="#DA5900"/>
<stop offset="0.5" stop-color="#D29F34"/>
<stop offset="1" stop-color="#A7D1AD"/>
</linearGradient>
<linearGradient id="paint22_linear_1223_18714" x1="429.261" y1="161.243" x2="155.829" y2="339.274" gradientUnits="userSpaceOnUse">
<stop stop-color="white" stop-opacity="0.8"/>
<stop offset="1" stop-color="white"/>
</linearGradient>
<linearGradient id="paint23_linear_1223_18714" x1="367.679" y1="365.655" x2="217.41" y2="134.862" gradientUnits="userSpaceOnUse">
<stop stop-color="#DA5900"/>
<stop offset="0.5" stop-color="#D29F34"/>
<stop offset="1" stop-color="#A7D1AD"/>
</linearGradient>
<linearGradient id="paint24_linear_1223_18714" x1="427.341" y1="163.567" x2="159.141" y2="332.234" gradientUnits="userSpaceOnUse">
<stop stop-color="white" stop-opacity="0.8"/>
<stop offset="1" stop-color="white"/>
</linearGradient>
<linearGradient id="paint25_linear_1223_18714" x1="364.424" y1="361.09" x2="222.057" y2="134.71" gradientUnits="userSpaceOnUse">
<stop stop-color="#DA5900"/>
<stop offset="0.5" stop-color="#D29F34"/>
<stop offset="1" stop-color="#A7D1AD"/>
</linearGradient>
<linearGradient id="paint26_linear_1223_18714" x1="425.326" y1="165.988" x2="162.583" y2="325.501" gradientUnits="userSpaceOnUse">
<stop stop-color="white" stop-opacity="0.8"/>
<stop offset="1" stop-color="white"/>
</linearGradient>
<linearGradient id="paint27_linear_1223_18714" x1="361.276" y1="356.633" x2="226.634" y2="134.856" gradientUnits="userSpaceOnUse">
<stop stop-color="#DA5900"/>
<stop offset="0.5" stop-color="#D29F34"/>
<stop offset="1" stop-color="#A7D1AD"/>
</linearGradient>
<linearGradient id="paint28_linear_1223_18714" x1="423.213" y1="168.49" x2="166.147" y2="319.064" gradientUnits="userSpaceOnUse">
<stop stop-color="white" stop-opacity="0.8"/>
<stop offset="1" stop-color="white"/>
</linearGradient>
<linearGradient id="paint29_linear_1223_18714" x1="358.229" y1="352.271" x2="231.13" y2="135.283" gradientUnits="userSpaceOnUse">
<stop stop-color="#DA5900"/>
<stop offset="0.5" stop-color="#D29F34"/>
<stop offset="1" stop-color="#A7D1AD"/>
</linearGradient>
<linearGradient id="paint30_linear_1223_18714" x1="421.008" y1="171.097" x2="169.833" y2="312.953" gradientUnits="userSpaceOnUse">
<stop stop-color="white" stop-opacity="0.8"/>
<stop offset="1" stop-color="white"/>
</linearGradient>
<linearGradient id="paint31_linear_1223_18714" x1="355.291" y1="348.034" x2="235.55" y2="136.016" gradientUnits="userSpaceOnUse">
<stop stop-color="#DA5900"/>
<stop offset="0.5" stop-color="#D29F34"/>
<stop offset="1" stop-color="#A7D1AD"/>
</linearGradient>
<linearGradient id="paint32_linear_1223_18714" x1="418.723" y1="173.785" x2="173.647" y2="307.146" gradientUnits="userSpaceOnUse">
<stop stop-color="white" stop-opacity="0.8"/>
<stop offset="1" stop-color="white"/>
</linearGradient>
<linearGradient id="paint33_linear_1223_18714" x1="352.471" y1="343.902" x2="239.899" y2="137.03" gradientUnits="userSpaceOnUse">
<stop stop-color="#DA5900"/>
<stop offset="0.5" stop-color="#D29F34"/>
<stop offset="1" stop-color="#A7D1AD"/>
</linearGradient>
<linearGradient id="paint34_linear_1223_18714" x1="416.333" y1="176.559" x2="177.562" y2="301.655" gradientUnits="userSpaceOnUse">
<stop stop-color="white" stop-opacity="0.8"/>
<stop offset="1" stop-color="white"/>
</linearGradient>
<linearGradient id="paint35_linear_1223_18714" x1="349.746" y1="339.884" x2="244.149" y2="138.33" gradientUnits="userSpaceOnUse">
<stop stop-color="#DA5900"/>
<stop offset="0.5" stop-color="#D29F34"/>
<stop offset="1" stop-color="#A7D1AD"/>
</linearGradient>
<linearGradient id="paint36_linear_1223_18714" x1="413.846" y1="179.42" x2="181.575" y2="296.483" gradientUnits="userSpaceOnUse">
<stop stop-color="white" stop-opacity="0.8"/>
<stop offset="1" stop-color="white"/>
</linearGradient>
<linearGradient id="paint37_linear_1223_18714" x1="347.119" y1="335.986" x2="248.302" y2="139.917" gradientUnits="userSpaceOnUse">
<stop stop-color="#DA5900"/>
<stop offset="0.5" stop-color="#D29F34"/>
<stop offset="1" stop-color="#A7D1AD"/>
</linearGradient>
<linearGradient id="paint38_linear_1223_18714" x1="411.249" y1="182.352" x2="185.671" y2="291.618" gradientUnits="userSpaceOnUse">
<stop stop-color="white" stop-opacity="0.8"/>
<stop offset="1" stop-color="white"/>
</linearGradient>
<linearGradient id="paint39_linear_1223_18714" x1="344.579" y1="332.197" x2="252.341" y2="141.774" gradientUnits="userSpaceOnUse">
<stop stop-color="#DA5900"/>
<stop offset="0.5" stop-color="#D29F34"/>
<stop offset="1" stop-color="#A7D1AD"/>
</linearGradient>
<linearGradient id="paint40_linear_1223_18714" x1="408.559" y1="185.374" x2="189.86" y2="287.085" gradientUnits="userSpaceOnUse">
<stop stop-color="white" stop-opacity="0.8"/>
<stop offset="1" stop-color="white"/>
</linearGradient>
<linearGradient id="paint41_linear_1223_18714" x1="342.141" y1="328.539" x2="256.279" y2="143.919" gradientUnits="userSpaceOnUse">
<stop stop-color="#DA5900"/>
<stop offset="0.5" stop-color="#D29F34"/>
<stop offset="1" stop-color="#A7D1AD"/>
</linearGradient>
<linearGradient id="paint42_linear_1223_18714" x1="405.761" y1="188.464" x2="194.12" y2="282.866" gradientUnits="userSpaceOnUse">
<stop stop-color="white" stop-opacity="0.8"/>
<stop offset="1" stop-color="white"/>
</linearGradient>
<linearGradient id="paint43_linear_1223_18714" x1="339.787" y1="324.998" x2="260.094" y2="146.333" gradientUnits="userSpaceOnUse">
<stop stop-color="#DA5900"/>
<stop offset="0.5" stop-color="#D29F34"/>
<stop offset="1" stop-color="#A7D1AD"/>
</linearGradient>
<linearGradient id="paint44_linear_1223_18714" x1="402.866" y1="191.63" x2="198.458" y2="278.969" gradientUnits="userSpaceOnUse">
<stop stop-color="white" stop-opacity="0.8"/>
<stop offset="1" stop-color="white"/>
</linearGradient>
<linearGradient id="paint45_linear_1223_18714" x1="337.528" y1="321.581" x2="263.795" y2="149.018" gradientUnits="userSpaceOnUse">
<stop stop-color="#DA5900"/>
<stop offset="0.5" stop-color="#D29F34"/>
<stop offset="1" stop-color="#A7D1AD"/>
</linearGradient>
<linearGradient id="paint46_linear_1223_18714" x1="399.859" y1="194.872" x2="202.852" y2="275.403" gradientUnits="userSpaceOnUse">
<stop stop-color="white" stop-opacity="0.8"/>
<stop offset="1" stop-color="white"/>
</linearGradient>
<linearGradient id="paint47_linear_1223_18714" x1="335.349" y1="318.298" x2="267.362" y2="151.978" gradientUnits="userSpaceOnUse">
<stop stop-color="#DA5900"/>
<stop offset="0.5" stop-color="#D29F34"/>
<stop offset="1" stop-color="#A7D1AD"/>
</linearGradient>
<linearGradient id="paint48_linear_1223_18714" x1="396.747" y1="198.175" x2="207.301" y2="272.152" gradientUnits="userSpaceOnUse">
<stop stop-color="white" stop-opacity="0.8"/>
<stop offset="1" stop-color="white"/>
</linearGradient>
<linearGradient id="paint49_linear_1223_18714" x1="333.252" y1="315.133" x2="270.796" y2="155.193" gradientUnits="userSpaceOnUse">
<stop stop-color="#DA5900"/>
<stop offset="0.5" stop-color="#D29F34"/>
<stop offset="1" stop-color="#A7D1AD"/>
</linearGradient>
<linearGradient id="paint50_linear_1223_18714" x1="393.529" y1="201.546" x2="211.801" y2="269.229" gradientUnits="userSpaceOnUse">
<stop stop-color="white" stop-opacity="0.8"/>
<stop offset="1" stop-color="white"/>
</linearGradient>
<linearGradient id="paint51_linear_1223_18714" x1="331.236" y1="312.102" x2="274.093" y2="158.673" gradientUnits="userSpaceOnUse">
<stop stop-color="#DA5900"/>
<stop offset="0.5" stop-color="#D29F34"/>
<stop offset="1" stop-color="#A7D1AD"/>
</linearGradient>
<linearGradient id="paint52_linear_1223_18714" x1="390.187" y1="204.977" x2="216.325" y2="266.628" gradientUnits="userSpaceOnUse">
<stop stop-color="white" stop-opacity="0.8"/>
<stop offset="1" stop-color="white"/>
</linearGradient>
<linearGradient id="paint53_linear_1223_18714" x1="329.282" y1="309.199" x2="277.23" y2="162.407" gradientUnits="userSpaceOnUse">
<stop stop-color="#DA5900"/>
<stop offset="0.5" stop-color="#D29F34"/>
<stop offset="1" stop-color="#A7D1AD"/>
</linearGradient>
<linearGradient id="paint54_linear_1223_18714" x1="386.74" y1="208.473" x2="220.888" y2="264.358" gradientUnits="userSpaceOnUse">
<stop stop-color="white" stop-opacity="0.8"/>
<stop offset="1" stop-color="white"/>
</linearGradient>
<linearGradient id="paint55_linear_1223_18714" x1="327.407" y1="306.433" x2="280.221" y2="166.398" gradientUnits="userSpaceOnUse">
<stop stop-color="#DA5900"/>
<stop offset="0.5" stop-color="#D29F34"/>
<stop offset="1" stop-color="#A7D1AD"/>
</linearGradient>
<linearGradient id="paint56_linear_1223_18714" x1="383.185" y1="212.023" x2="225.479" y2="262.411" gradientUnits="userSpaceOnUse">
<stop stop-color="white" stop-opacity="0.8"/>
<stop offset="1" stop-color="white"/>
</linearGradient>
<linearGradient id="paint57_linear_1223_18714" x1="325.605" y1="303.798" x2="283.059" y2="170.636" gradientUnits="userSpaceOnUse">
<stop stop-color="#DA5900"/>
<stop offset="0.5" stop-color="#D29F34"/>
<stop offset="1" stop-color="#A7D1AD"/>
</linearGradient>
<linearGradient id="paint58_linear_1223_18714" x1="379.511" y1="215.637" x2="230.08" y2="260.798" gradientUnits="userSpaceOnUse">
<stop stop-color="white" stop-opacity="0.8"/>
<stop offset="1" stop-color="white"/>
</linearGradient>
<linearGradient id="paint59_linear_1223_18714" x1="323.863" y1="301.308" x2="285.729" y2="175.128" gradientUnits="userSpaceOnUse">
<stop stop-color="#DA5900"/>
<stop offset="0.5" stop-color="#D29F34"/>
<stop offset="1" stop-color="#A7D1AD"/>
</linearGradient>
<linearGradient id="paint60_linear_1223_18714" x1="375.721" y1="219.285" x2="234.689" y2="259.493" gradientUnits="userSpaceOnUse">
<stop stop-color="white" stop-opacity="0.8"/>
<stop offset="1" stop-color="white"/>
</linearGradient>
<linearGradient id="paint61_linear_1223_18714" x1="322.182" y1="298.936" x2="288.228" y2="179.842" gradientUnits="userSpaceOnUse">
<stop stop-color="#DA5900"/>
<stop offset="0.5" stop-color="#D29F34"/>
<stop offset="1" stop-color="#A7D1AD"/>
</linearGradient>
<linearGradient id="paint62_linear_1223_18714" x1="371.823" y1="222.993" x2="239.306" y2="258.525" gradientUnits="userSpaceOnUse">
<stop stop-color="white" stop-opacity="0.8"/>
<stop offset="1" stop-color="white"/>
</linearGradient>
<linearGradient id="paint63_linear_1223_18714" x1="320.568" y1="296.713" x2="290.561" y2="184.804" gradientUnits="userSpaceOnUse">
<stop stop-color="#DA5900"/>
<stop offset="0.5" stop-color="#D29F34"/>
<stop offset="1" stop-color="#A7D1AD"/>
</linearGradient>
<linearGradient id="paint64_linear_1223_18714" x1="367.79" y1="226.754" x2="243.899" y2="257.89" gradientUnits="userSpaceOnUse">
<stop stop-color="white" stop-opacity="0.8"/>
<stop offset="1" stop-color="white"/>
</linearGradient>
<linearGradient id="paint65_linear_1223_18714" x1="318.992" y1="294.638" x2="292.697" y2="190.006" gradientUnits="userSpaceOnUse">
<stop stop-color="#DA5900"/>
<stop offset="0.5" stop-color="#D29F34"/>
<stop offset="1" stop-color="#A7D1AD"/>
</linearGradient>
<linearGradient id="paint66_linear_1223_18714" x1="363.656" y1="230.558" x2="248.494" y2="257.577" gradientUnits="userSpaceOnUse">
<stop stop-color="white" stop-opacity="0.8"/>
<stop offset="1" stop-color="white"/>
</linearGradient>
<linearGradient id="paint67_linear_1223_18714" x1="317.486" y1="292.701" x2="294.664" y2="195.434" gradientUnits="userSpaceOnUse">
<stop stop-color="#DA5900"/>
<stop offset="0.5" stop-color="#D29F34"/>
<stop offset="1" stop-color="#A7D1AD"/>
</linearGradient>
<linearGradient id="paint68_linear_1223_18714" x1="359.393" y1="234.388" x2="253.057" y2="257.576" gradientUnits="userSpaceOnUse">
<stop stop-color="white" stop-opacity="0.8"/>
<stop offset="1" stop-color="white"/>
</linearGradient>
<linearGradient id="paint69_linear_1223_18714" x1="316.018" y1="290.893" x2="296.432" y2="201.071" gradientUnits="userSpaceOnUse">
<stop stop-color="#DA5900"/>
<stop offset="0.5" stop-color="#D29F34"/>
<stop offset="1" stop-color="#A7D1AD"/>
</linearGradient>
<linearGradient id="paint70_linear_1223_18714" x1="355.008" y1="238.264" x2="257.587" y2="257.904" gradientUnits="userSpaceOnUse">
<stop stop-color="white" stop-opacity="0.8"/>
<stop offset="1" stop-color="white"/>
</linearGradient>
<linearGradient id="paint71_linear_1223_18714" x1="314.593" y1="289.233" x2="298.002" y2="206.934" gradientUnits="userSpaceOnUse">
<stop stop-color="#DA5900"/>
<stop offset="0.5" stop-color="#D29F34"/>
<stop offset="1" stop-color="#A7D1AD"/>
</linearGradient>
<linearGradient id="paint72_linear_1223_18714" x1="350.508" y1="242.18" x2="262.086" y2="258.561" gradientUnits="userSpaceOnUse">
<stop stop-color="white" stop-opacity="0.8"/>
<stop offset="1" stop-color="white"/>
</linearGradient>
<linearGradient id="paint73_linear_1223_18714" x1="313.217" y1="287.724" x2="299.377" y2="213.017" gradientUnits="userSpaceOnUse">
<stop stop-color="#DA5900"/>
<stop offset="0.5" stop-color="#D29F34"/>
<stop offset="1" stop-color="#A7D1AD"/>
</linearGradient>
<linearGradient id="paint74_linear_1223_18714" x1="345.885" y1="246.123" x2="266.538" y2="259.533" gradientUnits="userSpaceOnUse">
<stop stop-color="white" stop-opacity="0.8"/>
<stop offset="1" stop-color="white"/>
</linearGradient>
<linearGradient id="paint75_linear_1223_18714" x1="311.877" y1="286.353" x2="300.546" y2="219.303" gradientUnits="userSpaceOnUse">
<stop stop-color="#DA5900"/>
<stop offset="0.5" stop-color="#D29F34"/>
<stop offset="1" stop-color="#A7D1AD"/>
</linearGradient>
<linearGradient id="paint76_linear_1223_18714" x1="341.139" y1="250.094" x2="270.936" y2="260.824" gradientUnits="userSpaceOnUse">
<stop stop-color="white" stop-opacity="0.8"/>
<stop offset="1" stop-color="white"/>
</linearGradient>
<linearGradient id="paint77_linear_1223_18714" x1="310.571" y1="285.126" x2="301.503" y2="225.792" gradientUnits="userSpaceOnUse">
<stop stop-color="#DA5900"/>
<stop offset="0.5" stop-color="#D29F34"/>
<stop offset="1" stop-color="#A7D1AD"/>
</linearGradient>
<linearGradient id="paint78_linear_1223_18714" x1="336.263" y1="254.093" x2="275.267" y2="262.434" gradientUnits="userSpaceOnUse">
<stop stop-color="white" stop-opacity="0.8"/>
<stop offset="1" stop-color="white"/>
</linearGradient>
<linearGradient id="paint79_linear_1223_18714" x1="309.291" y1="284.046" x2="302.239" y2="232.48" gradientUnits="userSpaceOnUse">
<stop stop-color="#DA5900"/>
<stop offset="0.5" stop-color="#D29F34"/>
<stop offset="1" stop-color="#A7D1AD"/>
</linearGradient>
<linearGradient id="paint80_linear_1223_18714" x1="331.266" y1="258.112" x2="279.532" y2="264.358" gradientUnits="userSpaceOnUse">
<stop stop-color="white" stop-opacity="0.8"/>
<stop offset="1" stop-color="white"/>
</linearGradient>
<linearGradient id="paint81_linear_1223_18714" x1="308.04" y1="283.111" x2="302.758" y2="239.359" gradientUnits="userSpaceOnUse">
<stop stop-color="#DA5900"/>
<stop offset="0.5" stop-color="#D29F34"/>
<stop offset="1" stop-color="#A7D1AD"/>
</linearGradient>
</defs>
</svg>
