<svg xmlns="http://www.w3.org/2000/svg" width="348" height="653" fill="none" viewBox="0 0 348 653"><g fill-rule="evenodd" clip-path="url(#a)" clip-rule="evenodd" filter="url(#b)" opacity=".35"><path fill="url(#c)" d="M-136.805 517.961c91.165 91.165 242.16 88.112 340.101-9.83s100.995-248.936 9.83-340.101c-14.213-14.213-104.07 52.599-200.7 149.23-96.632 96.631-163.444 186.488-149.231 200.701m100.789 51.542c78.902 21.95 169.265.098 235.023-65.661 65.759-65.758 87.611-156.122 65.661-235.024 12.717 73.427-14.092 157.719-78.529 222.156S37.41 582.22-36.016 569.503m217.866-82.818c-67.401 67.401-156.563 92.379-231.04 73.47 69.431 9.543 152.506-20.671 218.172-86.338 65.667-65.666 95.881-148.741 86.338-218.172 18.909 74.477-6.069 163.639-73.47 231.04m-244.02 64.594c69.66 15.843 157.59-12.477 226.863-81.751 69.274-69.273 97.594-157.202 81.751-226.863 1.747 17.988.434 37.238-3.783 57.062-11.059 51.989-42.115 108.213-90.836 156.933S46.881 536.437-5.108 547.496c-19.824 4.217-39.074 5.53-57.062 3.783m56.176-9.934c-24.428 5.196-47.733 5.819-68.671 1.7 17.8.859 37.313-1.821 57.66-7.74 48.81-14.198 103.026-47.154 151.674-95.802 48.647-48.647 81.603-102.864 95.801-151.673 5.919-20.347 8.599-39.859 7.74-57.66 4.119 20.937 3.496 44.243-1.7 68.671-10.753 50.548-41.063 105.62-88.974 153.53-47.91 47.911-102.982 78.221-153.53 88.974m-80.305-5.835c19.979 3.145 43.095.989 67.938-6.238 47.518-13.823 100.757-46.075 148.74-94.058s80.235-101.222 94.058-148.74c7.227-24.843 9.383-47.959 6.238-67.938-.259 17.266-4.582 36.778-12.421 57.416-17.324 45.608-52.164 97.816-100.742 146.394-48.58 48.579-100.787 83.419-146.395 100.743-20.638 7.839-40.15 12.162-57.416 12.421m55.553-18.285c-25.209 9.575-47.863 13.494-66.422 11.503 16.242-1.583 35.455-7.782 56.42-17.886 42.39-20.43 92.588-57.138 141.103-105.652 48.514-48.515 85.222-98.713 105.652-141.102 10.104-20.966 16.303-40.179 17.886-56.421 1.991 18.559-1.927 41.213-11.503 66.422-16.907 44.509-51.116 95.916-99.168 143.968s-99.458 82.261-143.968 99.168m-76.447 5.567q4.434.173 9.388-.282c15.296-1.406 33.89-7.291 54.66-17.302 41.518-20.01 91.094-56.191 139.21-104.308 48.117-48.116 84.298-97.692 104.308-139.21 10.011-20.771 15.896-39.364 17.302-54.66q.454-4.954.282-9.388a86 86 0 0 1-.781 3.346c-3.621 14.218-11.708 31.687-23.45 51.244-23.511 39.158-62.075 87.347-110.528 135.801s-96.643 87.017-135.8 110.528c-19.558 11.742-37.027 19.829-51.245 23.449q-1.696.432-3.346.782m2.206-6.874c-6.488 1.652-11.925 2.228-16.352 1.849 32.6-11.631 106.68-70.481 185.235-149.036s137.405-152.634 149.036-185.236c.379 4.428-.197 9.865-1.849 16.353-3.392 13.32-11.11 30.142-22.692 49.433-23.14 38.541-61.306 86.285-109.483 134.462s-95.921 86.343-134.461 109.483c-19.292 11.582-36.113 19.3-49.434 22.692m309.955-343.311c2.469-.404 3.35-.066 3.546.035.101.196.439 1.077.035 3.546-.507 3.101-2.019 7.487-4.784 13.201-5.497 11.359-15.238 26.539-28.642 44.566-26.747 35.973-67.365 82.335-115.516 130.487S-34.907 453.211-70.88 479.958c-18.027 13.404-33.206 23.145-44.566 28.642-5.714 2.765-10.1 4.277-13.201 4.784-2.468.404-3.35.066-3.546-.035-.101-.196-.439-1.077-.035-3.546.507-3.101 2.019-7.487 4.784-13.201 5.497-11.359 15.238-26.539 28.643-44.566 26.746-35.973 67.364-82.335 115.515-130.487 48.152-48.151 94.514-88.769 130.487-115.516 18.027-13.404 33.207-23.145 44.566-28.642 5.714-2.765 10.1-4.277 13.201-4.784"/><path fill="url(#d)" d="M-162.865 491.901c-91.165-91.165-88.112-242.16 9.829-340.102S95.901 50.805 187.066 141.97c14.213 14.213-52.6 104.07-149.23 200.701-96.631 96.63-186.488 163.443-200.701 149.23m-51.543-100.789c-21.949-78.902-.097-169.265 65.662-235.023C-82.988 90.33 7.375 68.478 86.277 90.427 12.851 77.71-71.442 104.52-135.879 168.956s-91.245 148.73-78.529 222.156m82.819-217.866c-67.402 67.401-92.379 156.563-73.47 231.04-9.543-69.432 20.671-152.507 86.337-218.173S30.02 90.233 99.451 99.776c-74.477-18.91-163.64 6.068-231.04 73.47m-64.595 244.019c-15.842-69.66 12.478-157.589 81.752-226.863 69.273-69.273 157.202-97.593 226.863-81.751-17.988-1.747-37.238-.434-57.063 3.784C3.38 123.494-52.844 154.55-101.565 203.27s-79.776 104.945-90.835 156.933c-4.217 19.825-5.53 39.075-3.784 57.062m9.935-56.175c-5.196 24.428-5.819 47.733-1.7 68.671-.86-17.801 1.82-37.313 7.739-57.661 14.199-48.809 47.155-103.025 95.802-151.673s102.864-81.603 151.673-95.802c20.348-5.919 39.86-8.599 57.661-7.74-20.938-4.118-44.243-3.495-68.671 1.701-50.548 10.753-105.62 41.063-153.53 88.973-47.911 47.911-78.221 102.983-88.974 153.531m5.835 80.305c-3.146-19.979-.989-43.095 6.238-67.939 13.823-47.517 46.074-100.756 94.057-148.74 47.984-47.983 101.223-80.234 148.74-94.057 24.844-7.227 47.96-9.384 67.939-6.238-17.267.258-36.778 4.582-57.416 12.421-45.608 17.324-97.816 52.163-146.395 100.742-48.578 48.579-83.418 100.787-100.742 146.395-7.839 20.638-12.163 40.149-12.421 57.416m18.285-55.554c-9.576 25.21-13.494 47.864-11.503 66.422 1.582-16.242 7.781-35.455 17.886-56.42 20.43-42.389 57.138-92.588 105.652-141.102S48.62 169.519 91.008 149.089c20.966-10.105 40.178-16.304 56.42-17.886-18.558-1.991-41.212 1.927-66.422 11.503-44.509 16.906-95.915 51.115-143.967 99.167s-82.261 99.459-99.168 143.968m-5.568 76.448q-.171-4.434.283-9.388c1.405-15.296 7.291-33.889 17.302-54.66 20.01-41.519 56.19-91.094 104.307-139.211 48.117-48.116 97.692-84.297 139.211-104.308 20.771-10.01 39.364-15.896 54.66-17.301q4.954-.454 9.388-.283a85 85 0 0 0-3.347.782c-14.218 3.621-31.686 11.707-51.244 23.45-39.157 23.51-87.346 62.074-135.8 110.528s-87.018 96.643-110.528 135.8c-11.742 19.558-19.829 37.026-23.45 51.244a85 85 0 0 0-.782 3.347m6.874-2.206c-1.652 6.488-2.227 11.925-1.848 16.352 11.631-32.601 70.48-106.68 149.036-185.235S138.999 153.795 171.6 142.164c-4.427-.379-9.864.196-16.352 1.848-13.321 3.392-30.143 11.111-49.434 22.693-38.54 23.14-86.285 61.305-134.462 109.482s-86.342 95.922-109.482 134.462c-11.582 19.291-19.301 36.113-22.693 49.434m343.312-309.955c.404-2.469.066-3.351-.035-3.546-.196-.101-1.078-.439-3.547-.036-3.101.508-7.486 2.019-13.2 4.785-11.36 5.497-26.539 15.238-44.567 28.642C85.168 206.72 38.806 247.337-9.346 295.489s-88.769 94.514-115.516 130.486c-13.404 18.028-23.145 33.207-28.642 44.567-2.766 5.714-4.277 10.099-4.784 13.2-.404 2.469-.066 3.351.035 3.547.195.1 1.077.439 3.546.035 3.101-.508 7.486-2.019 13.201-4.784 11.359-5.498 26.538-15.238 44.566-28.643 35.972-26.747 82.335-67.364 130.486-115.516 48.152-48.151 88.769-94.514 115.516-130.486 13.405-18.028 23.145-33.207 28.643-44.566 2.765-5.715 4.277-10.1 4.784-13.201"/><path fill="url(#e)" d="M-162.865 491.901c-91.165-91.165-88.112-242.16 9.829-340.102S95.901 50.805 187.066 141.97c14.213 14.213-52.6 104.07-149.23 200.701-96.631 96.63-186.488 163.443-200.701 149.23m-51.543-100.789c-21.949-78.902-.097-169.265 65.662-235.023C-82.988 90.33 7.375 68.478 86.277 90.427 12.851 77.71-71.442 104.52-135.879 168.956s-91.245 148.73-78.529 222.156m82.819-217.866c-67.402 67.401-92.379 156.563-73.47 231.04-9.543-69.432 20.671-152.507 86.337-218.173S30.02 90.233 99.451 99.776c-74.477-18.91-163.64 6.068-231.04 73.47m-64.595 244.019c-15.842-69.66 12.478-157.589 81.752-226.863 69.273-69.273 157.202-97.593 226.863-81.751-17.988-1.747-37.238-.434-57.063 3.784C3.38 123.494-52.844 154.55-101.565 203.27s-79.776 104.945-90.835 156.933c-4.217 19.825-5.53 39.075-3.784 57.062m9.935-56.175c-5.196 24.428-5.819 47.733-1.7 68.671-.86-17.801 1.82-37.313 7.739-57.661 14.199-48.809 47.155-103.025 95.802-151.673s102.864-81.603 151.673-95.802c20.348-5.919 39.86-8.599 57.661-7.74-20.938-4.118-44.243-3.495-68.671 1.701-50.548 10.753-105.62 41.063-153.53 88.973-47.911 47.911-78.221 102.983-88.974 153.531m5.835 80.305c-3.146-19.979-.989-43.095 6.238-67.939 13.823-47.517 46.074-100.756 94.057-148.74 47.984-47.983 101.223-80.234 148.74-94.057 24.844-7.227 47.96-9.384 67.939-6.238-17.267.258-36.778 4.582-57.416 12.421-45.608 17.324-97.816 52.163-146.395 100.742-48.578 48.579-83.418 100.787-100.742 146.395-7.839 20.638-12.163 40.149-12.421 57.416m18.285-55.554c-9.576 25.21-13.494 47.864-11.503 66.422 1.582-16.242 7.781-35.455 17.886-56.42 20.43-42.389 57.138-92.588 105.652-141.102S48.62 169.519 91.008 149.089c20.966-10.105 40.178-16.304 56.42-17.886-18.558-1.991-41.212 1.927-66.422 11.503-44.509 16.906-95.915 51.115-143.967 99.167s-82.261 99.459-99.168 143.968m-5.568 76.448q-.171-4.434.283-9.388c1.405-15.296 7.291-33.889 17.302-54.66 20.01-41.519 56.19-91.094 104.307-139.211 48.117-48.116 97.692-84.297 139.211-104.308 20.771-10.01 39.364-15.896 54.66-17.301q4.954-.454 9.388-.283a85 85 0 0 0-3.347.782c-14.218 3.621-31.686 11.707-51.244 23.45-39.157 23.51-87.346 62.074-135.8 110.528s-87.018 96.643-110.528 135.8c-11.742 19.558-19.829 37.026-23.45 51.244a85 85 0 0 0-.782 3.347m6.874-2.206c-1.652 6.488-2.227 11.925-1.848 16.352 11.631-32.601 70.48-106.68 149.036-185.235S138.999 153.795 171.6 142.164c-4.427-.379-9.864.196-16.352 1.848-13.321 3.392-30.143 11.111-49.434 22.693-38.54 23.14-86.285 61.305-134.462 109.482s-86.342 95.922-109.482 134.462c-11.582 19.291-19.301 36.113-22.693 49.434m343.312-309.955c.404-2.469.066-3.351-.035-3.546-.196-.101-1.078-.439-3.547-.036-3.101.508-7.486 2.019-13.2 4.785-11.36 5.497-26.539 15.238-44.567 28.642C85.168 206.72 38.806 247.337-9.346 295.489s-88.769 94.514-115.516 130.486c-13.404 18.028-23.145 33.207-28.642 44.567-2.766 5.714-4.277 10.099-4.784 13.2-.404 2.469-.066 3.351.035 3.547.195.1 1.077.439 3.546.035 3.101-.508 7.486-2.019 13.201-4.784 11.359-5.498 26.538-15.238 44.566-28.643 35.972-26.747 82.335-67.364 130.486-115.516 48.152-48.151 88.769-94.514 115.516-130.486 13.405-18.028 23.145-33.207 28.643-44.566 2.765-5.715 4.277-10.1 4.784-13.201"/></g><g fill-rule="evenodd" clip-path="url(#f)" clip-rule="evenodd"><path fill="url(#g)" d="M-136.804 135.699c91.165-91.164 242.16-88.112 340.101 9.83s100.995 248.936 9.83 340.101C198.914 499.843 102.133 442.631 5.502 346c-96.63-96.631-156.519-196.087-142.306-210.301m100.789-51.542c78.902-21.95 169.265-.097 235.023 65.661 65.759 65.759 87.611 156.122 65.661 235.024 12.717-73.427-14.092-157.719-78.529-222.156S37.411 71.44-36.015 84.156m217.866 82.818c-67.401-67.4-156.563-92.378-231.04-73.469 69.431-9.543 152.506 20.672 218.172 86.338s95.881 148.741 86.338 218.172c18.909-74.477-6.069-163.639-73.47-231.04m-244.02-64.594c69.66-15.843 157.59 12.478 226.863 81.751 69.274 69.273 97.594 157.202 81.751 226.863 1.747-17.988.434-37.238-3.783-57.062C231.603 301.944 200.547 245.72 151.826 197S46.882 117.223-5.107 106.164c-19.824-4.217-39.074-5.53-57.062-3.783m56.176 9.935c-24.428-5.197-47.733-5.819-68.671-1.701 17.8-.859 37.313 1.821 57.66 7.74 48.81 14.198 103.026 47.154 151.673 95.802 48.648 48.647 81.604 102.864 95.802 151.673 5.919 20.347 8.599 39.859 7.74 57.661 4.119-20.938 3.496-44.243-1.7-68.672-10.753-50.547-41.063-105.62-88.974-153.53-47.91-47.911-102.982-78.221-153.53-88.973m-80.305 5.834c19.979-3.145 43.095-.988 67.938 6.238 47.518 13.823 100.757 46.075 148.74 94.058s80.235 101.222 94.058 148.74c7.227 24.843 9.383 47.96 6.238 67.938-.259-17.266-4.582-36.777-12.421-57.416-17.324-45.608-52.164-97.816-100.742-146.394-48.58-48.579-100.787-83.418-146.395-100.743-20.638-7.839-40.15-12.162-57.416-12.421m55.553 18.285c-25.209-9.575-47.863-13.493-66.421-11.503 16.241 1.583 35.454 7.782 56.42 17.887 42.389 20.429 92.587 57.137 141.102 105.652s85.222 98.712 105.652 141.101c10.104 20.966 16.303 40.179 17.886 56.421 1.991-18.559-1.927-41.213-11.503-66.422-16.907-44.509-51.116-95.916-99.168-143.968s-99.458-82.261-143.968-99.168m-76.447-5.567q4.434-.173 9.388.283c15.296 1.405 33.89 7.29 54.66 17.301 41.518 20.01 91.094 56.191 139.21 104.308 48.117 48.116 84.298 97.692 104.308 139.211 10.011 20.77 15.896 39.363 17.302 54.659q.454 4.954.282 9.388a84 84 0 0 0-.782-3.346c-3.62-14.218-11.707-31.686-23.449-51.244-23.511-39.158-62.075-87.347-110.528-135.8S-13.444 178.61-52.601 155.1c-19.558-11.743-37.027-19.83-51.245-23.45a84 84 0 0 0-3.346-.782m2.206 6.874c-6.488-1.652-11.925-2.228-16.352-1.849 32.6 11.631 106.68 70.481 185.235 149.036s137.405 152.634 149.036 185.236c.379-4.428-.197-9.865-1.849-16.352-3.392-13.321-11.11-30.143-22.692-49.434-23.14-38.541-61.306-86.285-109.483-134.462s-95.921-86.343-134.461-109.482c-19.292-11.583-36.113-19.301-49.434-22.693m309.955 343.311c2.469.404 3.35.066 3.546-.035.101-.196.439-1.077.035-3.546-.507-3.101-2.019-7.487-4.784-13.201-5.497-11.359-15.238-26.539-28.642-44.566-26.747-35.972-67.365-82.335-115.516-130.487S-34.906 200.45-70.88 173.703c-18.027-13.405-33.207-23.145-44.566-28.643-5.714-2.765-10.1-4.277-13.201-4.784-2.468-.404-3.35-.066-3.546.035-.101.196-.439 1.078-.035 3.547.507 3.101 2.019 7.486 4.784 13.2 5.497 11.36 15.238 26.539 28.643 44.567C-72.054 237.597-36.65 290.848 11.502 339s99.727 81.88 135.7 108.627c18.027 13.404 33.207 23.145 44.566 28.642 5.714 2.766 10.1 4.277 13.201 4.784"/><path fill="url(#h)" d="M-162.864 161.76c-91.165 91.164-88.112 242.159 9.829 340.101s248.937 100.994 340.102 9.829c14.213-14.213-54.434-96.559-151.065-193.19-96.63-96.631-184.653-170.954-198.866-156.74m-51.543 100.788c-21.949 78.902-.097 169.265 65.662 235.024 65.758 65.758 156.121 87.61 235.023 65.661-73.426 12.717-157.719-14.092-222.156-78.529s-91.245-148.73-78.529-222.156m82.819 217.867c-67.402-67.402-92.379-156.564-73.47-231.041-9.543 69.432 20.671 152.507 86.337 218.173s148.742 95.88 218.173 86.338c-74.477 18.909-163.64-6.069-231.04-73.47m-64.595-244.02c-15.842 69.66 12.478 157.589 81.752 226.863 69.273 69.273 157.202 97.594 226.863 81.751-17.988 1.747-37.238.434-57.063-3.783C3.381 530.167-52.844 499.11-101.564 450.39s-79.776-104.944-90.835-156.933c-4.217-19.824-5.53-39.074-3.784-57.062m9.935 56.175c-5.196-24.428-5.819-47.733-1.701-68.671-.859 17.801 1.821 37.313 7.74 57.661 14.199 48.809 47.155 103.025 95.802 151.673s102.864 81.603 151.673 95.802c20.348 5.919 39.86 8.599 57.661 7.74-20.938 4.118-44.243 3.495-68.671-1.701-50.548-10.752-105.62-41.063-153.53-88.973-47.911-47.911-78.221-102.983-88.974-153.531m5.835-80.304c-3.146 19.978-.989 43.095 6.238 67.938 13.823 47.518 46.074 100.757 94.058 148.74 47.983 47.983 101.222 80.235 148.74 94.057 24.843 7.227 47.959 9.384 67.938 6.238-17.267-.258-36.778-4.581-57.416-12.421-45.608-17.324-97.816-52.163-146.395-100.742-48.578-48.579-83.418-100.787-100.742-146.395-7.839-20.638-12.163-40.149-12.421-57.415m18.285 55.553c-9.576-25.209-13.494-47.863-11.503-66.422 1.582 16.242 7.781 35.455 17.886 56.42 20.43 42.389 57.138 92.588 105.652 141.102S48.62 484.141 91.01 504.571c20.965 10.105 40.178 16.304 56.42 17.886-18.558 1.991-41.212-1.927-66.422-11.503-44.509-16.906-95.916-51.115-143.968-99.167s-82.26-99.459-99.167-143.968m-5.568-76.448q-.171 4.435.283 9.388c1.405 15.296 7.291 33.89 17.301 54.66 20.011 41.519 56.192 91.094 104.308 139.211 48.117 48.116 97.692 84.297 139.211 104.308 20.771 10.01 39.364 15.896 54.66 17.301q4.954.454 9.388.283a85 85 0 0 1-3.347-.782c-14.218-3.621-31.686-11.707-51.244-23.45-39.157-23.51-87.346-62.074-135.8-110.528s-87.018-96.643-110.528-135.8c-11.743-19.558-19.829-37.026-23.45-51.244a84 84 0 0 1-.782-3.347m6.874 2.206c-1.652-6.488-2.227-11.924-1.848-16.352 11.631 32.601 70.48 106.68 149.036 185.235S139 499.865 171.6 511.496c-4.427.379-9.864-.196-16.352-1.848-13.321-3.392-30.143-11.111-49.434-22.693-38.54-23.14-86.285-61.305-134.462-109.482s-86.342-95.922-109.482-134.462c-11.582-19.291-19.301-36.113-22.693-49.434M182.49 503.532c.404 2.469.065 3.351-.035 3.546-.196.101-1.078.44-3.547.036-3.101-.508-7.486-2.019-13.2-4.785-11.36-5.497-26.539-15.238-44.567-28.642C85.169 446.94 38.807 406.323-9.345 358.171s-88.769-94.514-115.516-130.486c-13.404-18.028-23.145-33.207-28.642-44.566-2.766-5.715-4.277-10.1-4.784-13.201-.404-2.469-.066-3.351.035-3.546.195-.101 1.077-.44 3.546-.036 3.101.508 7.486 2.019 13.201 4.785 11.359 5.497 26.538 15.238 44.566 28.642 35.972 26.747 78.29 76.585 126.441 124.737 48.152 48.152 92.814 85.293 119.561 121.265 13.405 18.028 23.145 33.207 28.643 44.566 2.765 5.715 4.276 10.1 4.784 13.201"/><path fill="url(#i)" d="M-162.864 161.76c-91.165 91.164-88.112 242.159 9.829 340.101s248.937 100.994 340.102 9.829c14.213-14.213-54.434-96.559-151.065-193.19-96.63-96.631-184.653-170.954-198.866-156.74m-51.543 100.788c-21.949 78.902-.097 169.265 65.662 235.024 65.758 65.758 156.121 87.61 235.023 65.661-73.426 12.717-157.719-14.092-222.156-78.529s-91.245-148.73-78.529-222.156m82.819 217.867c-67.402-67.402-92.379-156.564-73.47-231.041-9.543 69.432 20.671 152.507 86.337 218.173s148.742 95.88 218.173 86.338c-74.477 18.909-163.64-6.069-231.04-73.47m-64.595-244.02c-15.842 69.66 12.478 157.589 81.752 226.863 69.273 69.273 157.202 97.594 226.863 81.751-17.988 1.747-37.238.434-57.063-3.783C3.381 530.167-52.844 499.11-101.564 450.39s-79.776-104.944-90.835-156.933c-4.217-19.824-5.53-39.074-3.784-57.062m9.935 56.175c-5.196-24.428-5.819-47.733-1.701-68.671-.859 17.801 1.821 37.313 7.74 57.661 14.199 48.809 47.155 103.025 95.802 151.673s102.864 81.603 151.673 95.802c20.348 5.919 39.86 8.599 57.661 7.74-20.938 4.118-44.243 3.495-68.671-1.701-50.548-10.752-105.62-41.063-153.53-88.973-47.911-47.911-78.221-102.983-88.974-153.531m5.835-80.304c-3.146 19.978-.989 43.095 6.238 67.938 13.823 47.518 46.074 100.757 94.058 148.74 47.983 47.983 101.222 80.235 148.74 94.057 24.843 7.227 47.959 9.384 67.938 6.238-17.267-.258-36.778-4.581-57.416-12.421-45.608-17.324-97.816-52.163-146.395-100.742-48.578-48.579-83.418-100.787-100.742-146.395-7.839-20.638-12.163-40.149-12.421-57.415m18.285 55.553c-9.576-25.209-13.494-47.863-11.503-66.422 1.582 16.242 7.781 35.455 17.886 56.42 20.43 42.389 57.138 92.588 105.652 141.102S48.62 484.141 91.01 504.571c20.965 10.105 40.178 16.304 56.42 17.886-18.558 1.991-41.212-1.927-66.422-11.503-44.509-16.906-95.916-51.115-143.968-99.167s-82.26-99.459-99.167-143.968m-5.568-76.448q-.171 4.435.283 9.388c1.405 15.296 7.291 33.89 17.301 54.66 20.011 41.519 56.192 91.094 104.308 139.211 48.117 48.116 97.692 84.297 139.211 104.308 20.771 10.01 39.364 15.896 54.66 17.301q4.954.454 9.388.283a85 85 0 0 1-3.347-.782c-14.218-3.621-31.686-11.707-51.244-23.45-39.157-23.51-87.346-62.074-135.8-110.528s-87.018-96.643-110.528-135.8c-11.743-19.558-19.829-37.026-23.45-51.244a84 84 0 0 1-.782-3.347m6.874 2.206c-1.652-6.488-2.227-11.924-1.848-16.352 11.631 32.601 70.48 106.68 149.036 185.235S139 499.865 171.6 511.496c-4.427.379-9.864-.196-16.352-1.848-13.321-3.392-30.143-11.111-49.434-22.693-38.54-23.14-86.285-61.305-134.462-109.482s-86.342-95.922-109.482-134.462c-11.582-19.291-19.301-36.113-22.693-49.434M182.49 503.532c.404 2.469.065 3.351-.035 3.546-.196.101-1.078.44-3.547.036-3.101-.508-7.486-2.019-13.2-4.785-11.36-5.497-26.539-15.238-44.567-28.642C85.169 446.94 38.807 406.323-9.345 358.171s-88.769-94.514-115.516-130.486c-13.404-18.028-23.145-33.207-28.642-44.566-2.766-5.715-4.277-10.1-4.784-13.201-.404-2.469-.066-3.351.035-3.546.195-.101 1.077-.44 3.546-.036 3.101.508 7.486 2.019 13.201 4.785 11.359 5.497 26.538 15.238 44.566 28.642 35.972 26.747 78.29 76.585 126.441 124.737 48.152 48.152 92.814 85.293 119.561 121.265 13.405 18.028 23.145 33.207 28.643 44.566 2.765 5.715 4.276 10.1 4.784 13.201"/></g><defs><linearGradient id="c" x1="12.425" x2="480.999" y1="317.26" y2="788.332" gradientUnits="userSpaceOnUse"><stop offset=".5" stop-color="#ff8633"/><stop offset="1" stop-color="#fff2e8"/></linearGradient><linearGradient id="d" x1="-185.68" x2="46.589" y1="123.684" y2="352.044" gradientUnits="userSpaceOnUse"><stop stop-color="#fff"/><stop offset="1" stop-color="#fff" stop-opacity="0"/></linearGradient><linearGradient id="e" x1="-153.036" x2="79.499" y1="151.799" y2="386.832" gradientUnits="userSpaceOnUse"><stop stop-color="#ba8c27"/><stop offset="1" stop-color="#ffa366"/></linearGradient><linearGradient id="g" x1="12.426" x2="481" y1="336.4" y2="-134.672" gradientUnits="userSpaceOnUse"><stop offset=".5" stop-color="#f6cc7c"/><stop offset="1" stop-color="#fff2e8"/></linearGradient><linearGradient id="h" x1="-185.679" x2="46.59" y1="529.976" y2="301.616" gradientUnits="userSpaceOnUse"><stop stop-color="#fff"/><stop offset="1" stop-color="#fff" stop-opacity="0"/></linearGradient><linearGradient id="i" x1="-153.035" x2="79.5" y1="501.861" y2="266.828" gradientUnits="userSpaceOnUse"><stop stop-color="#6c916f"/><stop offset="1" stop-color="#f6cc7c"/></linearGradient><clipPath id="a"><path fill="#fff" d="M-302.001 2.832h650v650h-650z"/></clipPath><clipPath id="f"><path fill="#fff" d="M-302 650.828h650v-650h-650z"/></clipPath><filter id="b" width="674" height="674" x="-314.001" y="-9.168" color-interpolation-filters="sRGB" filterUnits="userSpaceOnUse"><feFlood flood-opacity="0" result="BackgroundImageFix"/><feBlend in="SourceGraphic" in2="BackgroundImageFix" result="shape"/><feGaussianBlur result="effect1_foregroundBlur_1402_897" stdDeviation="6"/></filter></defs></svg>